<svg width="51" height="56" viewBox="0 0 51 56" fill="none" xmlns="http://www.w3.org/2000/svg">
<path d="M48.7216 27.6257L31.1449 3.56525C29.8355 1.77185 27.8114 0.745117 25.5906 0.745117C23.3697 0.745117 21.3456 1.77411 20.0362 3.56525L2.45955 27.6257C-0.0417132 31.0497 -0.0417122 35.6497 2.46407 39.0804L3.49533 40.4758L3.49759 40.4735L12.5709 52.9708C13.8803 54.7642 15.9044 55.7909 18.1252 55.7909C19.9345 55.7909 21.6148 55.1079 22.8835 53.8822L22.9694 53.9455L25.6132 50.327L27.5445 52.9685C27.5513 52.9798 27.5604 52.9889 27.5671 52.9979L28.1031 53.7329L28.1551 53.6945C29.442 55.0333 31.1969 55.7887 33.0966 55.7887C35.3152 55.7887 37.3392 54.7597 38.6532 52.964L45.5305 43.4904L45.5373 43.4949L46.6771 41.9096L47.982 40.1139L47.973 40.1072L48.7193 39.0669C51.2251 35.6497 51.2251 31.0497 48.7216 27.6257ZM22.8428 5.61421C23.4918 4.72768 24.4937 4.21884 25.5906 4.21884C26.6897 4.21884 27.6915 4.72768 28.3383 5.61421L30.9052 9.12637L25.6132 16.3701L20.2986 9.09471L22.8428 5.61421ZM20.8775 50.9264L20.8753 50.9241C20.2262 51.8106 19.2243 52.3195 18.1275 52.3195C17.0284 52.3195 16.0265 51.8106 15.382 50.9286L6.05087 38.0786L6.04635 38.0831L5.26612 37.027C3.66042 34.8287 3.66042 31.8752 5.26612 29.677L18.1501 12.0415L23.4647 19.3169L17.3925 27.628C14.8912 31.052 14.8912 35.6519 17.3925 39.0759L23.4647 47.3871L20.8775 50.9264ZM25.6132 22.2591L31.0318 29.6747C32.6375 31.8729 32.6375 34.8265 31.0318 37.0247L25.6132 44.4403L20.1945 37.0247C18.5888 34.8265 18.5888 31.8729 20.1945 29.6747L25.6132 22.2591ZM35.8466 50.9241C35.1976 51.8106 34.1957 52.3195 33.0989 52.3195C32.0133 52.3195 31.0228 51.8219 30.3737 50.9535L27.7662 47.3848L33.8384 39.0736C36.3396 35.6497 36.3396 31.0497 33.8384 27.6257L27.7662 19.3146L33.0582 12.0709L45.9195 29.6747C47.5252 31.8729 47.5252 34.8265 45.9127 37.036L43.8728 39.872L35.8466 50.9241Z" fill="url(#paint0_linear)"/>
<defs>
<linearGradient id="paint0_linear" x1="8.54634" y1="49.0669" x2="42.6561" y2="14.9571" gradientUnits="userSpaceOnUse">
<stop stop-color="#FF8506"/>
<stop offset="0.5805" stop-color="#FD3947"/>
<stop offset="1" stop-color="#FB0078"/>
</linearGradient>
</defs>
</svg>
