<svg width="350" height="350" viewBox="0 0 350 350" fill="none" xmlns="http://www.w3.org/2000/svg">
<g filter="url(#filter0_di)">
<path d="M223.509 69.0017C169.411 37.7685 100.237 56.3037 69.0037 110.401C37.7705 164.499 56.3057 233.673 110.403 264.906C164.501 296.139 233.675 277.604 264.908 223.507C296.141 169.409 277.606 100.235 223.509 69.0017Z" fill="url(#paint0_linear)" fill-opacity="0.1"/>
</g>
<path d="M207.233 161.841L176.659 119.99C174.382 116.87 170.861 115.084 166.998 115.084C163.135 115.084 159.614 116.874 157.337 119.99L126.764 161.841C122.413 167.797 122.413 175.798 126.772 181.765L128.565 184.193L128.569 184.189L144.352 205.927C146.629 209.046 150.15 210.832 154.013 210.832C157.16 210.832 160.083 209.644 162.289 207.512L162.439 207.622L167.037 201.328L170.397 205.923C170.409 205.942 170.424 205.958 170.436 205.974L171.369 207.252L171.459 207.185C173.697 209.514 176.75 210.828 180.054 210.828C183.913 210.828 187.434 209.038 189.719 205.915L201.682 189.436L201.694 189.444L203.676 186.687L205.946 183.563L205.93 183.551L207.229 181.742C211.587 175.798 211.587 167.797 207.233 161.841ZM162.219 123.554C163.348 122.012 165.09 121.127 166.998 121.127C168.91 121.127 170.653 122.012 171.778 123.554L176.242 129.663L167.037 142.263L157.793 129.608L162.219 123.554ZM158.8 202.37L158.796 202.367C157.667 203.909 155.925 204.794 154.017 204.794C152.105 204.794 150.362 203.909 149.241 202.374L133.011 180.023L133.003 180.031L131.646 178.194C128.853 174.37 128.853 169.233 131.646 165.409L154.056 134.734L163.3 147.388L152.738 161.845C148.388 167.801 148.388 175.802 152.738 181.758L163.3 196.214L158.8 202.37ZM167.037 152.506L176.463 165.405C179.256 169.229 179.256 174.366 176.463 178.19L167.037 191.088L157.612 178.19C154.819 174.366 154.819 169.229 157.612 165.405L167.037 152.506ZM184.838 202.367C183.709 203.909 181.966 204.794 180.058 204.794C178.17 204.794 176.447 203.928 175.318 202.418L170.782 196.21L181.345 181.754C185.695 175.798 185.695 167.797 181.345 161.841L170.782 147.385L179.987 134.785L202.359 165.405C205.152 169.229 205.152 174.366 202.347 178.209L198.799 183.142L184.838 202.367Z" fill="url(#paint1_linear)"/>
<path opacity="0.6" d="M163.222 196.187L167.037 201.399L161.235 209.188L157.416 204.125L163.222 196.187Z" fill="url(#paint2_linear)"/>
<path d="M163.277 147.389L166.99 152.55L158.324 164.528L153.572 160.775L163.277 147.389Z" fill="url(#paint3_linear)"/>
<path d="M198.357 149.694L184.786 131.016L184.814 130.989L179.798 124.136C181.407 126.39 182.174 128.2 182.032 129.931C181.903 131.512 181.387 132.735 180.911 133.558L180.018 134.785L180.577 135.583L180.589 135.568L193.609 153.447L198.357 149.694Z" fill="url(#paint4_linear)"/>
<path d="M135.709 149.694L149.28 131.016L149.253 130.989L154.268 124.136C152.659 126.39 151.892 128.2 152.034 129.931C152.164 131.512 152.679 132.735 153.155 133.558L154.048 134.785L153.489 135.583L153.478 135.568L140.457 153.447L135.709 149.694Z" fill="url(#paint5_linear)"/>
<path d="M159.835 126.823C159.835 126.823 157.479 129.427 159.819 132.389L158.112 132.318L156.047 128.687L158.454 126.815L159.835 126.823Z" fill="url(#paint6_linear)"/>
<path d="M174.201 126.858C174.201 126.858 176.588 129.462 174.244 132.428L175.951 132.357L178.016 128.726L175.609 126.854L174.201 126.858Z" fill="url(#paint7_linear)"/>
<path d="M167.002 255C143.498 255 121.398 245.846 104.778 229.226C88.1538 212.606 79 190.506 79 167.002C79 143.498 88.1538 121.394 104.774 104.774C121.394 88.1538 143.494 79 167.002 79C190.51 79 212.606 88.1538 229.226 104.774C245.846 121.394 255 143.494 255 166.998C255 190.502 245.846 212.602 229.226 229.222C212.606 245.846 190.506 255 167.002 255ZM167.002 84.9793C145.095 84.9793 124.494 93.5116 109.003 109.003C93.5116 124.494 84.9793 145.091 84.9793 167.002C84.9793 188.913 93.5116 209.51 109.003 225.001C124.494 240.492 145.091 249.025 167.002 249.025C188.913 249.025 209.51 240.492 225.001 225.001C240.492 209.51 249.025 188.913 249.025 167.002C249.025 145.091 240.492 124.498 225.001 109.003C209.506 93.5116 188.909 84.9793 167.002 84.9793Z" fill="url(#paint8_linear)"/>
<defs>
<filter id="filter0_di" x="0.450989" y="0.44873" width="349.01" height="349.01" filterUnits="userSpaceOnUse" color-interpolation-filters="sRGB">
<feFlood flood-opacity="0" result="BackgroundImageFix"/>
<feColorMatrix in="SourceAlpha" type="matrix" values="0 0 0 0 0 0 0 0 0 0 0 0 0 0 0 0 0 0 127 0"/>
<feOffset dx="8" dy="8"/>
<feGaussianBlur stdDeviation="10"/>
<feColorMatrix type="matrix" values="0 0 0 0 0 0 0 0 0 0 0 0 0 0 0 0 0 0 0.3 0"/>
<feBlend mode="normal" in2="BackgroundImageFix" result="effect1_dropShadow"/>
<feBlend mode="normal" in="SourceGraphic" in2="effect1_dropShadow" result="shape"/>
<feColorMatrix in="SourceAlpha" type="matrix" values="0 0 0 0 0 0 0 0 0 0 0 0 0 0 0 0 0 0 127 0" result="hardAlpha"/>
<feOffset dy="2"/>
<feGaussianBlur stdDeviation="4"/>
<feComposite in2="hardAlpha" operator="arithmetic" k2="-1" k3="1"/>
<feColorMatrix type="matrix" values="0 0 0 0 0.654167 0 0 0 0 0.528785 0 0 0 0 0.528785 0 0 0 0.3 0"/>
<feBlend mode="normal" in2="shape" result="effect2_innerShadow"/>
</filter>
<linearGradient id="paint0_linear" x1="110.403" y1="264.906" x2="223.509" y2="69.0017" gradientUnits="userSpaceOnUse">
<stop stop-color="#FCB389"/>
<stop offset="1" stop-color="#F43B3B" stop-opacity="0"/>
</linearGradient>
<linearGradient id="paint1_linear" x1="137.351" y1="199.136" x2="196.682" y2="139.805" gradientUnits="userSpaceOnUse">
<stop stop-color="#FF8506"/>
<stop offset="0.5805" stop-color="#FD3947"/>
<stop offset="1" stop-color="#FB0078"/>
</linearGradient>
<linearGradient id="paint2_linear" x1="159.533" y1="206.638" x2="167.322" y2="195.435" gradientUnits="userSpaceOnUse">
<stop stop-color="#FF7E0D" stop-opacity="0"/>
<stop offset="0.0133" stop-color="#F97910" stop-opacity="0.0192"/>
<stop offset="0.1144" stop-color="#D25427" stop-opacity="0.1659"/>
<stop offset="0.219" stop-color="#B1363A" stop-opacity="0.3175"/>
<stop offset="0.3263" stop-color="#981E48" stop-opacity="0.4731"/>
<stop offset="0.4375" stop-color="#860D53" stop-opacity="0.6344"/>
<stop offset="0.5551" stop-color="#7B0359" stop-opacity="0.8048"/>
<stop offset="0.6897" stop-color="#78005B"/>
</linearGradient>
<linearGradient id="paint3_linear" x1="154.779" y1="161.979" x2="166.323" y2="150.435" gradientUnits="userSpaceOnUse">
<stop stop-color="#FF4630" stop-opacity="0"/>
<stop offset="0.5722" stop-color="#B31F48" stop-opacity="0.5722"/>
<stop offset="1" stop-color="#78005B"/>
</linearGradient>
<linearGradient id="paint4_linear" x1="194.768" y1="150.117" x2="180.588" y2="130.122" gradientUnits="userSpaceOnUse">
<stop stop-color="#FB126A" stop-opacity="0"/>
<stop offset="0.1389" stop-color="#F41169" stop-opacity="0.1389"/>
<stop offset="0.3365" stop-color="#E20F67" stop-opacity="0.3365"/>
<stop offset="0.5694" stop-color="#C30A64" stop-opacity="0.5694"/>
<stop offset="0.827" stop-color="#99045F" stop-opacity="0.827"/>
<stop offset="1" stop-color="#78005B"/>
</linearGradient>
<linearGradient id="paint5_linear" x1="139.3" y1="150.117" x2="153.48" y2="130.122" gradientUnits="userSpaceOnUse">
<stop stop-color="#FB126A" stop-opacity="0"/>
<stop offset="0.1389" stop-color="#F41169" stop-opacity="0.1389"/>
<stop offset="0.3365" stop-color="#E20F67" stop-opacity="0.3365"/>
<stop offset="0.5694" stop-color="#C30A64" stop-opacity="0.5694"/>
<stop offset="0.827" stop-color="#99045F" stop-opacity="0.827"/>
<stop offset="1" stop-color="#78005B"/>
</linearGradient>
<linearGradient id="paint6_linear" x1="157.132" y1="131.34" x2="160.742" y2="127.731" gradientUnits="userSpaceOnUse">
<stop stop-color="#FC1F5C"/>
<stop offset="1" stop-color="#FB0078"/>
</linearGradient>
<linearGradient id="paint7_linear" x1="176.932" y1="131.378" x2="173.307" y2="127.752" gradientUnits="userSpaceOnUse">
<stop stop-color="#FC1F5C"/>
<stop offset="1" stop-color="#FB0078"/>
</linearGradient>
<linearGradient id="paint8_linear" x1="104.775" y1="229.226" x2="229.226" y2="104.775" gradientUnits="userSpaceOnUse">
<stop stop-color="#FF8506"/>
<stop offset="0.5805" stop-color="#FD3947"/>
<stop offset="1" stop-color="#FB0078"/>
</linearGradient>
</defs>
</svg>
