<svg width="20" height="20" viewBox="0 0 20 20" fill="none" xmlns="http://www.w3.org/2000/svg">
<g clip-path="url(#clip0)">
<ellipse rx="10" ry="10" transform="matrix(1 0 0 -1 10 10)" fill="#2A2827"/>
<mask id="mask0" mask-type="alpha" maskUnits="userSpaceOnUse" x="4" y="8" width="12" height="6">
<rect x="4.5835" y="8.95801" width="10.8333" height="5" fill="#C4C4C4"/>
</mask>
<g mask="url(#mask0)">
<path d="M5.20857 14.2598L8.79711 10.5153C9.45323 9.83071 10.5476 9.83071 11.2037 10.5153L14.7922 14.2598" stroke="white" stroke-width="0.702083"/>
<path d="M5.20857 14.2598L8.79711 10.5153C9.45323 9.83071 10.5476 9.83071 11.2037 10.5153L14.7922 14.2598" stroke="url(#paint0_linear)" stroke-width="0.702083"/>
</g>
<g filter="url(#filter0_d)">
<mask id="mask1" mask-type="alpha" maskUnits="userSpaceOnUse" x="4" y="6" width="12" height="6">
<rect width="10.8333" height="5" transform="matrix(1 0 0 -1 4.5835 11.041)" fill="#C4C4C4"/>
</mask>
<g mask="url(#mask1)">
<path d="M5.20857 5.73926L8.79711 9.48369C9.45323 10.1683 10.5476 10.1683 11.2037 9.48369L14.7922 5.73926" stroke="white" stroke-width="0.702083"/>
<path d="M5.20857 5.73926L8.79711 9.48369C9.45323 10.1683 10.5476 10.1683 11.2037 9.48369L14.7922 5.73926" stroke="url(#paint1_linear)" stroke-width="0.702083"/>
</g>
</g>
</g>
<defs>
<filter id="filter0_d" x="4.12174" y="5.62435" width="11.7572" height="5.97358" filterUnits="userSpaceOnUse" color-interpolation-filters="sRGB">
<feFlood flood-opacity="0" result="BackgroundImageFix"/>
<feColorMatrix in="SourceAlpha" type="matrix" values="0 0 0 0 0 0 0 0 0 0 0 0 0 0 0 0 0 0 127 0"/>
<feOffset dy="0.416667"/>
<feGaussianBlur stdDeviation="0.416667"/>
<feColorMatrix type="matrix" values="0 0 0 0 0 0 0 0 0 0 0 0 0 0 0 0 0 0 0.7 0"/>
<feBlend mode="normal" in2="BackgroundImageFix" result="effect1_dropShadow"/>
<feBlend mode="normal" in="SourceGraphic" in2="effect1_dropShadow" result="shape"/>
</filter>
<linearGradient id="paint0_linear" x1="13.2564" y1="13.8056" x2="10.868" y2="8.73369" gradientUnits="userSpaceOnUse">
<stop stop-color="#FF8506"/>
<stop offset="0.5805" stop-color="#FD3947"/>
<stop offset="1" stop-color="#FB0078"/>
</linearGradient>
<linearGradient id="paint1_linear" x1="13.2564" y1="6.19345" x2="10.868" y2="11.2653" gradientUnits="userSpaceOnUse">
<stop stop-color="#FF8506"/>
<stop offset="0.5805" stop-color="#FD3947"/>
<stop offset="1" stop-color="#FB0078"/>
</linearGradient>
<clipPath id="clip0">
<rect width="20" height="20" fill="white" transform="matrix(1 0 0 -1 0 20)"/>
</clipPath>
</defs>
</svg>
