<svg width="110" height="44" viewBox="0 0 110 44" fill="none" xmlns="http://www.w3.org/2000/svg">
<path d="M32.0577 20.7101L24.4144 10.2473C23.845 9.46748 22.9649 9.021 21.9991 9.021C21.0334 9.021 20.1532 9.46846 19.5838 10.2473L11.9405 20.7101C10.8528 22.1991 10.8528 24.1994 11.9425 25.6913L12.3909 26.298L12.3919 26.2971L16.3375 31.7315C16.9069 32.5114 17.7871 32.9579 18.7528 32.9579C19.5395 32.9579 20.2702 32.6609 20.8219 32.1279L20.8593 32.1554L22.009 30.5819L22.8488 31.7305C22.8518 31.7355 22.8557 31.7394 22.8586 31.7433L23.0917 32.063L23.1143 32.0462C23.6739 32.6284 24.4371 32.9569 25.2632 32.9569C26.2279 32.9569 27.1081 32.5094 27.6795 31.7286L30.6701 27.609L30.673 27.6109L31.1687 26.9215L31.7361 26.1407L31.7322 26.1377L32.0567 25.6854C33.1464 24.1994 33.1464 22.1991 32.0577 20.7101ZM20.8042 11.1383C21.0865 10.7528 21.5222 10.5316 21.9991 10.5316C22.4771 10.5316 22.9127 10.7528 23.194 11.1383L24.3102 12.6656L22.009 15.8156L19.6979 12.6518L20.8042 11.1383ZM19.9496 30.8425L19.9487 30.8415C19.6664 31.227 19.2307 31.4483 18.7538 31.4483C18.2758 31.4483 17.8402 31.227 17.5599 30.8435L13.5022 25.2556L13.5002 25.2576L13.161 24.7983C12.4627 23.8424 12.4627 22.558 13.161 21.6021L18.7636 13.9333L21.0747 17.097L18.4342 20.7111C17.3465 22.2001 17.3465 24.2004 18.4342 25.6893L21.0747 29.3034L19.9496 30.8425ZM22.009 18.3764L24.3653 21.6011C25.0635 22.557 25.0635 23.8414 24.3653 24.7973L22.009 28.022L19.6526 24.7973C18.9544 23.8414 18.9544 22.557 19.6526 21.6011L22.009 18.3764ZM26.459 30.8415C26.1768 31.227 25.7411 31.4483 25.2641 31.4483C24.7921 31.4483 24.3613 31.2319 24.0791 30.8543L22.9452 29.3024L25.5857 25.6883C26.6734 24.1994 26.6734 22.1991 25.5857 20.7101L22.9452 17.096L25.2464 13.9461L30.8392 21.6011C31.5375 22.557 31.5375 23.8414 30.8363 24.8022L29.9492 26.0355L26.459 30.8415Z" fill="url(#paint0_linear)"/>
<path opacity="0.6" d="M21.0551 29.2964L22.009 30.5994L20.5584 32.5467L19.6035 31.281L21.0551 29.2964Z" fill="url(#paint1_linear)"/>
<path d="M21.0687 17.0972L21.9971 18.3874L19.8306 21.382L18.6426 20.4438L21.0687 17.0972Z" fill="url(#paint2_linear)"/>
<path d="M29.8391 17.6731L26.4462 13.0037L26.4531 12.9968L25.1992 11.2837C25.6014 11.8472 25.7932 12.2996 25.7578 12.7323C25.7254 13.1276 25.5965 13.4335 25.4775 13.639L25.2543 13.9459L25.3939 14.1455L25.3969 14.1416L28.6521 18.6113L29.8391 17.6731Z" fill="url(#paint3_linear)"/>
<path d="M14.1768 17.6731L17.5696 13.0037L17.5627 12.9968L18.8166 11.2837C18.4144 11.8472 18.2226 12.2996 18.258 12.7323C18.2905 13.1276 18.4193 13.4335 18.5383 13.639L18.7615 13.9459L18.6219 14.1455L18.6189 14.1416L15.3638 18.6113L14.1768 17.6731Z" fill="url(#paint4_linear)"/>
<path d="M20.2088 11.9556C20.2088 11.9556 19.6197 12.6066 20.2048 13.3471L19.778 13.3294L19.2617 12.4217L19.8636 11.9536L20.2088 11.9556Z" fill="url(#paint5_linear)"/>
<path d="M23.8003 11.9644C23.8003 11.9644 24.3972 12.6154 23.8111 13.3569L24.2379 13.3392L24.7542 12.4315L24.1524 11.9634L23.8003 11.9644Z" fill="url(#paint6_linear)"/>
<path d="M22.0005 44C16.1244 44 10.5995 41.7115 6.44447 37.5565C2.28846 33.4015 0 27.8765 0 22.0005C0 16.1244 2.28846 10.5985 6.44349 6.44349C10.5985 2.28846 16.1235 0 22.0005 0C27.8775 0 33.4015 2.28846 37.5565 6.44349C41.7115 10.5985 44 16.1235 44 21.9995C44 27.8755 41.7115 33.4005 37.5565 37.5555C33.4015 41.7115 27.8765 44 22.0005 44ZM22.0005 1.49483C16.5237 1.49483 11.3735 3.6279 7.50068 7.50068C3.6279 11.3735 1.49483 16.5227 1.49483 22.0005C1.49483 27.4782 3.6279 32.6275 7.50068 36.5003C11.3735 40.3731 16.5227 42.5062 22.0005 42.5062C27.4782 42.5062 32.6275 40.3731 36.5003 36.5003C40.3731 32.6275 42.5062 27.4782 42.5062 22.0005C42.5062 16.5227 40.3731 11.3744 36.5003 7.50068C32.6265 3.6279 27.4773 1.49483 22.0005 1.49483Z" fill="url(#paint7_linear)"/>
<path d="M79.2072 24.484V27.0414H77.0023V24.6396C77.0023 23.4168 76.4942 23.0741 74.4109 23.0741H70.2516V27.0414H68.0443V16.3112H75.325C77.8021 16.3112 79.4405 17.303 79.4405 19.5613C79.4405 21.3602 78.2615 22.109 76.7179 22.3691C78.4001 22.5003 79.2072 22.9622 79.2072 24.484ZM75.325 21.3554C76.5696 21.3554 77.2332 20.7209 77.2332 19.6926C77.2332 18.7129 76.5672 18.2049 75.325 18.2049H70.254V21.3554H75.325ZM94.1089 18.1514H89.5533V27.0414H87.346V18.1514H82.7904V16.3112H94.1113V18.1514H94.1089ZM110 16.3112V27.0414H107.793V22.583H99.914V27.0438H97.7067V16.3112H99.914V20.7403H107.793V16.3112H110ZM59.7037 16.9967C59.4654 16.4133 58.8844 16 58.2038 16C57.5255 16 56.9446 16.4108 56.7063 16.9918L52 27.0195H54.3677L55.4228 24.6955H60.9945L62.052 27.0195H64.4416L59.7037 16.9967ZM56.2517 22.8674L58.2014 18.5695L60.1583 22.8674H56.2517Z" fill="white"/>
<defs>
<linearGradient id="paint0_linear" x1="14.5874" y1="30.0339" x2="29.4202" y2="15.2011" gradientUnits="userSpaceOnUse">
<stop stop-color="#FF8506"/>
<stop offset="0.5805" stop-color="#FD3947"/>
<stop offset="1" stop-color="#FB0078"/>
</linearGradient>
<linearGradient id="paint1_linear" x1="20.1329" y1="31.9091" x2="22.0802" y2="29.1085" gradientUnits="userSpaceOnUse">
<stop stop-color="#FF7E0D" stop-opacity="0"/>
<stop offset="0.0133" stop-color="#F97910" stop-opacity="0.0192"/>
<stop offset="0.1144" stop-color="#D25427" stop-opacity="0.1659"/>
<stop offset="0.219" stop-color="#B1363A" stop-opacity="0.3175"/>
<stop offset="0.3263" stop-color="#981E48" stop-opacity="0.4731"/>
<stop offset="0.4375" stop-color="#860D53" stop-opacity="0.6344"/>
<stop offset="0.5551" stop-color="#7B0359" stop-opacity="0.8048"/>
<stop offset="0.6897" stop-color="#78005B"/>
</linearGradient>
<linearGradient id="paint2_linear" x1="18.9443" y1="20.7448" x2="21.8304" y2="17.8587" gradientUnits="userSpaceOnUse">
<stop stop-color="#FF4630" stop-opacity="0"/>
<stop offset="0.5722" stop-color="#B31F48" stop-opacity="0.5722"/>
<stop offset="1" stop-color="#78005B"/>
</linearGradient>
<linearGradient id="paint3_linear" x1="28.9418" y1="17.7788" x2="25.3967" y2="12.7802" gradientUnits="userSpaceOnUse">
<stop stop-color="#FB126A" stop-opacity="0"/>
<stop offset="0.1389" stop-color="#F41169" stop-opacity="0.1389"/>
<stop offset="0.3365" stop-color="#E20F67" stop-opacity="0.3365"/>
<stop offset="0.5694" stop-color="#C30A64" stop-opacity="0.5694"/>
<stop offset="0.827" stop-color="#99045F" stop-opacity="0.827"/>
<stop offset="1" stop-color="#78005B"/>
</linearGradient>
<linearGradient id="paint4_linear" x1="15.0744" y1="17.7788" x2="18.6196" y2="12.7802" gradientUnits="userSpaceOnUse">
<stop stop-color="#FB126A" stop-opacity="0"/>
<stop offset="0.1389" stop-color="#F41169" stop-opacity="0.1389"/>
<stop offset="0.3365" stop-color="#E20F67" stop-opacity="0.3365"/>
<stop offset="0.5694" stop-color="#C30A64" stop-opacity="0.5694"/>
<stop offset="0.827" stop-color="#99045F" stop-opacity="0.827"/>
<stop offset="1" stop-color="#78005B"/>
</linearGradient>
<linearGradient id="paint5_linear" x1="19.5331" y1="13.0849" x2="20.4355" y2="12.1826" gradientUnits="userSpaceOnUse">
<stop stop-color="#FC1F5C"/>
<stop offset="1" stop-color="#FB0078"/>
</linearGradient>
<linearGradient id="paint6_linear" x1="24.4831" y1="13.0943" x2="23.5769" y2="12.188" gradientUnits="userSpaceOnUse">
<stop stop-color="#FC1F5C"/>
<stop offset="1" stop-color="#FB0078"/>
</linearGradient>
<linearGradient id="paint7_linear" x1="6.44367" y1="37.5564" x2="37.5564" y2="6.44364" gradientUnits="userSpaceOnUse">
<stop stop-color="#FF8506"/>
<stop offset="0.5805" stop-color="#FD3947"/>
<stop offset="1" stop-color="#FB0078"/>
</linearGradient>
</defs>
</svg>
