<svg width="16" height="16" viewBox="0 0 16 16" fill="none" xmlns="http://www.w3.org/2000/svg">
<path d="M11.6578 7.53087L8.87842 3.72622C8.67137 3.44263 8.3513 3.28027 8.00012 3.28027C7.64895 3.28027 7.32888 3.44299 7.12182 3.72622L4.34245 7.53087C3.94693 8.0723 3.94693 8.79969 4.34317 9.34219L4.50624 9.56283L4.50659 9.56248L5.94134 11.5387C6.1484 11.8222 6.46846 11.9846 6.81964 11.9846C7.10573 11.9846 7.37144 11.8766 7.57206 11.6828L7.58565 11.6928L8.0037 11.1206L8.3091 11.5383C8.31018 11.5401 8.31161 11.5415 8.31268 11.5429L8.39743 11.6592L8.40566 11.6531C8.60914 11.8648 8.88665 11.9842 9.18705 11.9842C9.53786 11.9842 9.85793 11.8215 10.0657 11.5376L11.1532 10.0395L11.1543 10.0402L11.3345 9.78956L11.5409 9.50562L11.5394 9.50454L11.6574 9.34004C12.0537 8.79969 12.0537 8.0723 11.6578 7.53087ZM7.56562 4.05022C7.66826 3.91003 7.82668 3.82957 8.00012 3.82957C8.17392 3.82957 8.33235 3.91003 8.43463 4.05022L8.84052 4.60559L8.0037 5.75103L7.16331 4.60058L7.56562 4.05022ZM7.25486 11.2154L7.2545 11.215C7.15186 11.3552 6.99344 11.4357 6.82 11.4357C6.6462 11.4357 6.48778 11.3552 6.38586 11.2157L4.91034 9.18376L4.90963 9.18448L4.78625 9.01747C4.53234 8.66987 4.53234 8.20283 4.78625 7.85523L6.82358 5.06655L7.66397 6.217L6.70377 7.53123C6.30825 8.07266 6.30825 8.80004 6.70377 9.34147L7.66397 10.6557L7.25486 11.2154ZM8.0037 6.68225L8.86054 7.85487C9.11445 8.20247 9.11445 8.66951 8.86054 9.01712L8.0037 10.1897L7.14686 9.01712C6.89295 8.66951 6.89295 8.20247 7.14686 7.85487L8.0037 6.68225ZM9.6219 11.215C9.51927 11.3552 9.36084 11.4357 9.1874 11.4357C9.01575 11.4357 8.85911 11.357 8.75648 11.2197L8.34415 10.6553L9.30434 9.34111C9.69986 8.79969 9.69986 8.0723 9.30434 7.53087L8.34415 6.21664L9.18097 5.0712L11.2147 7.85487C11.4686 8.20247 11.4686 8.66952 11.2136 9.0189L10.8911 9.46735L9.6219 11.215Z" fill="url(#paint0_linear)"/>
<path opacity="0.6" d="M7.65674 10.6533L8.00363 11.1272L7.47615 11.8352L7.12891 11.375L7.65674 10.6533Z" fill="url(#paint1_linear)"/>
<path d="M7.66153 6.2168L7.99912 6.68599L7.21129 7.77492L6.7793 7.43376L7.66153 6.2168Z" fill="url(#paint2_linear)"/>
<path d="M10.8508 6.42645L9.61703 4.72849L9.61953 4.72599L9.16357 4.10303C9.30984 4.30794 9.37957 4.47244 9.3667 4.62979C9.3549 4.77355 9.30805 4.88477 9.26478 4.95951L9.1836 5.07109L9.23438 5.14368L9.23545 5.14225L10.4192 6.76761L10.8508 6.42645Z" fill="url(#paint3_linear)"/>
<path d="M5.15527 6.42645L6.38904 4.72849L6.38654 4.72599L6.8425 4.10303C6.69623 4.30794 6.6265 4.47244 6.63937 4.62979C6.65117 4.77355 6.69802 4.88477 6.74129 4.95951L6.82247 5.07109L6.77169 5.14368L6.77062 5.14225L5.58691 6.76761L5.15527 6.42645Z" fill="url(#paint4_linear)"/>
<path d="M7.34829 4.34739C7.34829 4.34739 7.13408 4.58414 7.34686 4.85342L7.19165 4.84698L7.00391 4.5169L7.22277 4.34668L7.34829 4.34739Z" fill="url(#paint5_linear)"/>
<path d="M8.6543 4.35094C8.6543 4.35094 8.87137 4.58768 8.65823 4.85732L8.81343 4.85089L9.00118 4.52081L8.78232 4.35059L8.6543 4.35094Z" fill="url(#paint6_linear)"/>
<path d="M8.00018 16C5.86344 16 3.85436 15.1678 2.34344 13.6569C0.832167 12.146 0 10.1369 0 8.00018C0 5.86344 0.832167 3.854 2.34309 2.34309C3.854 0.832167 5.86308 0 8.00018 0C10.1373 0 12.146 0.832167 13.6569 2.34309C15.1678 3.854 16 5.86308 16 7.99982C16 10.1366 15.1678 12.1456 13.6569 13.6566C12.146 15.1678 10.1369 16 8.00018 16ZM8.00018 0.543573C6.00863 0.543573 4.1358 1.31924 2.72752 2.72752C1.31924 4.1358 0.543573 6.00827 0.543573 8.00018C0.543573 9.99209 1.31924 11.8646 2.72752 13.2728C4.1358 14.6811 6.00827 15.4568 8.00018 15.4568C9.99209 15.4568 11.8646 14.6811 13.2728 13.2728C14.6811 11.8646 15.4568 9.99209 15.4568 8.00018C15.4568 6.00827 14.6811 4.13616 13.2728 2.72752C11.8642 1.31924 9.99173 0.543573 8.00018 0.543573Z" fill="url(#paint7_linear)"/>
<defs>
<linearGradient id="paint0_linear" x1="5.30495" y1="10.9213" x2="10.6987" y2="5.52759" gradientUnits="userSpaceOnUse">
<stop stop-color="#FF8506"/>
<stop offset="0.5805" stop-color="#FD3947"/>
<stop offset="1" stop-color="#FB0078"/>
</linearGradient>
<linearGradient id="paint1_linear" x1="7.32142" y1="11.6034" x2="8.02952" y2="10.585" gradientUnits="userSpaceOnUse">
<stop stop-color="#FF7E0D" stop-opacity="0"/>
<stop offset="0.0133" stop-color="#F97910" stop-opacity="0.0192"/>
<stop offset="0.1144" stop-color="#D25427" stop-opacity="0.1659"/>
<stop offset="0.219" stop-color="#B1363A" stop-opacity="0.3175"/>
<stop offset="0.3263" stop-color="#981E48" stop-opacity="0.4731"/>
<stop offset="0.4375" stop-color="#860D53" stop-opacity="0.6344"/>
<stop offset="0.5551" stop-color="#7B0359" stop-opacity="0.8048"/>
<stop offset="0.6897" stop-color="#78005B"/>
</linearGradient>
<linearGradient id="paint2_linear" x1="6.88901" y1="7.5432" x2="7.93852" y2="6.4937" gradientUnits="userSpaceOnUse">
<stop stop-color="#FF4630" stop-opacity="0"/>
<stop offset="0.5722" stop-color="#B31F48" stop-opacity="0.5722"/>
<stop offset="1" stop-color="#78005B"/>
</linearGradient>
<linearGradient id="paint3_linear" x1="10.5245" y1="6.4649" x2="9.23537" y2="4.6472" gradientUnits="userSpaceOnUse">
<stop stop-color="#FB126A" stop-opacity="0"/>
<stop offset="0.1389" stop-color="#F41169" stop-opacity="0.1389"/>
<stop offset="0.3365" stop-color="#E20F67" stop-opacity="0.3365"/>
<stop offset="0.5694" stop-color="#C30A64" stop-opacity="0.5694"/>
<stop offset="0.827" stop-color="#99045F" stop-opacity="0.827"/>
<stop offset="1" stop-color="#78005B"/>
</linearGradient>
<linearGradient id="paint4_linear" x1="5.48171" y1="6.4649" x2="6.77086" y2="4.6472" gradientUnits="userSpaceOnUse">
<stop stop-color="#FB126A" stop-opacity="0"/>
<stop offset="0.1389" stop-color="#F41169" stop-opacity="0.1389"/>
<stop offset="0.3365" stop-color="#E20F67" stop-opacity="0.3365"/>
<stop offset="0.5694" stop-color="#C30A64" stop-opacity="0.5694"/>
<stop offset="0.827" stop-color="#99045F" stop-opacity="0.827"/>
<stop offset="1" stop-color="#78005B"/>
</linearGradient>
<linearGradient id="paint5_linear" x1="7.10259" y1="4.75807" x2="7.43073" y2="4.42993" gradientUnits="userSpaceOnUse">
<stop stop-color="#FC1F5C"/>
<stop offset="1" stop-color="#FB0078"/>
</linearGradient>
<linearGradient id="paint6_linear" x1="8.90259" y1="4.76181" x2="8.57306" y2="4.43226" gradientUnits="userSpaceOnUse">
<stop stop-color="#FC1F5C"/>
<stop offset="1" stop-color="#FB0078"/>
</linearGradient>
<linearGradient id="paint7_linear" x1="2.34315" y1="13.6569" x2="13.6569" y2="2.34314" gradientUnits="userSpaceOnUse">
<stop stop-color="#FF8506"/>
<stop offset="0.5805" stop-color="#FD3947"/>
<stop offset="1" stop-color="#FB0078"/>
</linearGradient>
</defs>
</svg>
