<svg width="510" height="510" viewBox="0 0 510 510" fill="none" xmlns="http://www.w3.org/2000/svg">
<path d="M421.021 230.93L343.871 125.33C338.121 117.46 329.241 112.95 319.501 112.95C309.761 112.95 300.871 117.46 295.131 125.33L286.741 136.82L278.351 125.33C272.601 117.46 263.721 112.95 253.981 112.95C244.241 112.95 235.351 117.46 229.611 125.33L221.321 136.68L213.031 125.33C207.281 117.46 198.401 112.95 188.661 112.95C178.921 112.95 170.031 117.46 164.291 125.33L87.1412 230.93C76.1613 245.96 76.1613 266.15 87.1412 281.18L164.291 386.78C170.041 394.65 178.921 399.16 188.661 399.16C198.401 399.16 207.291 394.65 213.031 386.78L254.091 330.58L262.561 342.18C262.591 342.22 262.621 342.26 262.651 342.3L295.151 386.78C300.901 394.65 309.781 399.16 319.521 399.16C329.261 399.16 338.151 394.65 343.891 386.78L421.041 281.18C432.001 266.15 432.001 245.96 421.021 230.93ZM241.901 134.32C244.741 130.43 249.141 128.19 253.961 128.19C258.781 128.19 263.181 130.42 266.021 134.32L277.281 149.73L254.051 181.52L230.731 149.59L241.901 134.32ZM200.701 377.79C197.861 381.68 193.461 383.92 188.641 383.92C183.821 383.92 179.421 381.69 176.581 377.79L99.4312 272.19C92.3812 262.54 92.3812 249.58 99.4312 239.93L176.581 134.33C179.421 130.44 183.821 128.2 188.641 128.2C193.461 128.2 197.861 130.43 200.701 134.33L211.861 149.61L152.441 230.94C141.461 245.97 141.461 266.16 152.461 281.22L156.981 287.35L156.991 287.34L196.821 342.19C201.891 349.13 209.411 353.46 217.801 354.38L200.701 377.79ZM233.271 333.2L233.261 333.19C230.421 337.08 226.021 339.32 221.201 339.32C216.381 339.32 211.981 337.09 209.151 333.21L168.201 276.81L168.181 276.82L164.761 272.18C157.711 262.53 157.711 249.57 164.761 239.92L221.311 162.52L244.631 194.45L217.981 230.93C207.001 245.96 207.001 266.15 217.981 281.18L244.631 317.66L233.271 333.2ZM254.071 207.38L277.851 239.93C284.901 249.58 284.901 262.54 277.851 272.19L254.071 304.74L230.291 272.19C223.241 262.54 223.241 249.58 230.291 239.93L254.071 207.38ZM290.161 281.18C301.141 266.15 301.141 245.96 290.161 230.93L263.511 194.45L286.741 162.66L343.191 239.93C350.241 249.58 350.241 262.54 343.161 272.24L334.121 284.81L298.981 333.2C296.141 337.09 291.741 339.33 286.921 339.33C282.151 339.33 277.801 337.14 274.951 333.33L263.511 317.68L290.161 281.18ZM408.711 272.19L331.561 377.79C328.721 381.68 324.321 383.92 319.501 383.92C314.681 383.92 310.281 381.69 307.441 377.79L290.331 354.37C298.711 353.44 306.221 349.12 311.301 342.17L341.491 300.59L341.521 300.61L346.471 293.73L352.251 285.77L352.211 285.74L355.491 281.18C366.471 266.15 366.471 245.96 355.491 230.93L296.171 149.74L307.431 134.33C310.271 130.44 314.671 128.2 319.491 128.2C324.311 128.2 328.711 130.43 331.551 134.33L408.701 239.93C415.761 249.57 415.761 262.54 408.711 272.19Z" fill="url(#paint0_linear)"/>
<path opacity="0.4" d="M221.202 354.56C220.032 354.56 218.882 354.49 217.742 354.36L201.172 377.19L213.662 386.01L243.952 344.43C238.232 350.89 229.962 354.56 221.202 354.56Z" fill="url(#paint1_linear)"/>
<path opacity="0.4" d="M286.842 354.56C288.012 354.56 289.162 354.49 290.302 354.36L306.872 377.19L294.382 386.01L264.242 344.47C269.962 350.93 278.082 354.56 286.842 354.56Z" fill="url(#paint2_linear)"/>
<path opacity="0.4" d="M244.501 317.56L254.141 330.71L239.491 350.36L229.861 337.59L244.501 317.56Z" fill="url(#paint3_linear)"/>
<path opacity="0.6" d="M211.861 149.59L221.331 162.62L187.041 209.72L175.051 200.25L211.861 149.59Z" fill="url(#paint4_linear)"/>
<path opacity="0.6" d="M244.642 194.42L254.022 207.45L232.152 237.67L220.162 228.2L244.642 194.42Z" fill="url(#paint5_linear)"/>
<path opacity="0.6" d="M277.302 149.72L286.732 162.68L263.542 194.42L254.082 181.48L277.302 149.72Z" fill="url(#paint6_linear)"/>
<path d="M254.999 509.64C186.979 509.64 123.039 483.15 74.9394 435.06C26.8394 386.96 0.359375 323.02 0.359375 255C0.359375 186.98 26.8494 123.04 74.9394 74.94C123.029 26.85 186.979 0.360001 254.999 0.360001C323.019 0.360001 386.959 26.85 435.059 74.94C483.159 123.04 509.639 186.98 509.639 255C509.639 323.02 483.149 386.96 435.059 435.06C386.959 483.15 323.019 509.64 254.999 509.64ZM254.999 13.78C190.569 13.78 129.989 38.87 84.4294 84.43C38.8694 129.99 13.7794 190.57 13.7794 255C13.7794 319.43 38.8694 380.01 84.4294 425.57C129.989 471.13 190.569 496.22 254.999 496.22C319.429 496.22 380.009 471.13 425.569 425.57C471.129 380.01 496.219 319.43 496.219 255C496.219 190.57 471.129 129.99 425.569 84.43C380.009 38.87 319.429 13.78 254.999 13.78Z" fill="url(#paint7_linear)"/>
<defs>
<linearGradient id="paint0_linear" x1="143.538" y1="366.587" x2="364.597" y2="145.528" gradientUnits="userSpaceOnUse">
<stop stop-color="#FF8506"/>
<stop offset="0.5805" stop-color="#FD3947"/>
<stop offset="1" stop-color="#FB0078"/>
</linearGradient>
<linearGradient id="paint1_linear" x1="234.359" y1="344.116" x2="208.536" y2="380.661" gradientUnits="userSpaceOnUse">
<stop stop-color="#78005B"/>
<stop offset="0.3483" stop-color="#7A025A" stop-opacity="0.6517"/>
<stop offset="0.51" stop-color="#820955" stop-opacity="0.49"/>
<stop offset="0.6332" stop-color="#8E154E" stop-opacity="0.3668"/>
<stop offset="0.7369" stop-color="#A12643" stop-opacity="0.2631"/>
<stop offset="0.8283" stop-color="#B83C36" stop-opacity="0.1717"/>
<stop offset="0.9111" stop-color="#D65725" stop-opacity="0.0889"/>
<stop offset="0.9857" stop-color="#F87711" stop-opacity="0.0143"/>
<stop offset="1" stop-color="#FF7E0D" stop-opacity="0"/>
</linearGradient>
<linearGradient id="paint2_linear" x1="297.454" y1="377.941" x2="273.149" y2="342.983" gradientUnits="userSpaceOnUse">
<stop stop-color="#FF7E0D" stop-opacity="0"/>
<stop offset="0.00928743" stop-color="#F97811" stop-opacity="0.0127"/>
<stop offset="0.0651" stop-color="#D65825" stop-opacity="0.0888"/>
<stop offset="0.1269" stop-color="#B93D36" stop-opacity="0.1729"/>
<stop offset="0.1949" stop-color="#A12643" stop-opacity="0.2657"/>
<stop offset="0.272" stop-color="#8F154E" stop-opacity="0.3707"/>
<stop offset="0.3632" stop-color="#820955" stop-opacity="0.495"/>
<stop offset="0.4822" stop-color="#7A025A" stop-opacity="0.6573"/>
<stop offset="0.7336" stop-color="#78005B"/>
</linearGradient>
<linearGradient id="paint3_linear" x1="235.202" y1="343.93" x2="254.856" y2="315.662" gradientUnits="userSpaceOnUse">
<stop stop-color="#FF7E0D" stop-opacity="0"/>
<stop offset="0.0133" stop-color="#F97910" stop-opacity="0.0192"/>
<stop offset="0.1144" stop-color="#D25427" stop-opacity="0.1659"/>
<stop offset="0.219" stop-color="#B1363A" stop-opacity="0.3175"/>
<stop offset="0.3263" stop-color="#981E48" stop-opacity="0.4731"/>
<stop offset="0.4375" stop-color="#860D53" stop-opacity="0.6344"/>
<stop offset="0.5551" stop-color="#7B0359" stop-opacity="0.8048"/>
<stop offset="0.6897" stop-color="#78005B"/>
</linearGradient>
<linearGradient id="paint4_linear" x1="176.952" y1="202.151" x2="220.685" y2="158.418" gradientUnits="userSpaceOnUse">
<stop stop-color="#FF4630" stop-opacity="0"/>
<stop offset="0.5722" stop-color="#B31F48" stop-opacity="0.5722"/>
<stop offset="1" stop-color="#78005B"/>
</linearGradient>
<linearGradient id="paint5_linear" x1="223.207" y1="231.243" x2="252.337" y2="202.113" gradientUnits="userSpaceOnUse">
<stop stop-color="#FF4630" stop-opacity="0"/>
<stop offset="0.5722" stop-color="#B31F48" stop-opacity="0.5722"/>
<stop offset="1" stop-color="#78005B"/>
</linearGradient>
<linearGradient id="paint6_linear" x1="255.806" y1="186.682" x2="285.032" y2="157.456" gradientUnits="userSpaceOnUse">
<stop stop-color="#FF4630" stop-opacity="0"/>
<stop offset="0.5722" stop-color="#B31F48" stop-opacity="0.5722"/>
<stop offset="1" stop-color="#78005B"/>
</linearGradient>
<linearGradient id="paint7_linear" x1="74.9422" y1="435.057" x2="435.057" y2="74.9426" gradientUnits="userSpaceOnUse">
<stop stop-color="#FF8506"/>
<stop offset="0.5805" stop-color="#FD3947"/>
<stop offset="1" stop-color="#FB0078"/>
</linearGradient>
</defs>
</svg>
