<svg width="16" height="20" viewBox="0 0 16 20" fill="none" xmlns="http://www.w3.org/2000/svg">
<path d="M15.5 15.7071V16H0.5V15.7071L2.35355 13.8536L2.5 13.7071V13.5V8.5C2.5 5.59437 4.02219 3.28092 6.61528 2.66653L7 2.57538V2.18V1.5C7 0.946142 7.44614 0.5 8 0.5C8.55386 0.5 9 0.946142 9 1.5V2.18V2.57506L9.38434 2.66644C11.9681 3.28076 13.5 5.60482 13.5 8.5V13.5V13.7071L13.6464 13.8536L15.5 15.7071ZM9.41352 18C9.20605 18.5806 8.64884 19 8 19C7.34433 19 6.79074 18.5813 6.58536 18H9.41352Z" stroke="white"/>
</svg>
