<svg width="91" height="70" viewBox="0 0 91 70" fill="none" xmlns="http://www.w3.org/2000/svg">
<path opacity="0.32" d="M2.15022 4.03323L1.73448 3.75544L1.73448 3.75544L2.15022 4.03323ZM1 24.8883H0.5V25.3883H1V24.8883ZM1 45.3633V44.8633H0.5V45.3633H1ZM2.15022 66.2166L2.56595 65.9388L2.56595 65.9388L2.15022 66.2166ZM4.03323 68.0996L3.75544 68.5154L3.75544 68.5154L4.03323 68.0996ZM86.6916 68.0996L86.4138 67.6839L86.4138 67.6839L86.6916 68.0996ZM88.5746 66.2166L88.1589 65.9388L88.1589 65.9388L88.5746 66.2166ZM89.7248 45.3633H90.2248V44.8633L89.7248 44.8633L89.7248 45.3633ZM89.7248 24.8883L89.7248 25.3883L90.2248 25.3883V24.8883H89.7248ZM88.5746 4.03323L88.9903 3.75544L88.9903 3.75544L88.5746 4.03323ZM86.6916 2.15022L86.4138 2.56595L86.4138 2.56595L86.6916 2.15022ZM4.03323 2.15022L3.75544 1.73448L3.75544 1.73448L4.03323 2.15022ZM45.3622 11.2381L45.8378 11.0836L45.3622 9.62004L44.8867 11.0836L45.3622 11.2381ZM50.7253 27.7439L50.2498 27.8984L50.362 28.2439L50.7253 28.2439L50.7253 27.7439ZM39.9992 27.7439L39.9992 28.2439L40.3624 28.2439L40.4747 27.8984L39.9992 27.7439ZM22.6439 27.7439L22.6439 27.2439L21.1051 27.2439L22.35 28.1484L22.6439 27.7439ZM36.6846 37.9451L37.1601 38.0996L37.2724 37.7541L36.9785 37.5405L36.6846 37.9451ZM31.3216 54.4509L30.846 54.2964L30.3705 55.7599L31.6154 54.8554L31.3216 54.4509ZM45.3622 44.2497L45.6561 43.8452L45.3622 43.6317L45.0684 43.8452L45.3622 44.2497ZM59.4029 54.4509L59.109 54.8554L60.354 55.7599L59.8785 54.2964L59.4029 54.4509ZM54.0399 37.9451L53.746 37.5405L53.4521 37.7541L53.5643 38.0996L54.0399 37.9451ZM68.0806 27.7439L68.3744 28.1484L69.6194 27.2439L68.0806 27.2439L68.0806 27.7439ZM1.5 12.9437C1.5 10.537 1.5006 8.76952 1.64121 7.38734C1.78097 6.01352 2.05489 5.07587 2.56595 4.31101L1.73448 3.75544C1.09533 4.712 0.794143 5.83325 0.646344 7.28614C0.499396 8.73067 0.5 10.5578 0.5 12.9437H1.5ZM1.5 24.8883V12.9437H0.5V24.8883H1.5ZM1.00009 24.3883H1V25.3883H1.00009V24.3883ZM11.7376 35.1258C11.7376 29.1956 6.93024 24.3883 1.00009 24.3883V25.3883C6.37795 25.3883 10.7376 29.7479 10.7376 35.1258H11.7376ZM1.00009 45.8633C6.93024 45.8633 11.7376 41.0559 11.7376 35.1258H10.7376C10.7376 40.5036 6.37795 44.8633 1.00009 44.8633V45.8633ZM1 45.8633H1.00009V44.8633H1V45.8633ZM1.5 57.3061V45.3633H0.5V57.3061H1.5ZM2.56595 65.9388C2.05489 65.174 1.78097 64.2363 1.64121 62.8625C1.5006 61.4803 1.5 59.7129 1.5 57.3061H0.5C0.5 59.6921 0.499396 61.5192 0.646344 62.9637C0.794143 64.4166 1.09533 65.5378 1.73448 66.4944L2.56595 65.9388ZM4.31101 67.6839C3.62039 67.2224 3.02741 66.6295 2.56595 65.9388L1.73448 66.4944C2.2689 67.2942 2.95563 67.9809 3.75544 68.5154L4.31101 67.6839ZM12.9437 68.7498C10.537 68.7498 8.76952 68.7492 7.38734 68.6086C6.01352 68.4689 5.07587 68.195 4.31101 67.6839L3.75544 68.5154C4.712 69.1545 5.83324 69.4557 7.28614 69.6035C8.73067 69.7505 10.5578 69.7498 12.9437 69.7498V68.7498ZM77.7811 68.7498H12.9437V69.7498H77.7811V68.7498ZM86.4138 67.6839C85.6489 68.195 84.7113 68.4689 83.3375 68.6086C81.9553 68.7492 80.1878 68.7498 77.7811 68.7498V69.7498C80.167 69.7498 81.9941 69.7505 83.4387 69.6035C84.8916 69.4557 86.0128 69.1545 86.9694 68.5154L86.4138 67.6839ZM88.1589 65.9388C87.6974 66.6295 87.1044 67.2224 86.4138 67.6839L86.9694 68.5154C87.7692 67.9809 88.4559 67.2942 88.9903 66.4944L88.1589 65.9388ZM89.2248 57.3061C89.2248 59.7129 89.2242 61.4803 89.0836 62.8625C88.9438 64.2363 88.6699 65.174 88.1589 65.9388L88.9903 66.4944C89.6295 65.5378 89.9307 64.4166 90.0785 62.9637C90.2254 61.5192 90.2248 59.6921 90.2248 57.3061H89.2248ZM89.2248 45.3633V57.3061H90.2248V45.3633H89.2248ZM78.9874 35.1258C78.9874 41.0559 83.7947 45.8632 89.7248 45.8633L89.7248 44.8633C84.347 44.8632 79.9874 40.5036 79.9874 35.1258H78.9874ZM89.7248 24.3883C83.7947 24.3883 78.9874 29.1957 78.9874 35.1258H79.9874C79.9874 29.7479 84.347 25.3883 89.7248 25.3883L89.7248 24.3883ZM89.2248 12.9437V24.8883H90.2248V12.9437H89.2248ZM88.1589 4.31101C88.6699 5.07587 88.9438 6.01352 89.0836 7.38734C89.2242 8.76952 89.2248 10.537 89.2248 12.9437H90.2248C90.2248 10.5578 90.2254 8.73067 90.0785 7.28614C89.9307 5.83325 89.6295 4.712 88.9903 3.75544L88.1589 4.31101ZM86.4138 2.56595C87.1044 3.02741 87.6974 3.62039 88.1589 4.31101L88.9903 3.75544C88.4559 2.95563 87.7692 2.2689 86.9694 1.73448L86.4138 2.56595ZM77.7811 1.5C80.1879 1.5 81.9553 1.5006 83.3375 1.64121C84.7113 1.78097 85.6489 2.05489 86.4138 2.56595L86.9694 1.73448C86.0128 1.09533 84.8916 0.794143 83.4387 0.646344C81.9941 0.499396 80.167 0.5 77.7811 0.5V1.5ZM12.9437 1.5H77.7811V0.5H12.9437V1.5ZM4.31101 2.56595C5.07587 2.05489 6.01352 1.78097 7.38734 1.64121C8.76952 1.5006 10.537 1.5 12.9437 1.5V0.5C10.5578 0.5 8.73067 0.499396 7.28614 0.646344C5.83325 0.794143 4.712 1.09533 3.75544 1.73448L4.31101 2.56595ZM2.56595 4.31101C3.02741 3.62039 3.62039 3.02741 4.31101 2.56595L3.75544 1.73448C2.95563 2.2689 2.2689 2.95563 1.73448 3.75544L2.56595 4.31101ZM44.8867 11.3926L50.2498 27.8984L51.2008 27.5894L45.8378 11.0836L44.8867 11.3926ZM40.4747 27.8984L45.8378 11.3926L44.8867 11.0836L39.5236 27.5894L40.4747 27.8984ZM22.6439 28.2439L39.9992 28.2439L39.9992 27.2439L22.6439 27.2439L22.6439 28.2439ZM36.9785 37.5405L22.9378 27.3394L22.35 28.1484L36.3907 38.3496L36.9785 37.5405ZM31.7971 54.6054L37.1601 38.0996L36.2091 37.7905L30.846 54.2964L31.7971 54.6054ZM45.0684 43.8452L31.0277 54.0464L31.6154 54.8554L45.6561 44.6542L45.0684 43.8452ZM59.6968 54.0464L45.6561 43.8452L45.0684 44.6542L59.109 54.8554L59.6968 54.0464ZM53.5643 38.0996L58.9274 54.6054L59.8785 54.2964L54.5154 37.7905L53.5643 38.0996ZM67.7867 27.3394L53.746 37.5405L54.3338 38.3496L68.3744 28.1484L67.7867 27.3394ZM50.7253 28.2439L68.0806 28.2439L68.0806 27.2439L50.7253 27.2439L50.7253 28.2439Z" fill="#FCB400"/>
</svg>
