<svg width="24" height="24" viewBox="0 0 24 24" fill="none" xmlns="http://www.w3.org/2000/svg">
<path d="M18.3158 5.68359H5.6842V18.3152H18.3158V5.68359Z" fill="white"/>
<path d="M18.3158 24.0006L24 18.3164H18.3158V24.0006Z" fill="#EA4335"/>
<path d="M24 5.68359H18.3158V18.3152H24V5.68359Z" fill="#FBBC04"/>
<path d="M18.3158 18.3164H5.6842V24.0006H18.3158V18.3164Z" fill="#34A853"/>
<path d="M0 18.3164V22.1059C0 23.1527 0.847895 24.0006 1.89474 24.0006H5.68421V18.3164H0Z" fill="#188038"/>
<path d="M24 5.68421V1.89474C24 0.847895 23.1521 0 22.1053 0H18.3158V5.68421H24Z" fill="#1967D2"/>
<path d="M18.3158 0H1.89474C0.847895 0 0 0.847895 0 1.89474V18.3158H5.68421V5.68421H18.3158V0Z" fill="#4285F4"/>
<path d="M8.27522 15.4829C7.80312 15.164 7.47627 14.6982 7.29785 14.0824L8.39364 13.6308C8.49312 14.0098 8.6668 14.3034 8.91469 14.5119C9.16101 14.7203 9.46101 14.8229 9.81154 14.8229C10.17 14.8229 10.4779 14.714 10.7352 14.4961C10.9926 14.2782 11.1221 14.0003 11.1221 13.664C11.1221 13.3198 10.9863 13.0387 10.7147 12.8208C10.4431 12.6029 10.1021 12.494 9.69469 12.494H9.06154V11.4092H9.62996C9.98048 11.4092 10.2757 11.3145 10.5157 11.125C10.7557 10.9355 10.8757 10.6766 10.8757 10.3466C10.8757 10.0529 10.7684 9.81923 10.5536 9.64397C10.3389 9.4687 10.0673 9.38028 9.73733 9.38028C9.41522 9.38028 9.15943 9.46554 8.96996 9.63765C8.78061 9.81021 8.63825 10.0281 8.55627 10.2708L7.47154 9.81923C7.61522 9.41186 7.87891 9.05186 8.26575 8.74081C8.65259 8.42975 9.1468 8.27344 9.7468 8.27344C10.1905 8.27344 10.59 8.3587 10.9436 8.53081C11.2973 8.70291 11.5752 8.94133 11.7757 9.24449C11.9763 9.54923 12.0757 9.89028 12.0757 10.2692C12.0757 10.6561 11.9826 10.9829 11.7963 11.2513C11.61 11.5198 11.381 11.725 11.1094 11.8687V11.9334C11.4601 12.078 11.7647 12.3155 11.9905 12.6203C12.2194 12.9282 12.3347 13.2961 12.3347 13.7255C12.3347 14.155 12.2257 14.5387 12.0079 14.875C11.79 15.2113 11.4884 15.4766 11.1063 15.6692C10.7226 15.8619 10.2915 15.9598 9.81311 15.9598C9.2589 15.9613 8.74733 15.8019 8.27522 15.4829ZM15.0063 10.045L13.8031 10.915L13.2015 10.0024L15.36 8.44554H16.1873V15.7892H15.0063V10.045Z" fill="#4285F4"/>
</svg>
