<svg width="350" height="326" viewBox="0 0 350 326" fill="none" xmlns="http://www.w3.org/2000/svg">
<path d="M178.303 263.463C229.744 263.463 271.446 221.463 271.446 169.655C271.446 117.846 229.744 75.8464 178.303 75.8464C126.862 75.8464 85.1602 117.846 85.1602 169.655C85.1602 221.463 126.862 263.463 178.303 263.463Z" fill="url(#paint0_linear)"/>
<path d="M274.433 64.0209C278.418 68.0062 280.329 74.392 279.606 83.3392C278.885 92.2664 275.563 103.218 269.768 115.524C258.194 140.106 237.117 169.33 209.21 197.237C181.303 225.144 152.08 246.221 127.498 257.795C115.191 263.59 104.239 266.912 95.3123 267.633C86.3651 268.356 79.9793 266.445 75.994 262.46C72.0088 258.474 70.0976 252.089 70.8203 243.141C71.5414 234.214 74.8636 223.262 80.6583 210.956C92.2331 186.374 113.309 157.151 141.217 129.244C169.124 101.336 198.347 80.26 222.929 68.6852C235.235 62.8905 246.187 59.5683 255.114 58.8472C264.062 58.1246 270.447 60.0357 274.433 64.0209Z" stroke="url(#paint1_linear)" stroke-width="7.49528"/>
<path d="M75.757 63.78C78.0215 61.5155 82.6496 60.4542 90.7264 62.3261C98.5766 64.1455 108.561 68.505 120.06 75.203C143.006 88.5701 171.229 110.806 199.199 138.776C227.17 166.747 249.406 194.969 262.773 217.916C269.471 229.414 273.83 239.399 275.65 247.249C277.521 255.326 276.46 259.954 274.196 262.219C271.931 264.483 267.303 265.544 259.226 263.673C251.376 261.853 241.391 257.494 229.893 250.796C206.946 237.429 178.724 215.193 150.753 187.222C122.783 159.252 100.547 131.029 87.18 108.083C80.482 96.5845 76.1224 86.5997 74.3031 78.7495C72.4312 70.6727 73.4924 66.0445 75.757 63.78Z" stroke="url(#paint2_linear)" stroke-width="7.49528"/>
<path d="M346.203 153.688C346.203 157.971 342.83 163.034 334.225 168.372C325.823 173.583 313.415 178.413 297.751 182.523C266.478 190.728 223.068 195.846 174.976 195.846C126.883 195.846 83.4734 190.728 52.2002 182.523C36.5357 178.413 24.1282 173.583 15.7259 168.372C7.12107 163.034 3.74764 157.971 3.74764 153.688C3.74764 149.404 7.12107 144.341 15.7259 139.004C24.1282 133.792 36.5357 128.962 52.2002 124.852C83.4734 116.647 126.883 111.529 174.976 111.529C223.068 111.529 266.478 116.647 297.751 124.852C313.415 128.962 325.823 133.792 334.225 139.004C342.83 144.341 346.203 149.404 346.203 153.688Z" stroke="url(#paint3_linear)" stroke-width="7.49528"/>
<path d="M178.301 3.74765C184.2 3.74765 190.41 7.31546 196.598 15.1349C202.753 22.9137 208.461 34.4016 213.324 48.9311C223.036 77.9511 229.109 118.281 229.109 163C229.109 207.719 223.036 248.049 213.324 277.069C208.461 291.598 202.753 303.086 196.598 310.865C190.41 318.685 184.2 322.252 178.301 322.252C172.403 322.252 166.192 318.685 160.005 310.865C153.849 303.086 148.142 291.598 143.279 277.069C133.566 248.049 127.494 207.719 127.494 163C127.494 118.281 133.566 77.9511 143.279 48.9311C148.142 34.4016 153.849 22.9137 160.005 15.1349C166.192 7.31546 172.403 3.74765 178.301 3.74765Z" stroke="url(#paint4_linear)" stroke-width="7.49528"/>
<defs>
<linearGradient id="paint0_linear" x1="112.438" y1="103.327" x2="245.122" y2="235.07" gradientUnits="userSpaceOnUse">
<stop stop-color="#FF8B71"/>
<stop offset="0.704" stop-color="#C33F50"/>
<stop offset="1" stop-color="#A81E41"/>
</linearGradient>
<linearGradient id="paint1_linear" x1="138.567" y1="126.594" x2="211.86" y2="199.887" gradientUnits="userSpaceOnUse">
<stop stop-color="#FB866F" stop-opacity="0"/>
<stop offset="1" stop-color="#AD2444"/>
</linearGradient>
<linearGradient id="paint2_linear" x1="148.103" y1="189.872" x2="201.849" y2="136.126" gradientUnits="userSpaceOnUse">
<stop stop-color="#FB866F" stop-opacity="0"/>
<stop offset="1" stop-color="#AD2444"/>
</linearGradient>
<linearGradient id="paint3_linear" x1="174.976" y1="107.781" x2="174.976" y2="199.594" gradientUnits="userSpaceOnUse">
<stop stop-color="#FB866F" stop-opacity="0"/>
<stop offset="1" stop-color="#AD2444"/>
</linearGradient>
<linearGradient id="paint4_linear" x1="123.746" y1="163" x2="232.856" y2="163" gradientUnits="userSpaceOnUse">
<stop stop-color="#FB866F" stop-opacity="0"/>
<stop offset="1" stop-color="#AD2444"/>
</linearGradient>
</defs>
</svg>
