<svg width="461" height="326" viewBox="0 0 461 326" fill="none" xmlns="http://www.w3.org/2000/svg">
<path d="M226.197 285.25C240.351 285.25 251.826 273.479 251.826 258.96C251.826 244.44 240.351 232.669 226.197 232.669C212.043 232.669 200.568 244.44 200.568 258.96C200.568 273.479 212.043 285.25 226.197 285.25Z" fill="url(#paint0_linear)"/>
<path d="M398.168 187.976C412.322 187.976 423.796 176.206 423.796 161.686C423.796 147.166 412.322 135.396 398.168 135.396C384.013 135.396 372.539 147.166 372.539 161.686C372.539 176.206 384.013 187.976 398.168 187.976Z" fill="url(#paint1_linear)"/>
<path d="M228.826 93.3307C242.98 93.3307 254.454 81.5601 254.454 67.0403C254.454 52.5206 242.98 40.75 228.826 40.75C214.672 40.75 203.197 52.5206 203.197 67.0403C203.197 81.5601 214.672 93.3307 228.826 93.3307Z" fill="url(#paint2_linear)"/>
<path d="M63.2262 189.291C77.3805 189.291 88.8548 177.52 88.8548 163C88.8548 148.481 77.3805 136.71 63.2262 136.71C49.072 136.71 37.5977 148.481 37.5977 163C37.5977 177.52 49.072 189.291 63.2262 189.291Z" fill="url(#paint3_linear)"/>
<path d="M8.94763 133.679L62.7441 102.937L116.541 133.679L62.7441 164.421L8.94763 133.679Z" stroke="url(#paint4_linear)" stroke-width="7.8871"/>
<path d="M8.94763 195.421L62.7441 164.679L116.541 195.421L62.7441 226.163L8.94763 195.421Z" stroke="url(#paint5_linear)" stroke-width="7.8871"/>
<path d="M62.5801 164.315V226.097" stroke="url(#paint6_linear)" stroke-width="7.8871"/>
<path d="M117.789 134.081L117.789 195.863" stroke="url(#paint7_linear)" stroke-width="7.8871"/>
<path d="M4.74219 133.424V195.284" stroke="url(#paint8_linear)" stroke-width="7.8871"/>
<path d="M175.891 36.7692L229.688 6.02713L283.484 36.7692L229.688 67.5112L175.891 36.7692Z" stroke="url(#paint9_linear)" stroke-width="7.8871"/>
<path d="M175.891 98.5114L229.688 67.7693L283.484 98.5114L229.688 129.253L175.891 98.5114Z" stroke="url(#paint10_linear)" stroke-width="7.8871"/>
<path d="M229.523 67.4053V129.188" stroke="url(#paint11_linear)" stroke-width="7.8871"/>
<path d="M284.732 37.1714L284.732 98.9536" stroke="url(#paint12_linear)" stroke-width="7.8871"/>
<path d="M171.686 36.5142V98.3739" stroke="url(#paint13_linear)" stroke-width="7.8871"/>
<path d="M345.059 130.1L398.855 99.3577L452.652 130.1L398.855 160.842L345.059 130.1Z" stroke="url(#paint14_linear)" stroke-width="7.8871"/>
<path d="M345.059 191.842L398.855 161.1L452.652 191.842L398.855 222.584L345.059 191.842Z" stroke="url(#paint15_linear)" stroke-width="7.8871"/>
<path d="M398.691 160.736V222.518" stroke="url(#paint16_linear)" stroke-width="7.8871"/>
<path d="M453.9 130.502L453.9 192.284" stroke="url(#paint17_linear)" stroke-width="7.8871"/>
<path d="M340.854 129.845V191.704" stroke="url(#paint18_linear)" stroke-width="7.8871"/>
<path d="M174.375 227.374L228.172 196.632L281.968 227.374L228.172 258.116L174.375 227.374Z" stroke="url(#paint19_linear)" stroke-width="7.8871"/>
<path d="M174.375 289.116L228.172 258.374L281.968 289.116L228.172 319.858L174.375 289.116Z" stroke="url(#paint20_linear)" stroke-width="7.8871"/>
<path d="M228.008 258.01V319.793" stroke="url(#paint21_linear)" stroke-width="7.8871"/>
<path d="M283.217 227.776L283.217 289.559" stroke="url(#paint22_linear)" stroke-width="7.8871"/>
<path d="M170.17 227.119V288.979" stroke="url(#paint23_linear)" stroke-width="7.8871"/>
<path d="M287.564 98.5889L346.515 130.795" stroke="url(#paint24_linear)" stroke-width="7.8871"/>
<path d="M119.307 198.492L172.545 226.754" stroke="url(#paint25_linear)" stroke-width="7.8871"/>
<path d="M286.908 225.44L349.348 189.291" stroke="url(#paint26_linear)" stroke-width="7.8871"/>
<path d="M121.936 130.235L173.03 98.2605" stroke="url(#paint27_linear)" stroke-width="7.8871"/>
<defs>
<linearGradient id="paint0_linear" x1="208.074" y1="240.371" x2="245.248" y2="276.61" gradientUnits="userSpaceOnUse">
<stop stop-color="#FF8B71"/>
<stop offset="0.704" stop-color="#C33F50"/>
<stop offset="1" stop-color="#A81E41"/>
</linearGradient>
<linearGradient id="paint1_linear" x1="380.045" y1="143.097" x2="417.219" y2="179.336" gradientUnits="userSpaceOnUse">
<stop stop-color="#FF8B71"/>
<stop offset="0.704" stop-color="#C33F50"/>
<stop offset="1" stop-color="#A81E41"/>
</linearGradient>
<linearGradient id="paint2_linear" x1="210.703" y1="48.4516" x2="247.877" y2="84.6903" gradientUnits="userSpaceOnUse">
<stop stop-color="#FF8B71"/>
<stop offset="0.704" stop-color="#C33F50"/>
<stop offset="1" stop-color="#A81E41"/>
</linearGradient>
<linearGradient id="paint3_linear" x1="45.1032" y1="144.412" x2="82.2777" y2="180.65" gradientUnits="userSpaceOnUse">
<stop stop-color="#FF8B71"/>
<stop offset="0.704" stop-color="#C33F50"/>
<stop offset="1" stop-color="#A81E41"/>
</linearGradient>
<linearGradient id="paint4_linear" x1="93.6165" y1="102.806" x2="31.8718" y2="164.551" gradientUnits="userSpaceOnUse">
<stop stop-color="#FB866F" stop-opacity="0"/>
<stop offset="1" stop-color="#AD2444"/>
</linearGradient>
<linearGradient id="paint5_linear" x1="93.6165" y1="164.549" x2="31.8718" y2="226.293" gradientUnits="userSpaceOnUse">
<stop stop-color="#FB866F" stop-opacity="0"/>
<stop offset="1" stop-color="#AD2444"/>
</linearGradient>
<linearGradient id="paint6_linear" x1="63.0801" y1="164.315" x2="63.0801" y2="226.097" gradientUnits="userSpaceOnUse">
<stop stop-color="#FB866F" stop-opacity="0"/>
<stop offset="1" stop-color="#AD2444"/>
</linearGradient>
<linearGradient id="paint7_linear" x1="118.289" y1="134.081" x2="118.289" y2="195.863" gradientUnits="userSpaceOnUse">
<stop stop-color="#FB866F" stop-opacity="0"/>
<stop offset="0.541667" stop-color="#AD2444" stop-opacity="0.6"/>
<stop offset="1" stop-color="#FB866F" stop-opacity="0"/>
</linearGradient>
<linearGradient id="paint8_linear" x1="5.24219" y1="129.532" x2="5.24219" y2="195.284" gradientUnits="userSpaceOnUse">
<stop stop-color="#FB866F" stop-opacity="0"/>
<stop offset="1" stop-color="#AD2444"/>
</linearGradient>
<linearGradient id="paint9_linear" x1="260.56" y1="5.89679" x2="198.815" y2="67.6415" gradientUnits="userSpaceOnUse">
<stop stop-color="#FB866F" stop-opacity="0"/>
<stop offset="1" stop-color="#AD2444"/>
</linearGradient>
<linearGradient id="paint10_linear" x1="260.56" y1="67.639" x2="198.815" y2="129.384" gradientUnits="userSpaceOnUse">
<stop stop-color="#FB866F" stop-opacity="0"/>
<stop offset="1" stop-color="#AD2444"/>
</linearGradient>
<linearGradient id="paint11_linear" x1="230.023" y1="67.4053" x2="230.023" y2="129.188" gradientUnits="userSpaceOnUse">
<stop stop-color="#FB866F" stop-opacity="0"/>
<stop offset="1" stop-color="#AD2444"/>
</linearGradient>
<linearGradient id="paint12_linear" x1="285.232" y1="37.1714" x2="285.232" y2="98.9536" gradientUnits="userSpaceOnUse">
<stop stop-color="#FB866F" stop-opacity="0"/>
<stop offset="0.541667" stop-color="#AD2444" stop-opacity="0.6"/>
<stop offset="1" stop-color="#FB866F" stop-opacity="0"/>
</linearGradient>
<linearGradient id="paint13_linear" x1="172.186" y1="32.622" x2="172.186" y2="98.3739" gradientUnits="userSpaceOnUse">
<stop stop-color="#FB866F" stop-opacity="0"/>
<stop offset="1" stop-color="#AD2444"/>
</linearGradient>
<linearGradient id="paint14_linear" x1="429.728" y1="99.2274" x2="367.983" y2="160.972" gradientUnits="userSpaceOnUse">
<stop stop-color="#FB866F" stop-opacity="0"/>
<stop offset="1" stop-color="#AD2444"/>
</linearGradient>
<linearGradient id="paint15_linear" x1="429.728" y1="160.97" x2="367.983" y2="222.714" gradientUnits="userSpaceOnUse">
<stop stop-color="#FB866F" stop-opacity="0"/>
<stop offset="1" stop-color="#AD2444"/>
</linearGradient>
<linearGradient id="paint16_linear" x1="399.191" y1="160.736" x2="399.191" y2="222.518" gradientUnits="userSpaceOnUse">
<stop stop-color="#FB866F" stop-opacity="0"/>
<stop offset="1" stop-color="#AD2444"/>
</linearGradient>
<linearGradient id="paint17_linear" x1="454.4" y1="130.502" x2="454.4" y2="192.284" gradientUnits="userSpaceOnUse">
<stop stop-color="#FB866F" stop-opacity="0"/>
<stop offset="0.541667" stop-color="#AD2444" stop-opacity="0.6"/>
<stop offset="1" stop-color="#FB866F" stop-opacity="0"/>
</linearGradient>
<linearGradient id="paint18_linear" x1="341.354" y1="125.953" x2="341.354" y2="191.704" gradientUnits="userSpaceOnUse">
<stop stop-color="#FB866F" stop-opacity="0"/>
<stop offset="1" stop-color="#AD2444"/>
</linearGradient>
<linearGradient id="paint19_linear" x1="259.044" y1="196.502" x2="197.299" y2="258.247" gradientUnits="userSpaceOnUse">
<stop stop-color="#FB866F" stop-opacity="0"/>
<stop offset="1" stop-color="#AD2444"/>
</linearGradient>
<linearGradient id="paint20_linear" x1="259.044" y1="258.244" x2="197.299" y2="319.989" gradientUnits="userSpaceOnUse">
<stop stop-color="#FB866F" stop-opacity="0"/>
<stop offset="1" stop-color="#AD2444"/>
</linearGradient>
<linearGradient id="paint21_linear" x1="228.508" y1="258.01" x2="228.508" y2="319.793" gradientUnits="userSpaceOnUse">
<stop stop-color="#FB866F" stop-opacity="0"/>
<stop offset="1" stop-color="#AD2444"/>
</linearGradient>
<linearGradient id="paint22_linear" x1="283.717" y1="227.776" x2="283.717" y2="289.559" gradientUnits="userSpaceOnUse">
<stop stop-color="#FB866F" stop-opacity="0"/>
<stop offset="0.541667" stop-color="#AD2444" stop-opacity="0.6"/>
<stop offset="1" stop-color="#FB866F" stop-opacity="0"/>
</linearGradient>
<linearGradient id="paint23_linear" x1="170.67" y1="223.227" x2="170.67" y2="288.979" gradientUnits="userSpaceOnUse">
<stop stop-color="#FB866F" stop-opacity="0"/>
<stop offset="1" stop-color="#AD2444"/>
</linearGradient>
<linearGradient id="paint24_linear" x1="311.883" y1="98.5889" x2="311.883" y2="123.565" gradientUnits="userSpaceOnUse">
<stop stop-color="#FB866F" stop-opacity="0"/>
<stop offset="1" stop-color="#AD2444"/>
</linearGradient>
<linearGradient id="paint25_linear" x1="143.625" y1="198.492" x2="143.625" y2="223.468" gradientUnits="userSpaceOnUse">
<stop stop-color="#FB866F" stop-opacity="0"/>
<stop offset="1" stop-color="#AD2444"/>
</linearGradient>
<linearGradient id="paint26_linear" x1="299.725" y1="206.449" x2="321.354" y2="218.937" gradientUnits="userSpaceOnUse">
<stop stop-color="#FB866F" stop-opacity="0"/>
<stop offset="1" stop-color="#AD2444"/>
</linearGradient>
<linearGradient id="paint27_linear" x1="134.095" y1="109.174" x2="155.725" y2="121.662" gradientUnits="userSpaceOnUse">
<stop stop-color="#FB866F" stop-opacity="0"/>
<stop offset="1" stop-color="#AD2444"/>
</linearGradient>
</defs>
</svg>
