<svg width="110" height="110" viewBox="0 0 110 110" fill="none" xmlns="http://www.w3.org/2000/svg">
<path d="M54.8328 0.621104C69.3893 0.621105 83.0762 6.29025 93.3693 16.5834C103.665 26.8765 109.334 40.5633 109.334 55.1199C109.334 69.6764 103.665 83.3657 93.3717 93.6588C83.0786 103.952 69.3918 109.621 54.8328 109.621C40.2738 109.621 26.5894 103.952 16.2963 93.6588C6.00313 83.3657 0.333988 69.6789 0.333989 55.1223C0.33399 40.5658 6.00314 26.8789 16.2963 16.5858C26.5894 6.29025 40.2762 0.621103 54.8328 0.621104ZM54.8328 105.918C68.4002 105.918 81.1588 100.634 90.7528 91.0399C100.347 81.4459 105.631 68.6898 105.631 55.1199C105.631 41.55 100.347 28.7938 90.7528 19.1999C81.1588 9.60598 68.4027 4.32176 54.8328 4.32176C41.2629 4.32176 28.5067 9.60597 18.9128 19.1999C9.31886 28.7938 4.03465 41.55 4.03465 55.1199C4.03465 68.6898 9.31886 81.4435 18.9128 91.0399C28.5092 100.634 41.2653 105.918 54.8328 105.918Z" fill="url(#paint0_linear)"/>
<circle cx="54.834" cy="55.1211" r="50.9839" fill="#121212"/>
<g clip-path="url(#clip0)">
<path d="M54.834 22.1211C73.0611 22.1211 87.834 36.897 87.834 55.1211C87.834 73.3482 73.0611 88.1211 54.834 88.1211C36.6099 88.1211 21.834 73.3467 21.834 55.1211C21.834 36.897 36.6099 22.1211 54.834 22.1211Z" fill="#F5AC37"/>
<path d="M56.0474 57.4514H68.5869C68.8542 57.4514 68.9804 57.4514 68.9997 57.1009C69.1022 55.8253 69.1022 54.5422 68.9997 53.2651C68.9997 53.0171 68.8764 52.9146 68.6077 52.9146H43.652C43.3431 52.9146 43.2599 53.0171 43.2599 53.3067V56.9776C43.2599 57.4514 43.2599 57.4514 43.7544 57.4514H56.0474ZM67.5993 48.6244C67.635 48.5309 67.635 48.4284 67.5993 48.3363C67.3899 47.8804 67.1419 47.4453 66.8539 47.0369C66.4202 46.339 65.9094 45.696 65.3273 45.1183C65.0525 44.7693 64.7347 44.456 64.3783 44.1902C62.5933 42.671 60.4713 41.5959 58.1903 41.0553C57.0394 40.7969 55.8633 40.6737 54.6842 40.6841H43.6089C43.3 40.6841 43.2585 40.8073 43.2585 41.0761V48.3972C43.2585 48.7061 43.2585 48.7893 43.6505 48.7893H67.4508C67.4508 48.7893 67.6572 48.7477 67.6988 48.6244H67.5978H67.5993ZM67.5993 61.7416C67.2489 61.703 66.8954 61.703 66.545 61.7416H43.6728C43.3639 61.7416 43.2599 61.7416 43.2599 62.1544V69.3122C43.2599 69.6418 43.2599 69.725 43.6728 69.725H54.2327C54.7376 69.7636 55.2425 69.728 55.737 69.6225C57.2696 69.5126 58.7769 69.18 60.2143 68.632C60.7371 68.4509 61.242 68.2147 61.7187 67.9311H61.8627C64.3382 66.6436 66.3489 64.621 67.6171 62.1381C67.6171 62.1381 67.7612 61.8262 67.5993 61.7445V61.7416ZM39.1153 73.4361V73.3128V68.5073V66.8782V62.0311C39.1153 61.7624 39.1153 61.7223 38.7856 61.7223H34.3098C34.0618 61.7223 33.9593 61.7223 33.9593 61.3926V57.4736H38.744C39.0113 57.4736 39.1153 57.4736 39.1153 57.1232V53.2458C39.1153 52.9978 39.1153 52.9369 38.7856 52.9369H34.3098C34.0618 52.9369 33.9593 52.9369 33.9593 52.6072V48.9779C33.9593 48.7507 33.9593 48.6898 34.289 48.6898H38.7232C39.0321 48.6898 39.1153 48.6898 39.1153 48.2977V37.1809C39.1153 36.8512 39.1153 36.7681 39.5281 36.7681H54.996C56.1187 36.8126 57.2339 36.9359 58.3373 37.1393C60.6108 37.5596 62.7953 38.3719 64.7926 39.5317C66.1173 40.3113 67.3365 41.2528 68.422 42.3369C69.2388 43.1848 69.9754 44.1026 70.6288 45.0797C71.2777 46.0702 71.8168 47.129 72.24 48.2354C72.292 48.5234 72.5682 48.718 72.8563 48.669H76.548C77.0217 48.669 77.0217 48.669 77.0425 49.1234V52.5063C77.0425 52.8359 76.9193 52.9191 76.5881 52.9191H73.7414C73.4533 52.9191 73.3701 52.9191 73.3909 53.2903C73.5037 54.5467 73.5037 55.8074 73.3909 57.0638C73.3909 57.4142 73.3909 57.4558 73.7844 57.4558H77.041C77.1851 57.6414 77.041 57.8271 77.041 58.0142C77.0618 58.2533 77.0618 58.4953 77.041 58.7344V61.2307C77.041 61.5812 76.9386 61.6851 76.6282 61.6851H72.7301C72.4583 61.6332 72.194 61.8069 72.1316 62.0772C71.2035 64.4903 69.7184 66.654 67.7998 68.3885C67.0989 69.0196 66.3623 69.6136 65.5931 70.1616C64.7674 70.6368 63.964 71.1313 63.1176 71.5234C61.5598 72.2243 59.9263 72.7411 58.2497 73.0693C56.6577 73.3544 55.0435 73.4836 53.4234 73.4613H39.1093V73.4405L39.1153 73.4361Z" fill="#FEFEFD"/>
</g>
<defs>
<linearGradient id="paint0_linear" x1="93.3713" y1="16.5837" x2="16.2965" y2="93.6584" gradientUnits="userSpaceOnUse">
<stop/>
<stop offset="1" stop-color="#515151"/>
</linearGradient>
<clipPath id="clip0">
<rect width="66" height="66" fill="white" transform="translate(21.834 22.1211)"/>
</clipPath>
</defs>
</svg>
