<svg width="564" height="716" viewBox="0 0 564 716" fill="none" xmlns="http://www.w3.org/2000/svg">
<mask id="mask0" mask-type="alpha" maskUnits="userSpaceOnUse" x="30" y="0" width="503" height="431">
<rect x="30.8906" width="502" height="431" fill="#C4C4C4"/>
</mask>
<g mask="url(#mask0)">
<circle r="1.1785" transform="matrix(-1 0 0 1 298.609 388.814)" fill="white"/>
<circle r="1.1785" transform="matrix(-1 0 0 1 443.277 66.4944)" fill="white"/>
<circle r="1.1785" transform="matrix(-1 0 0 1 205.757 165.18)" fill="white"/>
<circle r="1.1785" transform="matrix(-1 0 0 1 392.603 131.312)" fill="white"/>
<circle r="1.1785" transform="matrix(-1 0 0 1 147.173 131.312)" fill="white"/>
<rect width="0.891362" height="0.891362" rx="0.10144" transform="matrix(0.910234 -0.414095 0.413626 0.910447 528.721 155.033)" fill="white"/>
<rect width="1.78806" height="1.78806" rx="0.203488" transform="matrix(0.910354 -0.413831 0.41389 0.910327 107.102 332.986)" fill="white"/>
<rect width="1.78806" height="1.78806" rx="0.203488" transform="matrix(0.910271 -0.414013 0.413708 0.910409 132.154 44.8433)" fill="white"/>
<rect width="1.55125" height="1.55125" rx="0.18444" transform="matrix(0.816045 0.577988 -0.577908 0.816102 417.213 181.711)" fill="#161616"/>
<path d="M445.05 233.655C445.099 233.747 445.084 233.862 445.011 233.938L444.019 234.971C443.946 235.047 443.833 235.067 443.738 235.021L442.449 234.397C442.354 234.351 442.3 234.25 442.314 234.145L442.509 232.727C442.524 232.623 442.604 232.54 442.707 232.521L444.117 232.268C444.22 232.249 444.324 232.3 444.374 232.393L445.05 233.655Z" fill="white"/>
<path d="M95.8191 221.641C95.8688 221.733 95.8531 221.848 95.7802 221.924L94.7887 222.956C94.7158 223.032 94.6022 223.053 94.5075 223.007L93.2187 222.383C93.124 222.337 93.0695 222.236 93.0839 222.131L93.279 220.713C93.2933 220.609 93.3732 220.525 93.4768 220.507L94.8861 220.254C94.9897 220.235 95.0935 220.286 95.1432 220.378L95.8191 221.641Z" fill="white"/>
<path d="M517.406 77.9884C517.511 77.9878 517.605 78.0552 517.638 78.1552L518.087 79.5147C518.12 79.6146 518.085 79.7245 518 79.7868L516.846 80.6341C516.761 80.6964 516.645 80.6969 516.56 80.6355L515.398 79.7996C515.312 79.7381 515.276 79.6286 515.308 79.5283L515.744 78.1644C515.776 78.0641 515.869 77.9959 515.974 77.9954L517.406 77.9884Z" fill="white"/>
<path d="M483.822 395.004C483.927 395.003 484.021 395.071 484.054 395.171L484.503 396.53C484.536 396.63 484.501 396.74 484.416 396.802L483.262 397.65C483.177 397.712 483.061 397.713 482.976 397.651L481.814 396.815C481.728 396.754 481.692 396.644 481.724 396.544L482.16 395.18C482.192 395.08 482.285 395.012 482.39 395.011L483.822 395.004Z" fill="white"/>
<path d="M238.388 395.004C238.493 395.003 238.587 395.071 238.62 395.171L239.069 396.53C239.102 396.63 239.067 396.74 238.982 396.802L237.828 397.65C237.743 397.712 237.628 397.713 237.542 397.651L236.38 396.815C236.295 396.754 236.258 396.644 236.29 396.544L236.726 395.18C236.758 395.08 236.851 395.012 236.956 395.011L238.388 395.004Z" fill="white"/>
</g>
<circle opacity="0.2" cx="282" cy="421" r="196.888" stroke="white" stroke-opacity="0.88" stroke-width="0.223928" stroke-dasharray="2.56 1.28"/>
<circle opacity="0.2" cx="282" cy="433.867" r="281.868" stroke="white" stroke-opacity="0.88" stroke-width="0.264289" stroke-dasharray="2.56 1.28"/>
<circle cx="419.891" cy="183" r="15" fill="url(#paint0_linear)"/>
<path d="M371.671 160.04H370.823L376.375 150.632H378.215V161H376.375V153.256L376.791 153.384L372.263 161H370.247L365.719 153.4L366.135 153.288V161H364.295V150.632H366.135L371.671 160.04ZM382.557 156.6V159.416H389.917V161H380.717V150.632H389.901V152.216H382.557V155.08H388.573V156.6H382.557ZM392.123 161V150.632H398.331C399.11 150.632 399.782 150.744 400.347 150.968C400.912 151.181 401.35 151.517 401.659 151.976C401.968 152.424 402.123 153 402.123 153.704C402.123 154.184 402.043 154.595 401.883 154.936C401.723 155.267 401.499 155.539 401.211 155.752C400.923 155.965 400.587 156.131 400.203 156.248C399.83 156.355 399.424 156.424 398.987 156.456L398.827 156.344C399.51 156.365 400.08 156.435 400.539 156.552C400.998 156.659 401.344 156.861 401.579 157.16C401.814 157.459 401.931 157.901 401.931 158.488V161H400.075V158.584C400.075 158.179 400.006 157.864 399.867 157.64C399.728 157.416 399.483 157.261 399.131 157.176C398.779 157.08 398.283 157.032 397.643 157.032H393.963V161H392.123ZM393.963 155.528H398.331C398.971 155.528 399.456 155.373 399.787 155.064C400.118 154.744 400.283 154.323 400.283 153.8C400.283 153.299 400.118 152.915 399.787 152.648C399.456 152.381 398.971 152.248 398.331 152.248H393.963V155.528ZM415.397 157.352C415.291 158.163 415.008 158.856 414.549 159.432C414.091 159.997 413.472 160.435 412.693 160.744C411.925 161.043 411.029 161.192 410.005 161.192C409.12 161.192 408.304 161.075 407.557 160.84C406.821 160.605 406.181 160.264 405.637 159.816C405.104 159.357 404.688 158.797 404.389 158.136C404.091 157.464 403.941 156.696 403.941 155.832C403.941 154.957 404.091 154.189 404.389 153.528C404.688 152.856 405.104 152.291 405.637 151.832C406.181 151.373 406.821 151.027 407.557 150.792C408.304 150.557 409.12 150.44 410.005 150.44C411.04 150.44 411.941 150.595 412.709 150.904C413.488 151.213 414.107 151.661 414.565 152.248C415.024 152.824 415.301 153.517 415.397 154.328H413.589C413.451 153.848 413.221 153.443 412.901 153.112C412.581 152.771 412.176 152.515 411.685 152.344C411.195 152.163 410.635 152.072 410.005 152.072C409.205 152.072 408.485 152.216 407.845 152.504C407.216 152.792 406.72 153.213 406.357 153.768C406.005 154.323 405.829 155.011 405.829 155.832C405.829 156.643 406.005 157.325 406.357 157.88C406.72 158.435 407.216 158.856 407.845 159.144C408.485 159.432 409.205 159.576 410.005 159.576C410.635 159.576 411.189 159.491 411.669 159.32C412.16 159.139 412.565 158.883 412.885 158.552C413.205 158.211 413.44 157.811 413.589 157.352H415.397ZM419.114 155.016H426.794V156.6H419.114V155.016ZM426.522 150.632H428.378V161H426.522V150.632ZM417.482 150.632H419.322V161H417.482V150.632ZM432.329 158.584V157H438.569V158.584H432.329ZM429.913 161L434.473 150.632H436.457L441.065 161H439.049L435.065 151.64H435.865L431.897 161H429.913ZM452.287 159.08L451.711 159.304V150.632H453.567V161H451.711L443.887 152.6L444.447 152.376V161H442.607V150.632H444.447L452.287 159.08ZM455.101 150.632H465.149V152.216H455.101V150.632ZM459.213 152.024H461.053V161H459.213V152.024ZM466.013 157.544H467.837C467.869 157.939 468.024 158.296 468.301 158.616C468.578 158.925 468.941 159.171 469.389 159.352C469.848 159.523 470.37 159.608 470.957 159.608C471.48 159.608 471.912 159.544 472.253 159.416C472.594 159.288 472.85 159.112 473.021 158.888C473.192 158.664 473.277 158.392 473.277 158.072C473.277 157.763 473.176 157.523 472.973 157.352C472.781 157.181 472.477 157.037 472.061 156.92C471.645 156.803 471.117 156.685 470.477 156.568C469.944 156.461 469.432 156.328 468.941 156.168C468.45 156.008 468.008 155.805 467.613 155.56C467.229 155.315 466.925 155.016 466.701 154.664C466.477 154.312 466.365 153.891 466.365 153.4C466.365 152.835 466.52 152.328 466.829 151.88C467.149 151.432 467.618 151.08 468.237 150.824C468.866 150.568 469.634 150.44 470.541 150.44C471.906 150.44 472.946 150.755 473.661 151.384C474.386 152.003 474.738 152.851 474.717 153.928H472.957C472.914 153.256 472.664 152.776 472.205 152.488C471.746 152.189 471.165 152.04 470.461 152.04C469.821 152.04 469.288 152.152 468.861 152.376C468.434 152.589 468.221 152.947 468.221 153.448C468.221 153.651 468.269 153.832 468.365 153.992C468.472 154.141 468.642 154.28 468.877 154.408C469.122 154.525 469.448 154.643 469.853 154.76C470.269 154.867 470.781 154.979 471.389 155.096C471.901 155.192 472.381 155.315 472.829 155.464C473.288 155.603 473.682 155.789 474.013 156.024C474.354 156.248 474.621 156.536 474.813 156.888C475.005 157.24 475.101 157.672 475.101 158.184C475.101 158.771 474.952 159.293 474.653 159.752C474.354 160.2 473.896 160.557 473.277 160.824C472.658 161.08 471.858 161.208 470.877 161.208C470.13 161.208 469.48 161.123 468.925 160.952C468.381 160.771 467.912 160.541 467.517 160.264C467.133 159.976 466.824 159.667 466.589 159.336C466.354 159.005 466.189 158.685 466.093 158.376C466.008 158.056 465.981 157.779 466.013 157.544Z" fill="white"/>
<circle opacity="0.3" cx="112.561" cy="117.67" r="7.67036" fill="url(#paint1_linear)"/>
<circle opacity="0.3" cx="104.463" cy="372.87" r="5.27338" fill="url(#paint2_linear)"/>
<circle opacity="0.3" cx="460.496" cy="186.863" r="5.27338" fill="url(#paint3_linear)"/>
<circle opacity="0.3" cx="401.369" cy="383.416" r="5.27338" fill="url(#paint4_linear)"/>
<circle opacity="0.3" cx="70.9042" cy="168.327" r="5.27338" fill="url(#paint5_linear)"/>
<circle cx="153.891" cy="183" r="15" fill="url(#paint6_linear)"/>
<path d="M134.604 150.632V152.216H127.26V155.208H133.276V156.728H127.26V161H125.42V150.632H134.604ZM141.459 161.192C140.232 161.192 139.16 160.973 138.243 160.536C137.336 160.099 136.632 159.48 136.131 158.68C135.64 157.88 135.395 156.925 135.395 155.816C135.395 154.707 135.64 153.752 136.131 152.952C136.632 152.141 137.336 151.523 138.243 151.096C139.16 150.659 140.232 150.44 141.459 150.44C142.707 150.44 143.779 150.659 144.675 151.096C145.581 151.523 146.285 152.141 146.787 152.952C147.288 153.752 147.539 154.707 147.539 155.816C147.539 156.925 147.288 157.88 146.787 158.68C146.285 159.48 145.581 160.099 144.675 160.536C143.779 160.973 142.707 161.192 141.459 161.192ZM141.459 159.56C142.269 159.56 142.984 159.427 143.602 159.16C144.232 158.883 144.723 158.467 145.075 157.912C145.437 157.357 145.619 156.659 145.619 155.816C145.619 154.984 145.437 154.291 145.075 153.736C144.723 153.181 144.232 152.765 143.602 152.488C142.984 152.211 142.269 152.072 141.459 152.072C140.659 152.072 139.939 152.211 139.299 152.488C138.669 152.765 138.173 153.181 137.811 153.736C137.448 154.291 137.267 154.984 137.267 155.816C137.267 156.659 137.448 157.357 137.811 157.912C138.173 158.467 138.669 158.883 139.299 159.16C139.939 159.427 140.659 159.56 141.459 159.56ZM149.623 161V150.632H155.831C156.61 150.632 157.282 150.744 157.847 150.968C158.412 151.181 158.85 151.517 159.159 151.976C159.468 152.424 159.623 153 159.623 153.704C159.623 154.184 159.543 154.595 159.383 154.936C159.223 155.267 158.999 155.539 158.711 155.752C158.423 155.965 158.087 156.131 157.703 156.248C157.33 156.355 156.924 156.424 156.487 156.456L156.327 156.344C157.01 156.365 157.58 156.435 158.039 156.552C158.498 156.659 158.844 156.861 159.079 157.16C159.314 157.459 159.431 157.901 159.431 158.488V161H157.575V158.584C157.575 158.179 157.506 157.864 157.367 157.64C157.228 157.416 156.983 157.261 156.631 157.176C156.279 157.08 155.783 157.032 155.143 157.032H151.463V161H149.623ZM151.463 155.528H155.831C156.471 155.528 156.956 155.373 157.287 155.064C157.618 154.744 157.783 154.323 157.783 153.8C157.783 153.299 157.618 152.915 157.287 152.648C156.956 152.381 156.471 152.248 155.831 152.248H151.463V155.528ZM163.697 156.6V159.416H171.057V161H161.857V150.632H171.041V152.216H163.697V155.08H169.713V156.6H163.697ZM180.736 150.632H182.944L178.4 156.28L178.352 156.344L174.864 161H172.656L177.328 155.048L177.36 155L180.736 150.632ZM175.024 150.632L178.32 155.016L178.352 155.064L182.976 161H180.64L177.248 156.296L177.2 156.264L172.816 150.632H175.024Z" fill="white"/>
<circle cx="281.891" cy="156" r="15" fill="url(#paint7_linear)"/>
<path d="M259.32 123.632C260.44 123.632 261.379 123.771 262.136 124.048C262.893 124.325 263.496 124.704 263.944 125.184C264.403 125.653 264.728 126.197 264.92 126.816C265.112 127.435 265.208 128.085 265.208 128.768C265.208 129.461 265.101 130.123 264.888 130.752C264.675 131.381 264.333 131.941 263.864 132.432C263.405 132.912 262.803 133.296 262.056 133.584C261.309 133.861 260.397 134 259.32 134H254.248V123.632H259.32ZM256.088 132.384H259.288C260.077 132.384 260.733 132.283 261.256 132.08C261.779 131.877 262.189 131.605 262.488 131.264C262.797 130.923 263.016 130.539 263.144 130.112C263.283 129.675 263.352 129.227 263.352 128.768C263.352 128.32 263.283 127.888 263.144 127.472C263.016 127.045 262.797 126.667 262.488 126.336C262.189 126.005 261.779 125.744 261.256 125.552C260.733 125.349 260.077 125.248 259.288 125.248H256.088V132.384ZM268.282 131.584V130H274.522V131.584H268.282ZM265.866 134L270.426 123.632H272.41L277.018 134H275.002L271.018 124.64H271.818L267.85 134H265.866ZM280.113 130.528V129.008H284.369C284.955 129.008 285.425 128.843 285.777 128.512C286.129 128.171 286.305 127.712 286.305 127.136C286.305 126.539 286.129 126.075 285.777 125.744C285.425 125.413 284.955 125.248 284.369 125.248H280.369V134H278.529V123.632H284.241C284.785 123.632 285.291 123.707 285.76 123.856C286.241 123.995 286.657 124.208 287.009 124.496C287.371 124.784 287.654 125.147 287.857 125.584C288.059 126.021 288.161 126.539 288.161 127.136C288.161 127.723 288.059 128.235 287.857 128.672C287.654 129.099 287.371 129.451 287.009 129.728C286.657 130.005 286.241 130.208 285.76 130.336C285.291 130.464 284.785 130.528 284.241 130.528H280.113ZM291.706 130.528V129.008H295.962C296.549 129.008 297.018 128.843 297.37 128.512C297.722 128.171 297.898 127.712 297.898 127.136C297.898 126.539 297.722 126.075 297.37 125.744C297.018 125.413 296.549 125.248 295.962 125.248H291.962V134H290.122V123.632H295.834C296.378 123.632 296.885 123.707 297.354 123.856C297.834 123.995 298.25 124.208 298.602 124.496C298.965 124.784 299.248 125.147 299.45 125.584C299.653 126.021 299.754 126.539 299.754 127.136C299.754 127.723 299.653 128.235 299.45 128.672C299.248 129.099 298.965 129.451 298.602 129.728C298.25 130.005 297.834 130.208 297.354 130.336C296.885 130.464 296.378 130.528 295.834 130.528H291.706ZM301.06 130.544H302.884C302.916 130.939 303.071 131.296 303.348 131.616C303.625 131.925 303.988 132.171 304.436 132.352C304.895 132.523 305.417 132.608 306.004 132.608C306.527 132.608 306.959 132.544 307.3 132.416C307.641 132.288 307.897 132.112 308.068 131.888C308.239 131.664 308.324 131.392 308.324 131.072C308.324 130.763 308.223 130.523 308.02 130.352C307.828 130.181 307.524 130.037 307.108 129.92C306.692 129.803 306.164 129.685 305.524 129.568C304.991 129.461 304.479 129.328 303.988 129.168C303.497 129.008 303.055 128.805 302.66 128.56C302.276 128.315 301.972 128.016 301.748 127.664C301.524 127.312 301.412 126.891 301.412 126.4C301.412 125.835 301.567 125.328 301.876 124.88C302.196 124.432 302.665 124.08 303.284 123.824C303.913 123.568 304.681 123.44 305.588 123.44C306.953 123.44 307.993 123.755 308.708 124.384C309.433 125.003 309.785 125.851 309.764 126.928H308.004C307.961 126.256 307.711 125.776 307.252 125.488C306.793 125.189 306.212 125.04 305.508 125.04C304.868 125.04 304.335 125.152 303.908 125.376C303.481 125.589 303.268 125.947 303.268 126.448C303.268 126.651 303.316 126.832 303.412 126.992C303.519 127.141 303.689 127.28 303.924 127.408C304.169 127.525 304.495 127.643 304.9 127.76C305.316 127.867 305.828 127.979 306.436 128.096C306.948 128.192 307.428 128.315 307.876 128.464C308.335 128.603 308.729 128.789 309.06 129.024C309.401 129.248 309.668 129.536 309.86 129.888C310.052 130.24 310.148 130.672 310.148 131.184C310.148 131.771 309.999 132.293 309.7 132.752C309.401 133.2 308.943 133.557 308.324 133.824C307.705 134.08 306.905 134.208 305.924 134.208C305.177 134.208 304.527 134.123 303.972 133.952C303.428 133.771 302.959 133.541 302.564 133.264C302.18 132.976 301.871 132.667 301.636 132.336C301.401 132.005 301.236 131.685 301.14 131.376C301.055 131.056 301.028 130.779 301.06 130.544Z" fill="white"/>
<circle cx="154.891" cy="269" r="15" fill="url(#paint8_linear)"/>
<path d="M116.342 247V236.632H121.686C122.966 236.632 123.947 236.872 124.63 237.352C125.312 237.821 125.654 238.504 125.654 239.4C125.654 239.976 125.52 240.435 125.254 240.776C124.987 241.107 124.614 241.357 124.134 241.528C123.654 241.688 123.083 241.789 122.422 241.832L122.486 241.736C122.966 241.747 123.419 241.789 123.846 241.864C124.272 241.928 124.646 242.045 124.966 242.216C125.296 242.387 125.552 242.627 125.734 242.936C125.926 243.235 126.022 243.624 126.022 244.104C126.022 244.744 125.862 245.272 125.542 245.688C125.222 246.104 124.774 246.424 124.198 246.648C123.632 246.861 122.976 246.979 122.23 247H116.342ZM118.182 245.432H121.974C122.667 245.432 123.2 245.315 123.574 245.08C123.958 244.835 124.15 244.456 124.15 243.944C124.15 243.549 124.032 243.261 123.798 243.08C123.574 242.899 123.275 242.781 122.902 242.728C122.528 242.675 122.139 242.648 121.734 242.648H118.182V245.432ZM118.182 241.112H121.574C122.267 241.112 122.8 240.995 123.174 240.76C123.558 240.515 123.75 240.136 123.75 239.624C123.75 239.112 123.558 238.749 123.174 238.536C122.8 238.312 122.31 238.2 121.702 238.2H118.182V241.112ZM129.329 244.584V243H135.569V244.584H129.329ZM126.913 247L131.473 236.632H133.457L138.065 247H136.049L132.065 237.64H132.865L128.897 247H126.913ZM149.287 245.08L148.711 245.304V236.632H150.567V247H148.711L140.887 238.6L141.447 238.376V247H139.607V236.632H141.447L149.287 245.08ZM156.837 241.96V241.08L163.493 247H160.852L154.901 241.56L160.181 236.632H162.773L156.837 241.96ZM153.061 236.632H154.901V247H153.061V236.632ZM165.255 236.632H167.111V247H165.255V236.632ZM179.569 245.08L178.993 245.304V236.632H180.849V247H178.993L171.169 238.6L171.729 238.376V247H169.889V236.632H171.729L179.569 245.08ZM188.782 247.192C187.886 247.192 187.08 247.075 186.366 246.84C185.651 246.605 185.032 246.264 184.51 245.816C183.998 245.357 183.603 244.803 183.326 244.152C183.059 243.491 182.926 242.739 182.926 241.896C182.926 241.053 183.07 240.296 183.358 239.624C183.656 238.952 184.072 238.381 184.606 237.912C185.139 237.432 185.774 237.069 186.51 236.824C187.256 236.568 188.083 236.44 188.99 236.44C190.024 236.44 190.926 236.6 191.694 236.92C192.462 237.24 193.07 237.688 193.518 238.264C193.976 238.829 194.238 239.507 194.302 240.296H192.574C192.435 239.837 192.211 239.443 191.902 239.112C191.592 238.781 191.192 238.525 190.702 238.344C190.222 238.163 189.651 238.072 188.99 238.072C188.126 238.072 187.379 238.232 186.75 238.552C186.131 238.872 185.651 239.32 185.31 239.896C184.979 240.472 184.814 241.139 184.814 241.896C184.814 242.643 184.958 243.293 185.246 243.848C185.544 244.392 185.992 244.813 186.59 245.112C187.187 245.411 187.934 245.56 188.83 245.56C189.523 245.56 190.131 245.459 190.654 245.256C191.176 245.053 191.608 244.771 191.95 244.408C192.302 244.035 192.547 243.603 192.686 243.112L193.502 242.904C193.352 244.28 192.862 245.341 192.03 246.088C191.198 246.824 190.115 247.192 188.782 247.192ZM193.054 247C193.054 246.659 193.07 246.275 193.102 245.848C193.134 245.411 193.176 244.968 193.23 244.52C193.283 244.072 193.331 243.661 193.374 243.288H189.054V241.976H194.702V247H193.054Z" fill="white"/>
<circle cx="406.891" cy="269" r="15" fill="url(#paint9_linear)"/>
<path d="M344.782 247.192C343.886 247.192 343.08 247.075 342.366 246.84C341.651 246.605 341.032 246.264 340.51 245.816C339.998 245.357 339.603 244.803 339.326 244.152C339.059 243.491 338.926 242.739 338.926 241.896C338.926 241.053 339.07 240.296 339.358 239.624C339.656 238.952 340.072 238.381 340.606 237.912C341.139 237.432 341.774 237.069 342.51 236.824C343.256 236.568 344.083 236.44 344.99 236.44C346.024 236.44 346.926 236.6 347.694 236.92C348.462 237.24 349.07 237.688 349.518 238.264C349.976 238.829 350.238 239.507 350.302 240.296H348.574C348.435 239.837 348.211 239.443 347.902 239.112C347.592 238.781 347.192 238.525 346.702 238.344C346.222 238.163 345.651 238.072 344.99 238.072C344.126 238.072 343.379 238.232 342.75 238.552C342.131 238.872 341.651 239.32 341.31 239.896C340.979 240.472 340.814 241.139 340.814 241.896C340.814 242.643 340.958 243.293 341.246 243.848C341.544 244.392 341.992 244.813 342.59 245.112C343.187 245.411 343.934 245.56 344.83 245.56C345.523 245.56 346.131 245.459 346.654 245.256C347.176 245.053 347.608 244.771 347.95 244.408C348.302 244.035 348.547 243.603 348.686 243.112L349.502 242.904C349.352 244.28 348.862 245.341 348.03 246.088C347.198 246.824 346.115 247.192 344.782 247.192ZM349.054 247C349.054 246.659 349.07 246.275 349.102 245.848C349.134 245.411 349.176 244.968 349.23 244.52C349.283 244.072 349.331 243.661 349.374 243.288H345.054V241.976H350.702V247H349.054ZM358.584 247.192C357.357 247.192 356.285 246.973 355.368 246.536C354.461 246.099 353.757 245.48 353.256 244.68C352.765 243.88 352.52 242.925 352.52 241.816C352.52 240.707 352.765 239.752 353.256 238.952C353.757 238.141 354.461 237.523 355.368 237.096C356.285 236.659 357.357 236.44 358.584 236.44C359.832 236.44 360.904 236.659 361.8 237.096C362.706 237.523 363.41 238.141 363.912 238.952C364.413 239.752 364.664 240.707 364.664 241.816C364.664 242.925 364.413 243.88 363.912 244.68C363.41 245.48 362.706 246.099 361.8 246.536C360.904 246.973 359.832 247.192 358.584 247.192ZM358.584 245.56C359.394 245.56 360.109 245.427 360.727 245.16C361.357 244.883 361.848 244.467 362.2 243.912C362.562 243.357 362.744 242.659 362.744 241.816C362.744 240.984 362.562 240.291 362.2 239.736C361.848 239.181 361.357 238.765 360.727 238.488C360.109 238.211 359.394 238.072 358.584 238.072C357.784 238.072 357.064 238.211 356.424 238.488C355.794 238.765 355.298 239.181 354.936 239.736C354.573 240.291 354.392 240.984 354.392 241.816C354.392 242.659 354.573 243.357 354.936 243.912C355.298 244.467 355.794 244.883 356.424 245.16C357.064 245.427 357.784 245.56 358.584 245.56ZM369.562 247L365.242 236.632H367.274L370.986 245.896H370.362L374.074 236.632H376.074L371.786 247H369.562ZM379.479 242.6V245.416H386.839V247H377.639V236.632H386.823V238.216H379.479V241.08H385.495V242.6H379.479ZM389.045 247V236.632H395.253C396.032 236.632 396.704 236.744 397.269 236.968C397.834 237.181 398.272 237.517 398.581 237.976C398.89 238.424 399.045 239 399.045 239.704C399.045 240.184 398.965 240.595 398.805 240.936C398.645 241.267 398.421 241.539 398.133 241.752C397.845 241.965 397.509 242.131 397.125 242.248C396.752 242.355 396.346 242.424 395.909 242.456L395.749 242.344C396.432 242.365 397.002 242.435 397.461 242.552C397.92 242.659 398.266 242.861 398.501 243.16C398.736 243.459 398.853 243.901 398.853 244.488V247H396.997V244.584C396.997 244.179 396.928 243.864 396.789 243.64C396.65 243.416 396.405 243.261 396.053 243.176C395.701 243.08 395.205 243.032 394.565 243.032H390.885V247H389.045ZM390.885 241.528H395.253C395.893 241.528 396.378 241.373 396.709 241.064C397.04 240.744 397.205 240.323 397.205 239.8C397.205 239.299 397.04 238.915 396.709 238.648C396.378 238.381 395.893 238.248 395.253 238.248H390.885V241.528ZM410.959 245.08L410.383 245.304V236.632H412.239V247H410.383L402.559 238.6L403.119 238.376V247H401.279V236.632H403.119L410.959 245.08ZM422.108 246.04H421.26L426.812 236.632H428.652V247H426.812V239.256L427.228 239.384L422.7 247H420.684L416.156 239.4L416.572 239.288V247H414.732V236.632H416.572L422.108 246.04ZM432.994 242.6V245.416H440.354V247H431.154V236.632H440.338V238.216H432.994V241.08H439.01V242.6H432.994ZM452.241 245.08L451.665 245.304V236.632H453.521V247H451.665L443.841 238.6L444.401 238.376V247H442.561V236.632H444.401L452.241 245.08ZM455.054 236.632H465.102V238.216H455.054V236.632ZM459.166 238.024H461.006V247H459.166V238.024ZM465.966 243.544H467.79C467.822 243.939 467.977 244.296 468.254 244.616C468.532 244.925 468.894 245.171 469.342 245.352C469.801 245.523 470.324 245.608 470.91 245.608C471.433 245.608 471.865 245.544 472.206 245.416C472.548 245.288 472.804 245.112 472.974 244.888C473.145 244.664 473.23 244.392 473.23 244.072C473.23 243.763 473.129 243.523 472.926 243.352C472.734 243.181 472.43 243.037 472.014 242.92C471.598 242.803 471.07 242.685 470.43 242.568C469.897 242.461 469.385 242.328 468.894 242.168C468.404 242.008 467.961 241.805 467.566 241.56C467.182 241.315 466.878 241.016 466.654 240.664C466.43 240.312 466.318 239.891 466.318 239.4C466.318 238.835 466.473 238.328 466.782 237.88C467.102 237.432 467.572 237.08 468.19 236.824C468.82 236.568 469.588 236.44 470.494 236.44C471.86 236.44 472.9 236.755 473.614 237.384C474.34 238.003 474.692 238.851 474.67 239.928H472.91C472.868 239.256 472.617 238.776 472.158 238.488C471.7 238.189 471.118 238.04 470.414 238.04C469.774 238.04 469.241 238.152 468.814 238.376C468.388 238.589 468.174 238.947 468.174 239.448C468.174 239.651 468.222 239.832 468.318 239.992C468.425 240.141 468.596 240.28 468.83 240.408C469.076 240.525 469.401 240.643 469.806 240.76C470.222 240.867 470.734 240.979 471.342 241.096C471.854 241.192 472.334 241.315 472.782 241.464C473.241 241.603 473.636 241.789 473.966 242.024C474.308 242.248 474.574 242.536 474.766 242.888C474.958 243.24 475.054 243.672 475.054 244.184C475.054 244.771 474.905 245.293 474.606 245.752C474.308 246.2 473.849 246.557 473.23 246.824C472.612 247.08 471.812 247.208 470.83 247.208C470.084 247.208 469.433 247.123 468.878 246.952C468.334 246.771 467.865 246.541 467.47 246.264C467.086 245.976 466.777 245.667 466.542 245.336C466.308 245.005 466.142 244.685 466.046 244.376C465.961 244.056 465.934 243.779 465.966 243.544Z" fill="white"/>
<circle cx="282" cy="357" r="40" fill="url(#paint10_linear)"/>
<g opacity="0.4" filter="url(#filter0_f)">
<circle cx="282" cy="357" r="40" fill="url(#paint11_linear)"/>
</g>
<g clip-path="url(#clip0)">
<circle cx="282" cy="357" r="39.4808" fill="#171717"/>
<path d="M299.931 356.254L286.176 337.425C285.151 336.021 283.567 335.218 281.829 335.218C280.091 335.218 278.507 336.023 277.483 337.425L263.727 356.254C261.77 358.933 261.77 362.533 263.731 365.218L264.538 366.31L264.54 366.308L271.64 376.088C272.665 377.492 274.249 378.295 275.987 378.295C277.403 378.295 278.718 377.761 279.711 376.802L279.778 376.851L281.847 374.02L283.358 376.087C283.364 376.096 283.371 376.103 283.376 376.11L283.796 376.685L283.836 376.655C284.843 377.703 286.217 378.294 287.703 378.294C289.439 378.294 291.023 377.488 292.052 376.083L297.434 368.669L297.439 368.673L298.331 367.432L299.352 366.027L299.345 366.022L299.929 365.208C301.89 362.533 301.89 358.933 299.931 356.254ZM279.679 339.028C280.187 338.334 280.971 337.936 281.829 337.936C282.689 337.936 283.473 338.334 283.98 339.028L285.988 341.777L281.847 347.446L277.688 341.752L279.679 339.028ZM278.141 374.489L278.139 374.487C277.631 375.181 276.847 375.579 275.989 375.579C275.129 375.579 274.345 375.181 273.84 374.49L266.538 364.434L266.534 364.438L265.924 363.611C264.667 361.891 264.667 359.579 265.924 357.859L276.006 344.058L280.166 349.752L275.414 356.256C273.456 358.935 273.456 362.535 275.414 365.215L280.166 371.719L278.141 374.489ZM281.847 352.054L286.087 357.857C287.344 359.578 287.344 361.889 286.087 363.609L281.847 369.413L277.606 363.609C276.35 361.889 276.35 359.578 277.606 357.857L281.847 352.054ZM289.855 374.487C289.347 375.181 288.563 375.579 287.705 375.579C286.856 375.579 286.08 375.189 285.572 374.51L283.532 371.717L288.284 365.213C290.241 362.533 290.241 358.933 288.284 356.254L283.532 349.75L287.673 344.081L297.738 357.857C298.995 359.578 298.995 361.889 297.733 363.618L296.137 365.838L289.855 374.487Z" fill="url(#paint12_linear)"/>
<path opacity="0.6" d="M280.13 371.706L281.847 374.051L279.236 377.556L277.518 375.278L280.13 371.706Z" fill="url(#paint13_linear)"/>
<path d="M280.153 349.752L281.824 352.074L277.925 357.463L275.787 355.774L280.153 349.752Z" fill="url(#paint14_linear)"/>
<path d="M295.938 350.789L289.832 342.385L289.844 342.373L287.588 339.29C288.312 340.304 288.657 341.118 288.593 341.897C288.535 342.608 288.303 343.159 288.089 343.529L287.687 344.081L287.938 344.44L287.944 344.433L293.802 352.477L295.938 350.789Z" fill="url(#paint15_linear)"/>
<path d="M267.752 350.789L273.858 342.385L273.845 342.373L276.102 339.29C275.378 340.304 275.033 341.118 275.097 341.897C275.155 342.608 275.387 343.159 275.601 343.529L276.003 344.081L275.752 344.44L275.746 344.433L269.888 352.477L267.752 350.789Z" fill="url(#paint16_linear)"/>
</g>
<defs>
<filter id="filter0_f" x="207.352" y="282.352" width="149.297" height="149.297" filterUnits="userSpaceOnUse" color-interpolation-filters="sRGB">
<feFlood flood-opacity="0" result="BackgroundImageFix"/>
<feBlend mode="normal" in="SourceGraphic" in2="BackgroundImageFix" result="shape"/>
<feGaussianBlur stdDeviation="17.3242" result="effect1_foregroundBlur"/>
</filter>
<linearGradient id="paint0_linear" x1="409.284" y1="172.394" x2="430.5" y2="193.611" gradientUnits="userSpaceOnUse">
<stop stop-color="#FF8B71"/>
<stop offset="0.704" stop-color="#C33F50"/>
<stop offset="1" stop-color="#A81E41"/>
</linearGradient>
<linearGradient id="paint1_linear" x1="107.137" y1="112.247" x2="117.986" y2="123.096" gradientUnits="userSpaceOnUse">
<stop stop-color="#FF8B71"/>
<stop offset="0.704" stop-color="#C33F50"/>
<stop offset="1" stop-color="#A81E41"/>
</linearGradient>
<linearGradient id="paint2_linear" x1="100.734" y1="369.141" x2="108.193" y2="376.6" gradientUnits="userSpaceOnUse">
<stop stop-color="#FF8B71"/>
<stop offset="0.704" stop-color="#C33F50"/>
<stop offset="1" stop-color="#A81E41"/>
</linearGradient>
<linearGradient id="paint3_linear" x1="456.767" y1="183.135" x2="464.226" y2="190.594" gradientUnits="userSpaceOnUse">
<stop stop-color="#FF8B71"/>
<stop offset="0.704" stop-color="#C33F50"/>
<stop offset="1" stop-color="#A81E41"/>
</linearGradient>
<linearGradient id="paint4_linear" x1="397.64" y1="379.688" x2="405.099" y2="387.147" gradientUnits="userSpaceOnUse">
<stop stop-color="#FF8B71"/>
<stop offset="0.704" stop-color="#C33F50"/>
<stop offset="1" stop-color="#A81E41"/>
</linearGradient>
<linearGradient id="paint5_linear" x1="67.1752" y1="164.598" x2="74.6342" y2="172.057" gradientUnits="userSpaceOnUse">
<stop stop-color="#FF8B71"/>
<stop offset="0.704" stop-color="#C33F50"/>
<stop offset="1" stop-color="#A81E41"/>
</linearGradient>
<linearGradient id="paint6_linear" x1="143.284" y1="172.394" x2="164.5" y2="193.611" gradientUnits="userSpaceOnUse">
<stop stop-color="#FF8B71"/>
<stop offset="0.704" stop-color="#C33F50"/>
<stop offset="1" stop-color="#A81E41"/>
</linearGradient>
<linearGradient id="paint7_linear" x1="271.284" y1="145.394" x2="292.5" y2="166.611" gradientUnits="userSpaceOnUse">
<stop stop-color="#FF8B71"/>
<stop offset="0.704" stop-color="#C33F50"/>
<stop offset="1" stop-color="#A81E41"/>
</linearGradient>
<linearGradient id="paint8_linear" x1="144.284" y1="258.394" x2="165.5" y2="279.611" gradientUnits="userSpaceOnUse">
<stop stop-color="#FF8B71"/>
<stop offset="0.704" stop-color="#C33F50"/>
<stop offset="1" stop-color="#A81E41"/>
</linearGradient>
<linearGradient id="paint9_linear" x1="396.284" y1="258.394" x2="417.5" y2="279.611" gradientUnits="userSpaceOnUse">
<stop stop-color="#FF8B71"/>
<stop offset="0.704" stop-color="#C33F50"/>
<stop offset="1" stop-color="#A81E41"/>
</linearGradient>
<linearGradient id="paint10_linear" x1="256.765" y1="387.888" x2="317.306" y2="338.432" gradientUnits="userSpaceOnUse">
<stop stop-color="#FF8506"/>
<stop offset="0.5805" stop-color="#FD3947"/>
<stop offset="1" stop-color="#FB0078"/>
</linearGradient>
<linearGradient id="paint11_linear" x1="256.765" y1="387.888" x2="317.306" y2="338.432" gradientUnits="userSpaceOnUse">
<stop stop-color="#FF8506"/>
<stop offset="0.5805" stop-color="#FD3947"/>
<stop offset="1" stop-color="#FB0078"/>
</linearGradient>
<linearGradient id="paint12_linear" x1="269.484" y1="373.389" x2="301.327" y2="349.754" gradientUnits="userSpaceOnUse">
<stop stop-color="#FF8506"/>
<stop offset="0.5805" stop-color="#FD3947"/>
<stop offset="1" stop-color="#FB0078"/>
</linearGradient>
<linearGradient id="paint13_linear" x1="278.47" y1="376.408" x2="281.975" y2="371.368" gradientUnits="userSpaceOnUse">
<stop stop-color="#FF7E0D" stop-opacity="0"/>
<stop offset="0.0133" stop-color="#F97910" stop-opacity="0.0192"/>
<stop offset="0.1144" stop-color="#D25427" stop-opacity="0.1659"/>
<stop offset="0.219" stop-color="#B1363A" stop-opacity="0.3175"/>
<stop offset="0.3263" stop-color="#981E48" stop-opacity="0.4731"/>
<stop offset="0.4375" stop-color="#860D53" stop-opacity="0.6344"/>
<stop offset="0.5551" stop-color="#7B0359" stop-opacity="0.8048"/>
<stop offset="0.6897" stop-color="#78005B"/>
</linearGradient>
<linearGradient id="paint14_linear" x1="276.33" y1="356.316" x2="281.524" y2="351.122" gradientUnits="userSpaceOnUse">
<stop stop-color="#FF4630" stop-opacity="0"/>
<stop offset="0.5722" stop-color="#B31F48" stop-opacity="0.5722"/>
<stop offset="1" stop-color="#78005B"/>
</linearGradient>
<linearGradient id="paint15_linear" x1="294.323" y1="350.979" x2="287.943" y2="341.983" gradientUnits="userSpaceOnUse">
<stop stop-color="#FB126A" stop-opacity="0"/>
<stop offset="0.1389" stop-color="#F41169" stop-opacity="0.1389"/>
<stop offset="0.3365" stop-color="#E20F67" stop-opacity="0.3365"/>
<stop offset="0.5694" stop-color="#C30A64" stop-opacity="0.5694"/>
<stop offset="0.827" stop-color="#99045F" stop-opacity="0.827"/>
<stop offset="1" stop-color="#78005B"/>
</linearGradient>
<linearGradient id="paint16_linear" x1="269.367" y1="350.979" x2="275.747" y2="341.983" gradientUnits="userSpaceOnUse">
<stop stop-color="#FB126A" stop-opacity="0"/>
<stop offset="0.1389" stop-color="#F41169" stop-opacity="0.1389"/>
<stop offset="0.3365" stop-color="#E20F67" stop-opacity="0.3365"/>
<stop offset="0.5694" stop-color="#C30A64" stop-opacity="0.5694"/>
<stop offset="0.827" stop-color="#99045F" stop-opacity="0.827"/>
<stop offset="1" stop-color="#78005B"/>
</linearGradient>
<clipPath id="clip0">
<rect width="78.9616" height="78.9616" fill="white" transform="translate(242.52 317.52)"/>
</clipPath>
</defs>
</svg>
