<svg width="1762" height="2813" viewBox="0 0 1762 2813" fill="none" xmlns="http://www.w3.org/2000/svg">
<circle r="2.16398" transform="matrix(-1 0 0 1 1438.77 293.764)" fill="white"/>
<circle r="2.16398" transform="matrix(-1 0 0 1 252.041 2.16398)" fill="white"/>
<circle r="2.16398" transform="matrix(-1 0 0 1 1636.99 481.485)" fill="white"/>
<circle r="2.16398" transform="matrix(-1 0 0 1 311.965 132.964)" fill="white"/>
<circle r="2.16398" transform="matrix(-1 0 0 1 237.414 621.063)" fill="white"/>
<circle r="2.16398" transform="matrix(-1 0 0 1 1362.16 743.328)" fill="white"/>
<circle r="2.16398" transform="matrix(-1 0 0 1 911.496 743.328)" fill="white"/>
<circle r="2.16398" transform="matrix(-1 0 0 1 1177.14 151.478)" fill="white"/>
<circle r="2.16398" transform="matrix(-1 0 0 1 740.998 332.688)" fill="white"/>
<circle r="2.16398" transform="matrix(-1 0 0 1 290.33 332.688)" fill="white"/>
<circle r="2.16398" transform="matrix(-1 0 0 1 1084.09 270.497)" fill="white"/>
<circle r="2.16398" transform="matrix(-1 0 0 1 633.424 270.497)" fill="white"/>
<rect width="1.63674" height="1.63674" rx="0.186267" transform="matrix(0.910334 -0.413875 0.413846 0.910347 1334.03 314.054)" fill="white"/>
<rect width="3.28328" height="3.28328" rx="0.37365" transform="matrix(0.910346 -0.413848 0.413873 0.910335 1362.2 625.359)" fill="white"/>
<rect width="3.28328" height="3.28328" rx="0.37365" transform="matrix(0.910345 -0.413851 0.41387 0.910336 559.85 640.814)" fill="white"/>
<rect width="3.28328" height="3.28328" rx="0.37365" transform="matrix(0.910346 -0.413848 0.413873 0.910335 1591.54 818.261)" fill="white"/>
<rect width="3.28328" height="3.28328" rx="0.37365" transform="matrix(0.910345 -0.413851 0.41387 0.910336 605.85 111.722)" fill="white"/>
<path d="M259.034 768.621C259.19 768.868 259.02 769.192 258.728 769.203L256.031 769.308C255.739 769.319 255.544 769.01 255.681 768.751L256.938 766.364C257.074 766.105 257.439 766.091 257.595 766.338L259.034 768.621Z" fill="white"/>
<path d="M1625.83 5.9514C1626.09 5.83118 1626.39 6.04454 1626.36 6.33546L1626.09 9.02046C1626.06 9.31137 1625.73 9.46166 1625.49 9.29097L1623.3 7.71558C1623.06 7.54489 1623.1 7.18125 1623.37 7.06102L1625.83 5.9514Z" fill="white"/>
<path d="M1567.4 344.614C1567.67 344.494 1567.96 344.707 1567.93 344.998L1567.66 347.683C1567.64 347.974 1567.3 348.124 1567.06 347.954L1564.87 346.378C1564.64 346.208 1564.67 345.844 1564.94 345.724L1567.4 344.614Z" fill="white"/>
<path d="M1180.4 458.421C1180.49 458.592 1180.46 458.801 1180.33 458.941L1178.5 460.838C1178.37 460.977 1178.16 461.014 1177.99 460.93L1175.62 459.785C1175.45 459.7 1175.35 459.514 1175.37 459.322L1175.73 456.718C1175.76 456.526 1175.91 456.373 1176.1 456.339L1178.68 455.875C1178.87 455.841 1179.06 455.933 1179.16 456.104L1180.4 458.421Z" fill="white"/>
<path d="M539.129 436.361C539.221 436.531 539.192 436.741 539.058 436.881L537.237 438.777C537.103 438.917 536.895 438.954 536.721 438.87L534.354 437.724C534.18 437.64 534.08 437.453 534.107 437.262L534.465 434.657C534.491 434.466 534.638 434.313 534.828 434.279L537.416 433.815C537.606 433.781 537.797 433.873 537.888 434.043L539.129 436.361Z" fill="white"/>
<path d="M1513.43 53.5643C1513.62 53.5633 1513.79 53.687 1513.85 53.8705L1514.68 56.3669C1514.74 56.5504 1514.67 56.7522 1514.52 56.8666L1512.4 58.4223C1512.24 58.5367 1512.03 58.5377 1511.87 58.4249L1509.74 56.89C1509.58 56.7772 1509.51 56.5761 1509.57 56.3919L1510.37 53.8876C1510.43 53.7035 1510.6 53.5781 1510.8 53.5772L1513.43 53.5643Z" fill="white"/>
<path d="M1436.25 447.474C1436.32 447.546 1436.32 447.651 1436.28 447.733L1435.6 448.848C1435.55 448.93 1435.45 448.97 1435.36 448.948L1434.09 448.65C1434 448.628 1433.93 448.548 1433.92 448.452L1433.81 447.153C1433.8 447.057 1433.86 446.967 1433.95 446.93L1435.15 446.426C1435.24 446.389 1435.34 446.413 1435.4 446.486L1436.25 447.474Z" fill="white"/>
<path d="M1313.26 172.583C1313.45 172.582 1313.62 172.706 1313.68 172.89L1314.51 175.386C1314.57 175.57 1314.5 175.771 1314.35 175.886L1312.23 177.441C1312.07 177.556 1311.86 177.557 1311.7 177.444L1309.57 175.909C1309.41 175.796 1309.35 175.595 1309.41 175.411L1310.21 172.907C1310.26 172.723 1310.44 172.597 1310.63 172.596L1313.26 172.583Z" fill="white"/>
<path d="M1487.86 535.068C1487.94 535.185 1487.93 535.338 1487.84 535.446L1486.64 536.918C1486.55 537.026 1486.4 537.065 1486.27 537.014L1484.5 536.325C1484.37 536.275 1484.29 536.146 1484.3 536.007L1484.4 534.11C1484.41 533.97 1484.51 533.852 1484.64 533.816L1486.48 533.333C1486.62 533.297 1486.76 533.353 1486.83 533.47L1487.86 535.068Z" fill="white"/>
<path d="M1505.85 644.331C1506.04 644.33 1506.21 644.453 1506.28 644.637L1507.1 647.133C1507.16 647.317 1507.1 647.519 1506.94 647.633L1504.82 649.189C1504.67 649.303 1504.45 649.304 1504.3 649.191L1502.16 647.656C1502.01 647.543 1501.94 647.342 1502 647.158L1502.8 644.654C1502.86 644.47 1503.03 644.344 1503.22 644.343L1505.85 644.331Z" fill="white"/>
<path d="M1251.59 754.694C1251.78 754.693 1251.95 754.817 1252.01 755.001L1252.84 757.497C1252.9 757.681 1252.83 757.882 1252.68 757.997L1250.56 759.552C1250.4 759.667 1250.19 759.668 1250.03 759.555L1247.9 758.02C1247.74 757.907 1247.67 757.706 1247.73 757.522L1248.53 755.018C1248.59 754.833 1248.76 754.708 1248.96 754.707L1251.59 754.694Z" fill="white"/>
<path d="M800.918 754.694C801.111 754.693 801.283 754.817 801.344 755.001L802.168 757.497C802.229 757.681 802.165 757.882 802.009 757.997L799.889 759.552C799.734 759.667 799.522 759.668 799.365 759.555L797.23 758.02C797.074 757.907 797.007 757.706 797.066 757.522L797.866 755.018C797.925 754.833 798.096 754.708 798.289 754.707L800.918 754.694Z" fill="white"/>
<circle cx="881" cy="655" r="100" fill="url(#paint0_linear)"/>
<g opacity="0.4" filter="url(#filter0_f)">
<circle cx="881" cy="655" r="100" fill="url(#paint1_linear)"/>
</g>
<g clip-path="url(#clip0)">
<circle cx="880.999" cy="655.001" r="98.702" fill="#171717"/>
<path d="M925.827 653.135L891.439 606.062C888.877 602.553 884.917 600.544 880.572 600.544C876.227 600.544 872.267 602.558 869.705 606.062L835.318 653.135C830.424 659.834 830.424 668.833 835.326 675.545L837.344 678.275L837.348 678.271L855.1 702.721C857.662 706.23 861.622 708.239 865.967 708.239C869.506 708.239 872.794 706.902 875.276 704.504L875.444 704.628L880.616 697.549L884.395 702.717C884.408 702.739 884.426 702.757 884.439 702.774L885.488 704.212L885.59 704.137C888.107 706.756 891.541 708.234 895.257 708.234C899.598 708.234 903.558 706.221 906.128 702.708L919.584 684.173L919.597 684.182L921.827 681.081L924.38 677.567L924.362 677.554L925.822 675.519C930.725 668.833 930.725 659.834 925.827 653.135ZM875.196 610.071C876.466 608.336 878.426 607.341 880.572 607.341C882.722 607.341 884.682 608.336 885.948 610.071L890.97 616.942L880.616 631.114L870.219 616.88L875.196 610.071ZM871.351 698.721L871.347 698.717C870.077 700.451 868.117 701.447 865.971 701.447C863.821 701.447 861.861 700.451 860.6 698.726L842.344 673.585L842.335 673.594L840.808 671.528C837.667 667.227 837.667 661.449 840.808 657.148L866.015 622.645L876.413 636.879L864.533 653.139C859.639 659.838 859.639 668.838 864.533 675.537L876.413 691.797L871.351 698.721ZM880.616 642.635L891.218 657.144C894.359 661.444 894.359 667.223 891.218 671.523L880.616 686.032L870.015 671.523C866.874 667.223 866.874 661.444 870.015 657.144L880.616 642.635ZM900.637 698.717C899.368 700.451 897.408 701.447 895.262 701.447C893.138 701.447 891.2 700.473 889.93 698.774L884.829 691.792L896.708 675.532C901.602 668.833 901.602 659.834 896.708 653.135L884.829 636.875L895.182 622.703L920.345 657.144C923.486 661.444 923.486 667.223 920.331 671.546L916.34 677.094L900.637 698.717Z" fill="url(#paint2_linear)"/>
<path opacity="0.6" d="M876.324 691.766L880.615 697.628L874.089 706.389L869.793 700.695L876.324 691.766Z" fill="url(#paint3_linear)"/>
<path d="M876.386 636.879L880.563 642.684L870.816 656.157L865.471 651.936L876.386 636.879Z" fill="url(#paint4_linear)"/>
<path d="M915.844 639.472L900.579 618.464L900.61 618.433L894.969 610.725C896.778 613.261 897.641 615.296 897.482 617.243C897.336 619.021 896.756 620.397 896.221 621.322L895.217 622.703L895.845 623.601L895.858 623.583L910.503 643.693L915.844 639.472Z" fill="url(#paint5_linear)"/>
<path d="M845.379 639.472L860.644 618.464L860.613 618.433L866.254 610.725C864.444 613.261 863.582 615.296 863.741 617.243C863.887 619.021 864.467 620.397 865.002 621.322L866.006 622.703L865.378 623.601L865.365 623.583L850.719 643.693L845.379 639.472Z" fill="url(#paint6_linear)"/>
</g>
<circle opacity="0.2" cx="881.5" cy="948.5" r="616.15" stroke="white" stroke-opacity="0.88" stroke-width="0.700655" stroke-dasharray="8 4"/>
<circle opacity="0.2" cx="881" cy="1027" r="880.587" stroke="white" stroke-opacity="0.88" stroke-width="0.826941" stroke-dasharray="8 4"/>
<circle cx="1312" cy="255" r="30" fill="url(#paint7_linear)"/>
<path d="M1234.97 203.416H1233.46L1242.39 189.472H1245.58V205H1242.39V193.72L1243.15 193.936L1236.03 205H1232.45L1225.32 193.984L1226.09 193.768V205H1222.9V189.472H1226.09L1234.97 203.416ZM1252.46 198.52V202.336H1264.43V205H1249.27V189.472H1264.41V192.136H1252.46V196H1262.25V198.52H1252.46ZM1267.71 205V189.472H1278.25C1279.45 189.472 1280.49 189.64 1281.37 189.976C1282.26 190.296 1282.96 190.808 1283.46 191.512C1283.95 192.2 1284.2 193.088 1284.2 194.176C1284.2 194.912 1284.07 195.536 1283.82 196.048C1283.56 196.56 1283.2 196.976 1282.74 197.296C1282.29 197.616 1281.77 197.864 1281.18 198.04C1280.58 198.2 1279.95 198.304 1279.28 198.352L1278.94 198.16C1280.06 198.176 1280.98 198.272 1281.7 198.448C1282.42 198.608 1282.96 198.912 1283.31 199.36C1283.68 199.792 1283.86 200.44 1283.86 201.304V205H1280.67V201.52C1280.67 200.928 1280.57 200.472 1280.36 200.152C1280.15 199.816 1279.78 199.584 1279.23 199.456C1278.7 199.328 1277.94 199.264 1276.93 199.264H1270.9V205H1267.71ZM1270.9 196.768H1278.25C1279.14 196.768 1279.82 196.552 1280.29 196.12C1280.77 195.688 1281.01 195.104 1281.01 194.368C1281.01 193.664 1280.77 193.128 1280.29 192.76C1279.82 192.392 1279.14 192.208 1278.25 192.208H1270.9V196.768ZM1305.66 199.408C1305.52 200.656 1305.08 201.72 1304.34 202.6C1303.6 203.48 1302.6 204.152 1301.34 204.616C1300.08 205.08 1298.57 205.312 1296.83 205.312C1295.37 205.312 1294.04 205.144 1292.82 204.808C1291.62 204.472 1290.58 203.968 1289.7 203.296C1288.84 202.624 1288.16 201.792 1287.68 200.8C1287.2 199.792 1286.96 198.616 1286.96 197.272C1286.96 195.928 1287.2 194.752 1287.68 193.744C1288.16 192.736 1288.84 191.896 1289.7 191.224C1290.58 190.536 1291.62 190.024 1292.82 189.688C1294.04 189.336 1295.37 189.16 1296.83 189.16C1298.57 189.16 1300.08 189.4 1301.34 189.88C1302.62 190.36 1303.63 191.048 1304.36 191.944C1305.1 192.824 1305.53 193.896 1305.66 195.16H1302.49C1302.28 194.488 1301.93 193.912 1301.44 193.432C1300.96 192.936 1300.33 192.56 1299.56 192.304C1298.8 192.048 1297.88 191.92 1296.83 191.92C1295.52 191.92 1294.36 192.128 1293.37 192.544C1292.38 192.944 1291.61 193.544 1291.07 194.344C1290.52 195.128 1290.25 196.104 1290.25 197.272C1290.25 198.424 1290.52 199.392 1291.07 200.176C1291.61 200.96 1292.38 201.56 1293.37 201.976C1294.36 202.376 1295.52 202.576 1296.83 202.576C1297.88 202.576 1298.79 202.448 1299.54 202.192C1300.31 201.936 1300.93 201.568 1301.41 201.088C1301.91 200.608 1302.27 200.048 1302.49 199.408H1305.66ZM1311.58 195.88H1323.89V198.544H1311.58V195.88ZM1323.37 189.472H1326.56V205H1323.37V189.472ZM1308.77 189.472H1311.97V205H1308.77V189.472ZM1332.67 201.616V198.952H1342.94V201.616H1332.67ZM1328.8 205L1336.1 189.472H1339.55L1346.92 205H1343.44L1337.06 191.008H1338.59L1332.26 205H1328.8ZM1364.92 201.832L1363.92 202.24V189.472H1367.11V205H1363.92L1351.36 192.736L1352.37 192.328V205H1349.18V189.472H1352.37L1364.92 201.832ZM1369.44 189.472H1385.81V192.136H1369.44V189.472ZM1376.04 191.8H1379.24V205H1376.04V191.8ZM1387.1 199.768H1390.34C1390.41 200.312 1390.65 200.808 1391.09 201.256C1391.53 201.688 1392.12 202.032 1392.84 202.288C1393.56 202.528 1394.37 202.648 1395.26 202.648C1396.08 202.648 1396.75 202.56 1397.28 202.384C1397.81 202.208 1398.2 201.96 1398.45 201.64C1398.71 201.32 1398.84 200.936 1398.84 200.488C1398.84 200.056 1398.68 199.728 1398.36 199.504C1398.04 199.264 1397.53 199.072 1396.85 198.928C1396.16 198.768 1395.25 198.608 1394.13 198.448C1393.25 198.32 1392.42 198.144 1391.64 197.92C1390.85 197.68 1390.16 197.376 1389.55 197.008C1388.96 196.64 1388.49 196.192 1388.13 195.664C1387.8 195.12 1387.63 194.48 1387.63 193.744C1387.63 192.832 1387.89 192.032 1388.4 191.344C1388.93 190.656 1389.7 190.12 1390.73 189.736C1391.75 189.352 1393.01 189.16 1394.49 189.16C1396.73 189.16 1398.45 189.64 1399.65 190.6C1400.87 191.544 1401.46 192.848 1401.43 194.512H1398.31C1398.25 193.568 1397.85 192.888 1397.11 192.472C1396.39 192.056 1395.48 191.848 1394.37 191.848C1393.35 191.848 1392.5 192 1391.83 192.304C1391.17 192.608 1390.85 193.128 1390.85 193.864C1390.85 194.152 1390.93 194.408 1391.09 194.632C1391.25 194.84 1391.52 195.024 1391.9 195.184C1392.29 195.344 1392.81 195.496 1393.46 195.64C1394.12 195.784 1394.93 195.928 1395.91 196.072C1396.82 196.2 1397.65 196.376 1398.38 196.6C1399.13 196.808 1399.77 197.088 1400.3 197.44C1400.85 197.776 1401.26 198.208 1401.55 198.736C1401.84 199.264 1401.98 199.912 1401.98 200.68C1401.98 201.624 1401.73 202.448 1401.24 203.152C1400.76 203.84 1400.01 204.376 1398.98 204.76C1397.97 205.144 1396.66 205.336 1395.05 205.336C1393.89 205.336 1392.88 205.216 1392 204.976C1391.12 204.72 1390.36 204.384 1389.72 203.968C1389.08 203.552 1388.56 203.096 1388.16 202.6C1387.76 202.104 1387.47 201.608 1387.29 201.112C1387.13 200.616 1387.07 200.168 1387.1 199.768Z" fill="white"/>
<circle opacity="0.3" cx="325.5" cy="837.5" r="16.5" fill="url(#paint8_linear)"/>
<circle opacity="0.3" cx="1514.5" cy="224.5" r="16.5" fill="url(#paint9_linear)"/>
<circle opacity="0.3" cx="1254.5" cy="870.5" r="16.5" fill="url(#paint10_linear)"/>
<circle opacity="0.3" cx="220.5" cy="197.5" r="16.5" fill="url(#paint11_linear)"/>
<circle cx="467" cy="255" r="30" fill="url(#paint12_linear)"/>
<path d="M435.91 189.472V192.136H423.958V196.312H433.75V198.808H423.958V205H420.766V189.472H435.91ZM446.998 205.312C444.934 205.312 443.166 204.992 441.694 204.352C440.238 203.696 439.118 202.768 438.334 201.568C437.566 200.368 437.182 198.928 437.182 197.248C437.182 195.552 437.566 194.104 438.334 192.904C439.118 191.704 440.238 190.784 441.694 190.144C443.166 189.488 444.934 189.16 446.998 189.16C449.078 189.16 450.846 189.488 452.302 190.144C453.758 190.784 454.87 191.704 455.638 192.904C456.422 194.104 456.814 195.552 456.814 197.248C456.814 198.928 456.422 200.368 455.638 201.568C454.87 202.768 453.758 203.696 452.302 204.352C450.846 204.992 449.078 205.312 446.998 205.312ZM446.998 202.552C448.278 202.552 449.398 202.36 450.358 201.976C451.334 201.592 452.094 201.008 452.638 200.224C453.198 199.44 453.478 198.448 453.478 197.248C453.478 196.048 453.198 195.056 452.638 194.272C452.094 193.488 451.334 192.904 450.358 192.52C449.398 192.12 448.278 191.92 446.998 191.92C445.734 191.92 444.606 192.12 443.614 192.52C442.622 192.904 441.846 193.488 441.286 194.272C440.726 195.056 440.446 196.048 440.446 197.248C440.446 198.448 440.726 199.44 441.286 200.224C441.846 201.008 442.622 201.592 443.614 201.976C444.606 202.36 445.734 202.552 446.998 202.552ZM459.93 205V189.472H470.466C471.666 189.472 472.706 189.64 473.586 189.976C474.482 190.296 475.178 190.808 475.674 191.512C476.17 192.2 476.418 193.088 476.418 194.176C476.418 194.912 476.29 195.536 476.034 196.048C475.778 196.56 475.418 196.976 474.954 197.296C474.506 197.616 473.986 197.864 473.394 198.04C472.802 198.2 472.17 198.304 471.498 198.352L471.162 198.16C472.282 198.176 473.202 198.272 473.922 198.448C474.642 198.608 475.178 198.912 475.53 199.36C475.898 199.792 476.082 200.44 476.082 201.304V205H472.89V201.52C472.89 200.928 472.786 200.472 472.578 200.152C472.37 199.816 471.994 199.584 471.45 199.456C470.922 199.328 470.154 199.264 469.146 199.264H463.122V205H459.93ZM463.122 196.768H470.466C471.362 196.768 472.042 196.552 472.506 196.12C472.986 195.688 473.226 195.104 473.226 194.368C473.226 193.664 472.986 193.128 472.506 192.76C472.042 192.392 471.362 192.208 470.466 192.208H463.122V196.768ZM482.95 198.52V202.336H494.926V205H479.758V189.472H494.902V192.136H482.95V196H492.742V198.52H482.95ZM510.179 189.472H514.067L506.723 198.04L506.627 198.136L501.179 205H497.291L504.851 196L504.923 195.928L510.179 189.472ZM501.419 189.472L506.603 195.976L506.651 196.048L514.139 205H510.083L504.707 198.04L504.635 197.992L497.531 189.472H501.419Z" fill="white"/>
<circle cx="421" cy="536" r="30" fill="url(#paint13_linear)"/>
<path d="M362.938 486V470.472H371.89C373.97 470.472 375.546 470.824 376.618 471.528C377.706 472.216 378.25 473.248 378.25 474.624C378.25 475.504 378.034 476.2 377.602 476.712C377.17 477.208 376.554 477.576 375.754 477.816C374.97 478.056 374.042 478.208 372.97 478.272L373.066 478.104C373.85 478.12 374.586 478.176 375.274 478.272C375.978 478.368 376.594 478.544 377.122 478.8C377.65 479.056 378.066 479.416 378.37 479.88C378.674 480.328 378.826 480.92 378.826 481.656C378.826 482.616 378.57 483.416 378.058 484.056C377.546 484.68 376.834 485.152 375.922 485.472C375.01 485.792 373.954 485.968 372.754 486H362.938ZM366.13 483.36H372.418C373.426 483.36 374.202 483.2 374.746 482.88C375.29 482.544 375.562 482.016 375.562 481.296C375.562 480.768 375.402 480.384 375.082 480.144C374.762 479.904 374.338 479.76 373.81 479.712C373.282 479.648 372.714 479.616 372.106 479.616H366.13V483.36ZM366.13 477.048H371.77C372.778 477.048 373.554 476.904 374.098 476.616C374.642 476.312 374.914 475.8 374.914 475.08C374.914 474.36 374.642 473.856 374.098 473.568C373.554 473.264 372.834 473.112 371.938 473.112H366.13V477.048ZM383.948 482.616V479.952H394.22V482.616H383.948ZM380.084 486L387.38 470.472H390.836L398.204 486H394.724L388.34 472.008H389.876L383.54 486H380.084ZM416.205 482.832L415.197 483.24V470.472H418.389V486H415.197L402.645 473.736L403.653 473.328V486H400.461V470.472H403.653L416.205 482.832ZM428.742 478.44L428.718 477.096L439.182 486H434.574L425.262 477.84L433.542 470.472H438.078L428.742 478.44ZM422.094 470.472H425.286V486H422.094V470.472ZM441.863 470.472H445.055V486H441.863V470.472ZM464.932 482.832L463.924 483.24V470.472H467.116V486H463.924L451.372 473.736L452.38 473.328V486H449.188V470.472H452.38L464.932 482.832ZM479.749 486.312C478.309 486.312 477.005 486.144 475.837 485.808C474.685 485.472 473.685 484.968 472.837 484.296C472.005 483.624 471.365 482.792 470.917 481.8C470.469 480.808 470.245 479.664 470.245 478.368C470.245 477.056 470.477 475.896 470.941 474.888C471.421 473.864 472.093 473 472.957 472.296C473.837 471.592 474.877 471.064 476.077 470.712C477.293 470.344 478.637 470.16 480.109 470.16C481.853 470.16 483.357 470.408 484.621 470.904C485.885 471.384 486.877 472.064 487.597 472.944C488.333 473.824 488.749 474.872 488.845 476.088H485.773C485.565 475.448 485.221 474.896 484.741 474.432C484.277 473.952 483.661 473.584 482.893 473.328C482.125 473.056 481.197 472.92 480.109 472.92C478.717 472.92 477.525 473.144 476.533 473.592C475.557 474.04 474.813 474.672 474.301 475.488C473.789 476.304 473.533 477.264 473.533 478.368C473.533 479.44 473.757 480.368 474.205 481.152C474.653 481.92 475.341 482.512 476.269 482.928C477.213 483.344 478.413 483.552 479.869 483.552C480.989 483.552 481.973 483.408 482.821 483.12C483.685 482.816 484.405 482.416 484.981 481.92C485.557 481.408 485.965 480.84 486.205 480.216L487.453 479.76C487.245 481.824 486.461 483.432 485.101 484.584C483.757 485.736 481.973 486.312 479.749 486.312ZM486.637 486C486.637 485.504 486.669 484.936 486.733 484.296C486.797 483.64 486.877 482.984 486.973 482.328C487.069 481.656 487.157 481.04 487.237 480.48H480.133V478.44H489.397V486H486.637Z" fill="white"/>
<circle cx="1342" cy="536" r="30" fill="url(#paint14_linear)"/>
<path d="M1241.72 486.312C1240.28 486.312 1238.97 486.144 1237.81 485.808C1236.65 485.472 1235.65 484.968 1234.81 484.296C1233.97 483.624 1233.33 482.792 1232.89 481.8C1232.44 480.808 1232.21 479.664 1232.21 478.368C1232.21 477.056 1232.45 475.896 1232.91 474.888C1233.39 473.864 1234.06 473 1234.93 472.296C1235.81 471.592 1236.85 471.064 1238.05 470.712C1239.26 470.344 1240.61 470.16 1242.08 470.16C1243.82 470.16 1245.33 470.408 1246.59 470.904C1247.85 471.384 1248.85 472.064 1249.57 472.944C1250.3 473.824 1250.72 474.872 1250.81 476.088H1247.74C1247.53 475.448 1247.19 474.896 1246.71 474.432C1246.25 473.952 1245.63 473.584 1244.86 473.328C1244.09 473.056 1243.17 472.92 1242.08 472.92C1240.69 472.92 1239.49 473.144 1238.5 473.592C1237.53 474.04 1236.78 474.672 1236.27 475.488C1235.76 476.304 1235.5 477.264 1235.5 478.368C1235.5 479.44 1235.73 480.368 1236.17 481.152C1236.62 481.92 1237.31 482.512 1238.24 482.928C1239.18 483.344 1240.38 483.552 1241.84 483.552C1242.96 483.552 1243.94 483.408 1244.79 483.12C1245.65 482.816 1246.37 482.416 1246.95 481.92C1247.53 481.408 1247.93 480.84 1248.17 480.216L1249.42 479.76C1249.21 481.824 1248.43 483.432 1247.07 484.584C1245.73 485.736 1243.94 486.312 1241.72 486.312ZM1248.61 486C1248.61 485.504 1248.64 484.936 1248.7 484.296C1248.77 483.64 1248.85 482.984 1248.94 482.328C1249.04 481.656 1249.13 481.04 1249.21 480.48H1242.1V478.44H1251.37V486H1248.61ZM1263.97 486.312C1261.9 486.312 1260.13 485.992 1258.66 485.352C1257.21 484.696 1256.09 483.768 1255.3 482.568C1254.53 481.368 1254.15 479.928 1254.15 478.248C1254.15 476.552 1254.53 475.104 1255.3 473.904C1256.09 472.704 1257.21 471.784 1258.66 471.144C1260.13 470.488 1261.9 470.16 1263.97 470.16C1266.05 470.16 1267.81 470.488 1269.27 471.144C1270.73 471.784 1271.84 472.704 1272.61 473.904C1273.39 475.104 1273.78 476.552 1273.78 478.248C1273.78 479.928 1273.39 481.368 1272.61 482.568C1271.84 483.768 1270.73 484.696 1269.27 485.352C1267.81 485.992 1266.05 486.312 1263.97 486.312ZM1263.97 483.552C1265.25 483.552 1266.37 483.36 1267.33 482.976C1268.3 482.592 1269.06 482.008 1269.61 481.224C1270.17 480.44 1270.45 479.448 1270.45 478.248C1270.45 477.048 1270.17 476.056 1269.61 475.272C1269.06 474.488 1268.3 473.904 1267.33 473.52C1266.37 473.12 1265.25 472.92 1263.97 472.92C1262.7 472.92 1261.57 473.12 1260.58 473.52C1259.59 473.904 1258.81 474.488 1258.25 475.272C1257.69 476.056 1257.41 477.048 1257.41 478.248C1257.41 479.448 1257.69 480.44 1258.25 481.224C1258.81 482.008 1259.59 482.592 1260.58 482.976C1261.57 483.36 1262.7 483.552 1263.97 483.552ZM1281.46 486L1274.59 470.472H1278.12L1284 484.488H1282.9L1288.75 470.472H1292.23L1285.44 486H1281.46ZM1297.76 479.52V483.336H1309.74V486H1294.57V470.472H1309.71V473.136H1297.76V477H1307.55V479.52H1297.76ZM1313.02 486V470.472H1323.55C1324.75 470.472 1325.79 470.64 1326.67 470.976C1327.57 471.296 1328.26 471.808 1328.76 472.512C1329.26 473.2 1329.5 474.088 1329.5 475.176C1329.5 475.912 1329.38 476.536 1329.12 477.048C1328.86 477.56 1328.5 477.976 1328.04 478.296C1327.59 478.616 1327.07 478.864 1326.48 479.04C1325.89 479.2 1325.26 479.304 1324.58 479.352L1324.25 479.16C1325.37 479.176 1326.29 479.272 1327.01 479.448C1327.73 479.608 1328.26 479.912 1328.62 480.36C1328.98 480.792 1329.17 481.44 1329.17 482.304V486H1325.98V482.52C1325.98 481.928 1325.87 481.472 1325.66 481.152C1325.46 480.816 1325.08 480.584 1324.54 480.456C1324.01 480.328 1323.24 480.264 1322.23 480.264H1316.21V486H1313.02ZM1316.21 477.768H1323.55C1324.45 477.768 1325.13 477.552 1325.59 477.12C1326.07 476.688 1326.31 476.104 1326.31 475.368C1326.31 474.664 1326.07 474.128 1325.59 473.76C1325.13 473.392 1324.45 473.208 1323.55 473.208H1316.21V477.768ZM1348.59 482.832L1347.58 483.24V470.472H1350.77V486H1347.58L1335.03 473.736L1336.04 473.328V486H1332.84V470.472H1336.04L1348.59 482.832ZM1366.55 484.416H1365.04L1373.96 470.472H1377.16V486H1373.96V474.72L1374.73 474.936L1367.6 486H1364.03L1356.9 474.984L1357.67 474.768V486H1354.48V470.472H1357.67L1366.55 484.416ZM1384.04 479.52V483.336H1396.01V486H1380.84V470.472H1395.99V473.136H1384.04V477H1393.83V479.52H1384.04ZM1415.03 482.832L1414.03 483.24V470.472H1417.22V486H1414.03L1401.47 473.736L1402.48 473.328V486H1399.29V470.472H1402.48L1415.03 482.832ZM1419.55 470.472H1435.92V473.136H1419.55V470.472ZM1426.15 472.8H1429.35V486H1426.15V472.8ZM1437.21 480.768H1440.45C1440.51 481.312 1440.76 481.808 1441.19 482.256C1441.64 482.688 1442.23 483.032 1442.95 483.288C1443.67 483.528 1444.47 483.648 1445.37 483.648C1446.19 483.648 1446.86 483.56 1447.39 483.384C1447.91 483.208 1448.31 482.96 1448.56 482.64C1448.82 482.32 1448.95 481.936 1448.95 481.488C1448.95 481.056 1448.79 480.728 1448.47 480.504C1448.15 480.264 1447.64 480.072 1446.95 479.928C1446.27 479.768 1445.36 479.608 1444.24 479.448C1443.36 479.32 1442.53 479.144 1441.75 478.92C1440.96 478.68 1440.27 478.376 1439.66 478.008C1439.07 477.64 1438.59 477.192 1438.24 476.664C1437.91 476.12 1437.74 475.48 1437.74 474.744C1437.74 473.832 1437.99 473.032 1438.51 472.344C1439.03 471.656 1439.81 471.12 1440.83 470.736C1441.86 470.352 1443.11 470.16 1444.6 470.16C1446.84 470.16 1448.56 470.64 1449.76 471.6C1450.98 472.544 1451.57 473.848 1451.54 475.512H1448.42C1448.35 474.568 1447.95 473.888 1447.22 473.472C1446.5 473.056 1445.59 472.848 1444.48 472.848C1443.46 472.848 1442.61 473 1441.94 473.304C1441.28 473.608 1440.95 474.128 1440.95 474.864C1440.95 475.152 1441.03 475.408 1441.19 475.632C1441.35 475.84 1441.63 476.024 1442.01 476.184C1442.39 476.344 1442.91 476.496 1443.57 476.64C1444.23 476.784 1445.04 476.928 1446.02 477.072C1446.93 477.2 1447.75 477.376 1448.49 477.6C1449.24 477.808 1449.88 478.088 1450.41 478.44C1450.95 478.776 1451.37 479.208 1451.66 479.736C1451.95 480.264 1452.09 480.912 1452.09 481.68C1452.09 482.624 1451.84 483.448 1451.35 484.152C1450.87 484.84 1450.11 485.376 1449.09 485.76C1448.08 486.144 1446.77 486.336 1445.15 486.336C1444 486.336 1442.99 486.216 1442.11 485.976C1441.23 485.72 1440.47 485.384 1439.83 484.968C1439.19 484.552 1438.67 484.096 1438.27 483.6C1437.87 483.104 1437.58 482.608 1437.4 482.112C1437.24 481.616 1437.18 481.168 1437.21 480.768Z" fill="white"/>
<circle cx="881" cy="148" r="30" fill="url(#paint15_linear)"/>
<path d="M844.958 82.472C846.702 82.472 848.158 82.68 849.326 83.096C850.494 83.512 851.422 84.08 852.11 84.8C852.814 85.504 853.31 86.32 853.598 87.248C853.902 88.176 854.054 89.152 854.054 90.176C854.054 91.2 853.886 92.184 853.55 93.128C853.23 94.072 852.71 94.912 851.99 95.648C851.286 96.368 850.35 96.944 849.182 97.376C848.03 97.792 846.622 98 844.958 98H836.078V82.472H844.958ZM839.27 95.264H844.886C846.038 95.264 846.99 95.128 847.742 94.856C848.51 94.568 849.118 94.184 849.566 93.704C850.014 93.224 850.334 92.68 850.526 92.072C850.718 91.464 850.814 90.832 850.814 90.176C850.814 89.52 850.718 88.896 850.526 88.304C850.334 87.712 850.014 87.184 849.566 86.72C849.118 86.256 848.51 85.888 847.742 85.616C846.99 85.344 846.038 85.208 844.886 85.208H839.27V95.264ZM858.799 94.616V91.952H869.071V94.616H858.799ZM854.935 98L862.231 82.472H865.687L873.055 98H869.575L863.191 84.008H864.727L858.391 98H854.935ZM878.073 92.96V90.416H885.177C886.025 90.416 886.697 90.192 887.193 89.744C887.689 89.28 887.937 88.64 887.937 87.824C887.937 86.976 887.689 86.328 887.193 85.88C886.697 85.432 886.025 85.208 885.177 85.208H878.457V98H875.265V82.472H884.889C885.753 82.472 886.561 82.576 887.313 82.784C888.081 82.992 888.745 83.312 889.305 83.744C889.881 84.176 890.329 84.728 890.649 85.4C890.969 86.072 891.129 86.88 891.129 87.824C891.129 88.752 890.969 89.544 890.649 90.2C890.329 90.856 889.881 91.392 889.305 91.808C888.745 92.208 888.081 92.504 887.313 92.696C886.561 92.872 885.753 92.96 884.889 92.96H878.073ZM896.893 92.96V90.416H903.997C904.845 90.416 905.517 90.192 906.013 89.744C906.509 89.28 906.757 88.64 906.757 87.824C906.757 86.976 906.509 86.328 906.013 85.88C905.517 85.432 904.845 85.208 903.997 85.208H897.277V98H894.085V82.472H903.709C904.573 82.472 905.381 82.576 906.133 82.784C906.901 82.992 907.565 83.312 908.125 83.744C908.701 84.176 909.149 84.728 909.469 85.4C909.789 86.072 909.949 86.88 909.949 87.824C909.949 88.752 909.789 89.544 909.469 90.2C909.149 90.856 908.701 91.392 908.125 91.808C907.565 92.208 906.901 92.504 906.133 92.696C905.381 92.872 904.573 92.96 903.709 92.96H896.893ZM911.921 92.768H915.161C915.225 93.312 915.473 93.808 915.905 94.256C916.353 94.688 916.937 95.032 917.657 95.288C918.377 95.528 919.185 95.648 920.081 95.648C920.897 95.648 921.569 95.56 922.097 95.384C922.625 95.208 923.017 94.96 923.273 94.64C923.529 94.32 923.657 93.936 923.657 93.488C923.657 93.056 923.497 92.728 923.177 92.504C922.857 92.264 922.353 92.072 921.665 91.928C920.977 91.768 920.073 91.608 918.953 91.448C918.073 91.32 917.241 91.144 916.457 90.92C915.673 90.68 914.977 90.376 914.369 90.008C913.777 89.64 913.305 89.192 912.953 88.664C912.617 88.12 912.449 87.48 912.449 86.744C912.449 85.832 912.705 85.032 913.217 84.344C913.745 83.656 914.521 83.12 915.545 82.736C916.569 82.352 917.825 82.16 919.313 82.16C921.553 82.16 923.273 82.64 924.473 83.6C925.689 84.544 926.281 85.848 926.249 87.512H923.129C923.065 86.568 922.665 85.888 921.929 85.472C921.209 85.056 920.297 84.848 919.193 84.848C918.169 84.848 917.321 85 916.649 85.304C915.993 85.608 915.665 86.128 915.665 86.864C915.665 87.152 915.745 87.408 915.905 87.632C916.065 87.84 916.337 88.024 916.721 88.184C917.105 88.344 917.625 88.496 918.281 88.64C918.937 88.784 919.753 88.928 920.729 89.072C921.641 89.2 922.465 89.376 923.201 89.6C923.953 89.808 924.593 90.088 925.121 90.44C925.665 90.776 926.081 91.208 926.369 91.736C926.657 92.264 926.801 92.912 926.801 93.68C926.801 94.624 926.553 95.448 926.057 96.152C925.577 96.84 924.825 97.376 923.801 97.76C922.793 98.144 921.481 98.336 919.865 98.336C918.713 98.336 917.697 98.216 916.817 97.976C915.937 97.72 915.177 97.384 914.537 96.968C913.897 96.552 913.377 96.096 912.977 95.6C912.577 95.104 912.289 94.608 912.113 94.112C911.953 93.616 911.889 93.168 911.921 92.768Z" fill="white"/>
<defs>
<filter id="filter0_f" x="728.015" y="502.015" width="305.969" height="305.969" filterUnits="userSpaceOnUse" color-interpolation-filters="sRGB">
<feFlood flood-opacity="0" result="BackgroundImageFix"/>
<feBlend mode="normal" in="SourceGraphic" in2="BackgroundImageFix" result="shape"/>
<feGaussianBlur stdDeviation="26.4923" result="effect1_foregroundBlur"/>
</filter>
<linearGradient id="paint0_linear" x1="817.913" y1="732.22" x2="969.265" y2="608.581" gradientUnits="userSpaceOnUse">
<stop stop-color="#FF8506"/>
<stop offset="0.5805" stop-color="#FD3947"/>
<stop offset="1" stop-color="#FB0078"/>
</linearGradient>
<linearGradient id="paint1_linear" x1="817.913" y1="732.22" x2="969.265" y2="608.581" gradientUnits="userSpaceOnUse">
<stop stop-color="#FF8506"/>
<stop offset="0.5805" stop-color="#FD3947"/>
<stop offset="1" stop-color="#FB0078"/>
</linearGradient>
<linearGradient id="paint2_linear" x1="849.708" y1="695.972" x2="929.316" y2="636.885" gradientUnits="userSpaceOnUse">
<stop stop-color="#FF8506"/>
<stop offset="0.5805" stop-color="#FD3947"/>
<stop offset="1" stop-color="#FB0078"/>
</linearGradient>
<linearGradient id="paint3_linear" x1="872.175" y1="703.521" x2="880.936" y2="690.92" gradientUnits="userSpaceOnUse">
<stop stop-color="#FF7E0D" stop-opacity="0"/>
<stop offset="0.0133" stop-color="#F97910" stop-opacity="0.0192"/>
<stop offset="0.1144" stop-color="#D25427" stop-opacity="0.1659"/>
<stop offset="0.219" stop-color="#B1363A" stop-opacity="0.3175"/>
<stop offset="0.3263" stop-color="#981E48" stop-opacity="0.4731"/>
<stop offset="0.4375" stop-color="#860D53" stop-opacity="0.6344"/>
<stop offset="0.5551" stop-color="#7B0359" stop-opacity="0.8048"/>
<stop offset="0.6897" stop-color="#78005B"/>
</linearGradient>
<linearGradient id="paint4_linear" x1="866.828" y1="653.29" x2="879.813" y2="640.305" gradientUnits="userSpaceOnUse">
<stop stop-color="#FF4630" stop-opacity="0"/>
<stop offset="0.5722" stop-color="#B31F48" stop-opacity="0.5722"/>
<stop offset="1" stop-color="#78005B"/>
</linearGradient>
<linearGradient id="paint5_linear" x1="911.807" y1="639.948" x2="895.857" y2="617.458" gradientUnits="userSpaceOnUse">
<stop stop-color="#FB126A" stop-opacity="0"/>
<stop offset="0.1389" stop-color="#F41169" stop-opacity="0.1389"/>
<stop offset="0.3365" stop-color="#E20F67" stop-opacity="0.3365"/>
<stop offset="0.5694" stop-color="#C30A64" stop-opacity="0.5694"/>
<stop offset="0.827" stop-color="#99045F" stop-opacity="0.827"/>
<stop offset="1" stop-color="#78005B"/>
</linearGradient>
<linearGradient id="paint6_linear" x1="849.418" y1="639.948" x2="865.368" y2="617.458" gradientUnits="userSpaceOnUse">
<stop stop-color="#FB126A" stop-opacity="0"/>
<stop offset="0.1389" stop-color="#F41169" stop-opacity="0.1389"/>
<stop offset="0.3365" stop-color="#E20F67" stop-opacity="0.3365"/>
<stop offset="0.5694" stop-color="#C30A64" stop-opacity="0.5694"/>
<stop offset="0.827" stop-color="#99045F" stop-opacity="0.827"/>
<stop offset="1" stop-color="#78005B"/>
</linearGradient>
<linearGradient id="paint7_linear" x1="1290.79" y1="233.788" x2="1333.22" y2="276.222" gradientUnits="userSpaceOnUse">
<stop stop-color="#FF8B71"/>
<stop offset="0.704" stop-color="#C33F50"/>
<stop offset="1" stop-color="#A81E41"/>
</linearGradient>
<linearGradient id="paint8_linear" x1="313.832" y1="825.834" x2="337.171" y2="849.172" gradientUnits="userSpaceOnUse">
<stop stop-color="#FF8B71"/>
<stop offset="0.704" stop-color="#C33F50"/>
<stop offset="1" stop-color="#A81E41"/>
</linearGradient>
<linearGradient id="paint9_linear" x1="1502.83" y1="212.834" x2="1526.17" y2="236.172" gradientUnits="userSpaceOnUse">
<stop stop-color="#FF8B71"/>
<stop offset="0.704" stop-color="#C33F50"/>
<stop offset="1" stop-color="#A81E41"/>
</linearGradient>
<linearGradient id="paint10_linear" x1="1242.83" y1="858.834" x2="1266.17" y2="882.172" gradientUnits="userSpaceOnUse">
<stop stop-color="#FF8B71"/>
<stop offset="0.704" stop-color="#C33F50"/>
<stop offset="1" stop-color="#A81E41"/>
</linearGradient>
<linearGradient id="paint11_linear" x1="208.832" y1="185.834" x2="232.171" y2="209.172" gradientUnits="userSpaceOnUse">
<stop stop-color="#FF8B71"/>
<stop offset="0.704" stop-color="#C33F50"/>
<stop offset="1" stop-color="#A81E41"/>
</linearGradient>
<linearGradient id="paint12_linear" x1="445.786" y1="233.788" x2="488.22" y2="276.222" gradientUnits="userSpaceOnUse">
<stop stop-color="#FF8B71"/>
<stop offset="0.704" stop-color="#C33F50"/>
<stop offset="1" stop-color="#A81E41"/>
</linearGradient>
<linearGradient id="paint13_linear" x1="399.786" y1="514.788" x2="442.22" y2="557.222" gradientUnits="userSpaceOnUse">
<stop stop-color="#FF8B71"/>
<stop offset="0.704" stop-color="#C33F50"/>
<stop offset="1" stop-color="#A81E41"/>
</linearGradient>
<linearGradient id="paint14_linear" x1="1320.79" y1="514.788" x2="1363.22" y2="557.222" gradientUnits="userSpaceOnUse">
<stop stop-color="#FF8B71"/>
<stop offset="0.704" stop-color="#C33F50"/>
<stop offset="1" stop-color="#A81E41"/>
</linearGradient>
<linearGradient id="paint15_linear" x1="859.786" y1="126.788" x2="902.22" y2="169.222" gradientUnits="userSpaceOnUse">
<stop stop-color="#FF8B71"/>
<stop offset="0.704" stop-color="#C33F50"/>
<stop offset="1" stop-color="#A81E41"/>
</linearGradient>
<clipPath id="clip0">
<rect width="197.404" height="197.404" fill="white" transform="translate(782.297 556.299)"/>
</clipPath>
</defs>
</svg>
