<svg width="20" height="20" viewBox="0 0 20 20" fill="none" xmlns="http://www.w3.org/2000/svg">
<g clip-path="url(#clip0)">
<path d="M10 20C15.5228 20 20 15.5228 20 10C20 4.47715 15.5228 0 10 0C4.47715 0 0 4.47715 0 10C0 15.5228 4.47715 20 10 20Z" fill="#627EEA"/>
<path d="M10.0542 4.34766V8.52643L13.5861 10.1047L10.0542 4.34766Z" fill="white" fill-opacity="0.602"/>
<path d="M10.0541 4.34766L6.52173 10.1047L10.0541 8.52643V4.34766Z" fill="white"/>
<path d="M10.0542 12.813V15.6524L13.5885 10.7627L10.0542 12.813Z" fill="white" fill-opacity="0.602"/>
<path d="M10.0541 15.6524V12.8125L6.52173 10.7627L10.0541 15.6524Z" fill="white"/>
<path d="M10.0542 12.1554L13.5861 10.1046L10.0542 8.52734V12.1554Z" fill="white" fill-opacity="0.2"/>
<path d="M6.52173 10.1046L10.0541 12.1554V8.52734L6.52173 10.1046Z" fill="white" fill-opacity="0.602"/>
</g>
<defs>
<clipPath id="clip0">
<rect width="20" height="20" fill="white"/>
</clipPath>
</defs>
</svg>
