<svg width="171" height="124" viewBox="0 0 171 124" fill="none" xmlns="http://www.w3.org/2000/svg">
<path d="M0.913818 114.38H52.9138C55.8138 114.38 58.6138 112.88 61.1138 110.08L82.0112 61.6289" stroke="url(#paint0_linear)" stroke-width="16"/>
<path d="M75.614 66.405H127.614C130.514 66.405 133.314 64.905 135.814 62.105L156.711 13.6543" stroke="url(#paint1_linear)" stroke-width="16"/>
<path d="M10.4138 123.88C5.224 123.88 0.913818 119.657 0.913818 114.38C0.913818 109.102 5.13604 104.88 10.4138 104.88C15.6916 104.88 19.9138 109.102 19.9138 114.38C19.9138 119.657 15.6036 123.88 10.4138 123.88Z" fill="url(#paint2_linear)"/>
<path d="M79.6138 75.0906C73.2356 75.0906 68.1138 69.9687 68.1138 63.5906C68.1138 57.2124 73.2356 52.0906 79.6138 52.0906C85.9919 52.0906 91.1138 57.2124 91.1138 63.5906C91.1138 69.9687 85.9919 75.0906 79.6138 75.0906Z" fill="url(#paint3_linear)"/>
<path d="M155.314 30.6797C147.038 30.6797 140.314 23.9556 140.314 15.6797C140.314 7.40383 147.038 0.679688 155.314 0.679688C163.59 0.679688 170.314 7.40383 170.314 15.6797C170.314 23.9556 163.719 30.6797 155.314 30.6797Z" fill="url(#paint4_linear)"/>
<defs>
<linearGradient id="paint0_linear" x1="0.869418" y1="90.1729" x2="94.6991" y2="90.1729" gradientUnits="userSpaceOnUse">
<stop stop-color="#F18973" stop-opacity="0"/>
<stop offset="0.704" stop-color="#C33F50" stop-opacity="0.704"/>
<stop offset="1" stop-color="#A91E42"/>
</linearGradient>
<linearGradient id="paint1_linear" x1="75.5696" y1="42.1983" x2="169.399" y2="42.1983" gradientUnits="userSpaceOnUse">
<stop stop-color="#F18973" stop-opacity="0"/>
<stop offset="0.704" stop-color="#C33F50" stop-opacity="0.704"/>
<stop offset="1" stop-color="#A91E42"/>
</linearGradient>
<linearGradient id="paint2_linear" x1="17.0648" y1="107.76" x2="3.68474" y2="121.14" gradientUnits="userSpaceOnUse">
<stop stop-color="#F18973"/>
<stop offset="0.704" stop-color="#C33F50"/>
<stop offset="1" stop-color="#A91E42"/>
</linearGradient>
<linearGradient id="paint3_linear" x1="87.7783" y1="55.386" x2="71.4797" y2="71.6844" gradientUnits="userSpaceOnUse">
<stop stop-color="#F18973"/>
<stop offset="0.704" stop-color="#C33F50"/>
<stop offset="1" stop-color="#A91E42"/>
</linearGradient>
<linearGradient id="paint4_linear" x1="165.984" y1="5.07495" x2="144.761" y2="26.2981" gradientUnits="userSpaceOnUse">
<stop stop-color="#F18973"/>
<stop offset="0.704" stop-color="#C33F50"/>
<stop offset="1" stop-color="#A91E42"/>
</linearGradient>
</defs>
</svg>