<svg width="24" height="24" viewBox="0 0 24 24" fill="none" xmlns="http://www.w3.org/2000/svg">
<path d="M10.9993 17V9.36364H12.4858V17H10.9993ZM11.75 8.18537C11.4915 8.18537 11.2694 8.09919 11.0838 7.92685C10.9015 7.75118 10.8104 7.54238 10.8104 7.30043C10.8104 7.05516 10.9015 6.84635 11.0838 6.67401C11.2694 6.49834 11.4915 6.41051 11.75 6.41051C12.0052 6.41051 12.2256 6.49834 12.4112 6.67401C12.5968 6.84635 12.6896 7.05516 12.6896 7.30043C12.6896 7.54238 12.5968 7.75118 12.4112 7.92685C12.2256 8.09919 12.0052 8.18537 11.75 8.18537Z" fill="white"/>
<circle cx="12" cy="12" r="9.5" stroke="white"/>
</svg>
