<svg width="20" height="20" viewBox="0 0 20 20" fill="none" xmlns="http://www.w3.org/2000/svg">
<circle cx="10" cy="10" r="10" fill="#2A2827"/>
<path d="M17.1136 9.01639L13.9304 4.88131C13.6935 4.5731 13.3268 4.39648 12.9248 4.39648C12.5227 4.39648 12.1563 4.5731 11.9191 4.88131L11.5731 5.33106L11.2269 4.88131C10.9897 4.5731 10.6233 4.39648 10.2212 4.39648C9.81914 4.39648 9.45272 4.5731 9.21552 4.88131L8.87348 5.32559L8.53144 4.88106C8.29424 4.5731 7.92756 4.39648 7.5255 4.39648C7.12344 4.39648 6.75702 4.5731 6.51982 4.88131L3.33687 9.01639C2.88397 9.60495 2.88397 10.3955 3.33687 10.9841L6.51982 15.1194C6.75702 15.4273 7.12344 15.6042 7.5255 15.6042C7.92756 15.6042 8.29397 15.4276 8.53118 15.1194L10.2251 12.9186L10.5748 13.3729H10.5745C10.5758 13.3744 10.5771 13.3759 10.5784 13.3776L11.9191 15.1194C12.1563 15.4273 12.5227 15.6042 12.9248 15.6042C13.3268 15.6042 13.6932 15.4276 13.9304 15.1194L17.1134 10.9843C17.5666 10.3957 17.5666 9.60495 17.1136 9.01639ZM9.72347 5.2333C9.84089 5.08081 10.0223 4.9935 10.2212 4.9935C10.4201 4.9935 10.6015 5.08106 10.7189 5.2333L11.1836 5.83703L10.2254 7.08206L9.26296 5.83181L9.72347 5.2333ZM8.02323 14.7671C7.9058 14.9196 7.72443 15.0069 7.5255 15.0069C7.32656 15.0069 7.14519 14.9194 7.02777 14.7671L3.84482 10.6318C3.55389 10.254 3.55389 9.74624 3.84482 9.36838L7.02777 5.2333C7.14519 5.08081 7.32656 4.9935 7.5255 4.9935C7.72443 4.9935 7.9058 5.08106 8.02323 5.2333L8.48374 5.83156L6.03231 9.01639C5.5794 9.60495 5.5794 10.3955 6.03336 10.9853L6.21998 11.2254L6.22024 11.2251L7.86334 13.3729C8.0725 13.6448 8.38283 13.8142 8.72906 13.8502L8.02323 14.7671ZM9.36754 13.0209L9.36701 13.0206C9.24959 13.1731 9.06822 13.2604 8.86928 13.2604C8.67035 13.2604 8.48898 13.1729 8.37208 13.0211L6.68258 10.8127L6.6818 10.8132L6.54052 10.6316C6.24959 10.2537 6.24959 9.746 6.54052 9.36813L8.87348 6.33778L9.83591 7.58803L8.7364 9.01639C8.28349 9.60495 8.28349 10.3955 8.7364 10.9841L9.83591 12.4124L9.36754 13.0209ZM10.2251 8.094L11.2062 9.36863C11.4971 9.74649 11.4971 10.2542 11.2062 10.6321L10.2251 11.9067L9.24409 10.6321C8.95316 10.2542 8.95316 9.74649 9.24409 9.36863L10.2251 8.094ZM11.7144 10.9841C12.1673 10.3955 12.1673 9.60495 11.7144 9.01639L10.6149 7.58803L11.5731 6.343L13.9021 9.36863C14.1931 9.74649 14.1931 10.2542 13.9008 10.6338L13.5279 11.1258L12.0782 13.0206C11.9608 13.1731 11.7794 13.2604 11.5804 13.2604C11.3836 13.2604 11.2041 13.1749 11.0867 13.0254L10.6149 12.4124L11.7144 10.9841ZM16.6057 10.6321L13.4225 14.7671C13.3051 14.9196 13.1237 15.0069 12.9248 15.0069C12.7258 15.0069 12.5445 14.9194 12.427 14.7671L11.7212 13.85C12.0672 13.8137 12.377 13.6443 12.5864 13.3721L13.8319 11.744L13.8332 11.745L14.0374 11.4754L14.2759 11.1637L14.2743 11.1627L14.4096 10.9841C14.8625 10.3955 14.8625 9.60495 14.4096 9.01639L11.9626 5.83703L12.4273 5.2333C12.5447 5.08081 12.7261 4.9935 12.925 4.9935C13.124 4.9935 13.3053 5.08106 13.4228 5.2333L16.6057 9.36863C16.8964 9.74649 16.8964 10.2542 16.6057 10.6321Z" fill="url(#paint0_linear)"/>
<path opacity="0.6" d="M8.86839 13.8577C8.82017 13.8577 8.77247 13.855 8.72555 13.85L8.04199 14.744L8.55728 15.0893L9.80698 13.4609C9.57109 13.7137 9.22983 13.8577 8.86839 13.8577Z" fill="url(#paint1_linear)"/>
<path opacity="0.6" d="M11.5769 13.8569C11.6252 13.8569 11.6729 13.8542 11.7198 13.8492L12.4033 14.7433L11.8881 15.0885L10.6447 13.4619C10.8805 13.7147 11.2155 13.8569 11.5769 13.8569Z" fill="url(#paint2_linear)"/>
<path opacity="0.6" d="M9.83058 12.4082L10.2282 12.9231L9.62379 13.6925L9.22644 13.1925L9.83058 12.4082Z" fill="url(#paint3_linear)"/>
<path d="M8.4831 5.83105L8.87416 6.34125L7.45908 8.18554L6.96423 7.81464L8.4831 5.83105Z" fill="url(#paint4_linear)"/>
<path d="M9.83521 7.58594L10.2221 8.09589L9.31992 9.27947L8.82507 8.90858L9.83521 7.58594Z" fill="url(#paint5_linear)"/>
<path d="M11.1837 5.83594L11.5729 6.3434L10.616 7.58619L10.226 7.07947L11.1837 5.83594Z" fill="url(#paint6_linear)"/>
<defs>
<linearGradient id="paint0_linear" x1="5.29855" y1="14.2352" x2="11.8381" y2="4.95179" gradientUnits="userSpaceOnUse">
<stop stop-color="#FF8506"/>
<stop offset="0.5805" stop-color="#FD3947"/>
<stop offset="1" stop-color="#FB0078"/>
</linearGradient>
<linearGradient id="paint1_linear" x1="9.41117" y1="13.4485" x2="8.41867" y2="14.9284" gradientUnits="userSpaceOnUse">
<stop stop-color="#78005B"/>
<stop offset="0.3483" stop-color="#7A025A" stop-opacity="0.6517"/>
<stop offset="0.51" stop-color="#820955" stop-opacity="0.49"/>
<stop offset="0.6332" stop-color="#8E154E" stop-opacity="0.3668"/>
<stop offset="0.7369" stop-color="#A12643" stop-opacity="0.2631"/>
<stop offset="0.8283" stop-color="#B83C36" stop-opacity="0.1717"/>
<stop offset="0.9111" stop-color="#D65725" stop-opacity="0.0889"/>
<stop offset="0.9857" stop-color="#F87711" stop-opacity="0.0143"/>
<stop offset="1" stop-color="#FF7E0D" stop-opacity="0"/>
</linearGradient>
<linearGradient id="paint2_linear" x1="12.0146" y1="14.7722" x2="11.0811" y2="13.3576" gradientUnits="userSpaceOnUse">
<stop stop-color="#FF7E0D" stop-opacity="0"/>
<stop offset="0.00928743" stop-color="#F97811" stop-opacity="0.0127"/>
<stop offset="0.0651" stop-color="#D65825" stop-opacity="0.0888"/>
<stop offset="0.1269" stop-color="#B93D36" stop-opacity="0.1729"/>
<stop offset="0.1949" stop-color="#A12643" stop-opacity="0.2657"/>
<stop offset="0.272" stop-color="#8F154E" stop-opacity="0.3707"/>
<stop offset="0.3632" stop-color="#820955" stop-opacity="0.495"/>
<stop offset="0.4822" stop-color="#7A025A" stop-opacity="0.6573"/>
<stop offset="0.7336" stop-color="#78005B"/>
</linearGradient>
<linearGradient id="paint3_linear" x1="9.44678" y1="13.4407" x2="10.2016" y2="12.2968" gradientUnits="userSpaceOnUse">
<stop stop-color="#FF7E0D" stop-opacity="0"/>
<stop offset="0.0133" stop-color="#F97910" stop-opacity="0.0192"/>
<stop offset="0.1144" stop-color="#D25427" stop-opacity="0.1659"/>
<stop offset="0.219" stop-color="#B1363A" stop-opacity="0.3175"/>
<stop offset="0.3263" stop-color="#981E48" stop-opacity="0.4731"/>
<stop offset="0.4375" stop-color="#860D53" stop-opacity="0.6344"/>
<stop offset="0.5551" stop-color="#7B0359" stop-opacity="0.8048"/>
<stop offset="0.6897" stop-color="#78005B"/>
</linearGradient>
<linearGradient id="paint4_linear" x1="7.04295" y1="7.88916" x2="8.75311" y2="6.08727" gradientUnits="userSpaceOnUse">
<stop stop-color="#FF4630" stop-opacity="0"/>
<stop offset="0.5722" stop-color="#B31F48" stop-opacity="0.5722"/>
<stop offset="1" stop-color="#78005B"/>
</linearGradient>
<linearGradient id="paint5_linear" x1="8.95071" y1="9.02773" x2="10.0898" y2="7.82751" gradientUnits="userSpaceOnUse">
<stop stop-color="#FF4630" stop-opacity="0"/>
<stop offset="0.5722" stop-color="#B31F48" stop-opacity="0.5722"/>
<stop offset="1" stop-color="#78005B"/>
</linearGradient>
<linearGradient id="paint6_linear" x1="10.297" y1="7.28334" x2="11.4398" y2="6.07915" gradientUnits="userSpaceOnUse">
<stop stop-color="#FF4630" stop-opacity="0"/>
<stop offset="0.5722" stop-color="#B31F48" stop-opacity="0.5722"/>
<stop offset="1" stop-color="#78005B"/>
</linearGradient>
</defs>
</svg>
