<svg width="110" height="110" viewBox="0 0 110 110" fill="none" xmlns="http://www.w3.org/2000/svg">
<path d="M54.8328 0.621104C69.3893 0.621105 83.0762 6.29025 93.3693 16.5834C103.665 26.8765 109.334 40.5633 109.334 55.1199C109.334 69.6764 103.665 83.3657 93.3717 93.6588C83.0786 103.952 69.3918 109.621 54.8328 109.621C40.2738 109.621 26.5894 103.952 16.2963 93.6588C6.00313 83.3657 0.333988 69.6789 0.333989 55.1223C0.33399 40.5658 6.00314 26.8789 16.2963 16.5858C26.5894 6.29025 40.2762 0.621103 54.8328 0.621104ZM54.8328 105.918C68.4002 105.918 81.1588 100.634 90.7528 91.0399C100.347 81.4459 105.631 68.6898 105.631 55.1199C105.631 41.55 100.347 28.7938 90.7528 19.1999C81.1588 9.60598 68.4027 4.32176 54.8328 4.32176C41.2629 4.32176 28.5067 9.60597 18.9128 19.1999C9.31886 28.7938 4.03465 41.55 4.03465 55.1199C4.03465 68.6898 9.31886 81.4435 18.9128 91.0399C28.5092 100.634 41.2653 105.918 54.8328 105.918Z" fill="url(#paint0_linear)"/>
<circle cx="54.834" cy="55.1211" r="50.9839" fill="#121212"/>
<g clip-path="url(#clip0)">
<path d="M47.4391 50.7299L54.8341 66.9652L65.8177 60.679H65.8387V48.0995L47.4391 50.7299Z" fill="#2BBDF7"/>
<path d="M80.0246 38.6665L73.1704 36.1139L65.8386 35.5199V48.0994V74.715L76.8363 81.0082L85.6077 63.2881L80.0457 46.2397L80.0246 38.6665Z" fill="#2891F9"/>
<path d="M79.3856 35.5199L76.8363 41.8132V80.9092L87.834 74.616V35.5199H79.3856Z" fill="#2BBDF7"/>
<path d="M76.8363 29.2338L65.8386 35.52L76.8363 41.8132L87.8339 35.52L76.8363 29.2338Z" fill="#2B6DEF"/>
<path d="M54.834 54.3856L43.8363 42.1667L21.834 35.5199V74.616L32.8316 80.9092L35.9849 59.2717L43.8363 60.6788L54.834 66.965V54.3856Z" fill="#2891F9"/>
<path d="M32.8316 29.2338L21.834 35.52L54.834 54.3856L59.8202 51.5431L65.8387 48.0994L32.8316 29.2338Z" fill="#2B6DEF"/>
<path d="M32.8317 54.3856V80.9093L43.8363 74.616V60.6789L32.8317 54.3856Z" fill="#2BBDF7"/>
</g>
<defs>
<linearGradient id="paint0_linear" x1="93.3713" y1="16.5837" x2="16.2965" y2="93.6584" gradientUnits="userSpaceOnUse">
<stop/>
<stop offset="1" stop-color="#515151"/>
</linearGradient>
<clipPath id="clip0">
<rect width="66" height="51.7745" fill="white" transform="translate(21.834 29.2338)"/>
</clipPath>
</defs>
</svg>
