<svg width="24" height="24" viewBox="0 0 24 24" fill="none" xmlns="http://www.w3.org/2000/svg">
<g opacity="0.88">
<path fill-rule="evenodd" clip-rule="evenodd" d="M12 22C17.5228 22 22 17.5228 22 12C22 6.47715 17.5228 2 12 2C6.47715 2 2 6.47715 2 12C2 17.5228 6.47715 22 12 22ZM12.0469 14.0717H10.625V13.9773C10.6349 12.1328 11.1818 11.571 12.1065 11.0043C12.6982 10.6364 13.1605 10.1143 13.1605 9.37358C13.1605 8.49361 12.4744 7.93182 11.6293 7.93182C10.8686 7.93182 10.1179 8.39418 10.0582 9.44815H8.54688C8.61151 7.65838 9.95384 6.67898 11.6293 6.67898C13.4538 6.67898 14.6768 7.77273 14.6768 9.38849C14.6768 10.5071 14.13 11.2628 13.2401 11.7997C12.3949 12.3217 12.0668 12.8338 12.0469 13.9773V14.0717ZM12.37 16.1001C12.37 16.652 11.9176 17.0945 11.3757 17.0945C10.8288 17.0945 10.3814 16.652 10.3814 16.1001C10.3814 15.5582 10.8288 15.1108 11.3757 15.1108C11.9176 15.1108 12.37 15.5582 12.37 16.1001Z" fill="white"/>
</g>
</svg>
