<svg width="32" height="32" viewBox="0 0 32 32" fill="none" xmlns="http://www.w3.org/2000/svg">
<path fill-rule="evenodd" clip-rule="evenodd" d="M3.33706 6.88886C3 7.39331 3 8.09554 3 9.5V13C4.65685 13 6 14.3431 6 16C6 17.6569 4.65685 19 3 19V22.5C3 23.9045 3 24.6067 3.33706 25.1111C3.48298 25.3295 3.67048 25.517 3.88886 25.6629C4.39331 26 5.09554 26 6.5 26H25.5C26.9045 26 27.6067 26 28.1111 25.6629C28.3295 25.517 28.517 25.3295 28.6629 25.1111C29 24.6067 29 23.9045 29 22.5V19C27.3431 19 26 17.6569 26 16C26 14.3431 27.3431 13 29 13V9.5C29 8.09554 29 7.39331 28.6629 6.88886C28.517 6.67048 28.3295 6.48298 28.1111 6.33706C27.6067 6 26.9045 6 25.5 6H6.5C5.09554 6 4.39331 6 3.88886 6.33706C3.67048 6.48298 3.48298 6.67048 3.33706 6.88886ZM17.5716 13.8369L16 9L14.4284 13.8369H9.3426L13.4571 16.8262L11.8855 21.6631L16 18.6738L20.1145 21.6631L18.5429 16.8262L22.6574 13.8369H17.5716Z" fill="#FCB400"/>
</svg>
