<svg width="24" height="24" viewBox="0 0 24 24" fill="none" xmlns="http://www.w3.org/2000/svg">
<g id="Iconly/Light-Outline/Tick Square">
<g id="Tick Square">
<path id="Fill 1" fill-rule="evenodd" clip-rule="evenodd" d="M7.665 3.5C5.135 3.5 3.5 5.233 3.5 7.916V16.084C3.5 18.767 5.135 20.5 7.665 20.5H16.333C18.864 20.5 20.5 18.767 20.5 16.084V7.916C20.5 5.233 18.864 3.5 16.334 3.5H7.665ZM16.333 22H7.665C4.276 22 2 19.622 2 16.084V7.916C2 4.378 4.276 2 7.665 2H16.334C19.723 2 22 4.378 22 7.916V16.084C22 19.622 19.723 22 16.333 22Z" fill="#20C974"/>
<path id="Fill 3" fill-rule="evenodd" clip-rule="evenodd" d="M10.8132 15.1229C10.6222 15.1229 10.4292 15.0499 10.2832 14.9029L7.9092 12.5299C7.6162 12.2369 7.6162 11.7629 7.9092 11.4699C8.2022 11.1769 8.6762 11.1769 8.9692 11.4699L10.8132 13.3119L15.0292 9.09695C15.3222 8.80395 15.7962 8.80395 16.0892 9.09695C16.3822 9.38995 16.3822 9.86395 16.0892 10.1569L11.3432 14.9029C11.1972 15.0499 11.0052 15.1229 10.8132 15.1229Z" fill="#20C974"/>
</g>
</g>
</svg>
