<svg width="32" height="32" viewBox="0 0 32 32" fill="none" xmlns="http://www.w3.org/2000/svg">
<circle cx="16" cy="16" r="16" fill="white"/>
<g clip-path="url(#clip0)">
<path d="M9.58532 7.10938L26.6353 18.751L22.4187 24.9844L5.36865 13.251L9.58532 7.10938Z" fill="url(#paint0_linear)"/>
<path d="M26.6344 18.7496C25.1677 20.858 20.2177 20.033 15.5427 16.733C10.7761 13.5246 8.2094 9.2163 9.5844 7.10796C11.0511 4.99963 16.0011 5.82463 20.6761 9.12463C25.4427 12.2413 28.0094 16.6413 26.6344 18.7496Z" fill="url(#paint1_linear)"/>
<path d="M22.4177 24.8921C20.9511 27.0004 16.0011 26.1754 11.3261 22.8754C6.65106 19.5754 3.99272 15.3587 5.45939 13.1587C6.92606 11.0504 11.8761 11.8754 16.5511 15.1754C21.2261 18.4754 23.7927 22.7837 22.4177 24.8921Z" fill="url(#paint2_linear)"/>
<path d="M26.6331 18.7495L22.4164 24.9829C20.9497 27.0912 15.9997 26.1745 11.3247 22.9662C10.4081 22.3245 9.58306 21.6829 8.75806 20.9495C9.39972 20.8579 10.2247 20.4912 11.0497 19.5745C12.5164 18.0162 13.2497 17.6495 13.8914 17.7412C14.5331 17.7412 15.2664 18.3829 16.4581 19.9412C17.6497 21.4995 19.2997 21.9579 20.3081 21.1329C20.3997 21.0412 20.4914 21.0412 20.5831 20.9495C21.4081 20.3079 21.6831 20.0329 23.2414 17.0995C23.6081 16.3662 24.8914 15.1745 26.6331 15.7245C27.0914 16.9162 27.0914 17.9245 26.6331 18.7495Z" fill="#0E0F23"/>
<path fill-rule="evenodd" clip-rule="evenodd" d="M25.9931 18.3836C24.7098 20.2169 20.2181 19.3003 15.9098 16.2753C11.5098 13.2503 8.94314 9.40027 10.2265 7.56694C11.5098 5.7336 16.0015 6.65027 20.3098 9.67527C24.6181 12.7003 27.1848 16.5503 25.9931 18.3836ZM21.9598 15.6336C21.3181 16.5503 19.1181 16.0919 16.9181 14.6253C14.8098 13.1586 13.5265 11.2336 14.1681 10.3169C14.8098 9.40027 17.0098 9.8586 19.2098 11.3253C21.3181 12.7919 22.6015 14.7169 21.9598 15.6336Z" fill="white"/>
<path d="M9.21799 9.21557C9.21799 9.12391 9.12632 9.03224 9.03465 9.12391C8.94299 9.21557 8.85132 9.21557 8.85132 9.30724C8.94299 9.58224 9.03465 9.76557 9.03465 9.94891C9.03465 10.0406 9.12632 10.1322 9.21799 10.0406C9.30965 10.0406 9.40132 9.94891 9.30965 9.85724C9.30965 9.67391 9.30965 9.49057 9.21799 9.21557Z" fill="white"/>
<path d="M9.67649 10.6833C9.67649 10.5917 9.58482 10.5 9.49316 10.5917C9.40149 10.6833 9.40149 10.6833 9.40149 10.775C10.4098 13.0667 12.5182 15.5417 15.2682 17.375C15.3598 17.4667 15.4515 17.375 15.5432 17.375C15.6348 17.2833 15.5432 17.1917 15.5432 17.1C12.7015 15.2667 10.6848 12.8833 9.67649 10.6833Z" fill="white"/>
<path d="M20.7662 19.667C20.6746 19.667 20.5829 19.667 20.5829 19.7587C20.5829 19.8503 20.5829 19.942 20.6746 19.942C20.9496 20.0337 21.3162 20.1253 21.5912 20.217C21.6829 20.217 21.7746 20.217 21.7746 20.1253C21.7746 20.0337 21.7746 19.942 21.6829 19.942C21.4079 19.8503 21.0412 19.7587 20.7662 19.667Z" fill="white"/>
<path d="M22.4178 20.0322C22.3262 20.0322 22.2345 20.1239 22.2345 20.2156C22.2345 20.3072 22.3262 20.3989 22.4178 20.3989C23.1512 20.4906 23.9762 20.5822 24.6178 20.4906C24.7095 20.4906 24.8012 20.3989 24.8012 20.3072C24.8012 20.2156 24.7095 20.1239 24.6178 20.1239C23.8845 20.2156 23.1512 20.1239 22.4178 20.0322Z" fill="white"/>
</g>
<defs>
<linearGradient id="paint0_linear" x1="12.9258" y1="5.45415" x2="16.3071" y2="17.0648" gradientUnits="userSpaceOnUse">
<stop stop-color="#03B8FF"/>
<stop offset="1" stop-color="#FA52A0"/>
</linearGradient>
<linearGradient id="paint1_linear" x1="15.7094" y1="4.64176" x2="19.0907" y2="16.2525" gradientUnits="userSpaceOnUse">
<stop stop-color="#03B8FF"/>
<stop offset="1" stop-color="#FA52A0"/>
</linearGradient>
<linearGradient id="paint2_linear" x1="10.1491" y1="6.26184" x2="13.5304" y2="17.8726" gradientUnits="userSpaceOnUse">
<stop stop-color="#03B8FF"/>
<stop offset="1" stop-color="#FA52A0"/>
</linearGradient>
<clipPath id="clip0">
<rect width="22" height="22" fill="white" transform="translate(5 5)"/>
</clipPath>
</defs>
</svg>
