<svg width="22" height="22" viewBox="0 0 22 22" fill="none" xmlns="http://www.w3.org/2000/svg">
<g clip-path="url(#clip0)">
<path d="M4.58532 2.10938L21.6353 13.751L17.4187 19.9844L0.368652 8.25104L4.58532 2.10938Z" fill="url(#paint0_linear)"/>
<path d="M21.6344 13.7496C20.1677 15.858 15.2177 15.033 10.5427 11.733C5.77607 8.52463 3.2094 4.2163 4.5844 2.10796C6.05107 -0.000368834 11.0011 0.824631 15.6761 4.12463C20.4427 7.2413 23.0094 11.6413 21.6344 13.7496Z" fill="url(#paint1_linear)"/>
<path d="M17.4178 19.8921C15.9512 22.0004 11.0012 21.1754 6.32618 17.8754C1.65118 14.5754 -1.00716 10.3587 0.459511 8.15875C1.92618 6.05041 6.87618 6.87541 11.5512 10.1754C16.2262 13.4754 18.7928 17.7837 17.4178 19.8921Z" fill="url(#paint2_linear)"/>
<path d="M21.6333 13.7495L17.4166 19.9829C15.95 22.0912 11 21.1745 6.32497 17.9662C5.4083 17.3245 4.5833 16.6829 3.7583 15.9495C4.39997 15.8579 5.22497 15.4912 6.04997 14.5745C7.51663 13.0162 8.24997 12.6495 8.89163 12.7412C9.5333 12.7412 10.2666 13.3829 11.4583 14.9412C12.65 16.4995 14.3 16.9579 15.3083 16.1329C15.4 16.0412 15.4916 16.0412 15.5833 15.9495C16.4083 15.3079 16.6833 15.0329 18.2416 12.0995C18.6083 11.3662 19.8916 10.1745 21.6333 10.7245C22.0916 11.9162 22.0916 12.9245 21.6333 13.7495Z" fill="#0E0F23"/>
<path fill-rule="evenodd" clip-rule="evenodd" d="M20.9935 13.3836C19.7102 15.2169 15.2185 14.3003 10.9102 11.2753C6.51017 8.25027 3.9435 4.40027 5.22684 2.56694C6.51017 0.733604 11.0018 1.65027 15.3102 4.67527C19.6185 7.70027 22.1852 11.5503 20.9935 13.3836ZM16.9602 10.6336C16.3185 11.5503 14.1185 11.0919 11.9185 9.62527C9.81017 8.1586 8.52684 6.2336 9.1685 5.31694C9.81017 4.40027 12.0102 4.8586 14.2102 6.32527C16.3185 7.79194 17.6018 9.71694 16.9602 10.6336Z" fill="white"/>
<path d="M4.21823 4.21557C4.21823 4.12391 4.12656 4.03224 4.0349 4.12391C3.94323 4.21557 3.85156 4.21557 3.85156 4.30724C3.94323 4.58224 4.0349 4.76557 4.0349 4.94891C4.0349 5.04057 4.12656 5.13224 4.21823 5.04057C4.3099 5.04057 4.40156 4.94891 4.3099 4.85724C4.3099 4.67391 4.3099 4.49057 4.21823 4.21557Z" fill="white"/>
<path d="M4.67637 5.68335C4.67637 5.59168 4.5847 5.50001 4.49303 5.59168C4.40137 5.68335 4.40137 5.68335 4.40137 5.77501C5.4097 8.06668 7.51803 10.5417 10.268 12.375C10.3597 12.4667 10.4514 12.375 10.543 12.375C10.6347 12.2833 10.543 12.1917 10.543 12.1C7.70137 10.2667 5.6847 7.88335 4.67637 5.68335Z" fill="white"/>
<path d="M15.7663 14.667C15.6747 14.667 15.583 14.667 15.583 14.7587C15.583 14.8503 15.583 14.942 15.6747 14.942C15.9497 15.0337 16.3163 15.1253 16.5913 15.217C16.683 15.217 16.7747 15.217 16.7747 15.1253C16.7747 15.0337 16.7747 14.942 16.683 14.942C16.408 14.8503 16.0413 14.7587 15.7663 14.667Z" fill="white"/>
<path d="M17.4177 15.0322C17.326 15.0322 17.2344 15.1239 17.2344 15.2156C17.2344 15.3072 17.326 15.3989 17.4177 15.3989C18.151 15.4906 18.976 15.5822 19.6177 15.4906C19.7094 15.4906 19.801 15.3989 19.801 15.3072C19.801 15.2156 19.7094 15.1239 19.6177 15.1239C18.8844 15.2156 18.151 15.1239 17.4177 15.0322Z" fill="white"/>
</g>
<defs>
<linearGradient id="paint0_linear" x1="7.92584" y1="0.45415" x2="11.3071" y2="12.0648" gradientUnits="userSpaceOnUse">
<stop stop-color="#03B8FF"/>
<stop offset="1" stop-color="#FA52A0"/>
</linearGradient>
<linearGradient id="paint1_linear" x1="10.7094" y1="-0.358236" x2="14.0907" y2="11.2525" gradientUnits="userSpaceOnUse">
<stop stop-color="#03B8FF"/>
<stop offset="1" stop-color="#FA52A0"/>
</linearGradient>
<linearGradient id="paint2_linear" x1="5.14918" y1="1.26184" x2="8.53049" y2="12.8726" gradientUnits="userSpaceOnUse">
<stop stop-color="#03B8FF"/>
<stop offset="1" stop-color="#FA52A0"/>
</linearGradient>
<clipPath id="clip0">
<rect width="22" height="22" fill="white"/>
</clipPath>
</defs>
</svg>
