<svg width="16" height="16" viewBox="0 0 16 16" fill="none" xmlns="http://www.w3.org/2000/svg">
<path fill-rule="evenodd" clip-rule="evenodd" d="M1.67292 3.43792C1.5 3.69236 1.5 4.04824 1.5 4.76V6.5C2.32843 6.5 3 7.17157 3 8C3 8.82843 2.32843 9.5 1.5 9.5V11.24C1.5 11.9518 1.5 12.3076 1.67292 12.5621C1.74376 12.6663 1.83367 12.7562 1.93792 12.8271C2.19236 13 2.54824 13 3.26 13H12.74C13.4518 13 13.8076 13 14.0621 12.8271C14.1663 12.7562 14.2562 12.6663 14.3271 12.5621C14.5 12.3076 14.5 11.9518 14.5 11.24V9.5C13.6716 9.5 13 8.82843 13 8C13 7.17157 13.6716 6.5 14.5 6.5V4.76C14.5 4.04824 14.5 3.69236 14.3271 3.43792C14.2562 3.33367 14.1663 3.24376 14.0621 3.17292C13.8076 3 13.4518 3 12.74 3H3.26C2.54824 3 2.19236 3 1.93792 3.17292C1.83367 3.24376 1.74376 3.33367 1.67292 3.43792ZM8.7858 6.91844L8 4.5L7.2142 6.91844H4.6713L6.72855 8.41312L5.94275 10.8316L8 9.33688L10.0572 10.8316L9.27145 8.41312L11.3287 6.91844H8.7858Z" fill="#20C974"/>
</svg>
