<svg width="32" height="32" viewBox="0 0 32 32" fill="none" xmlns="http://www.w3.org/2000/svg">
<circle cx="16" cy="16" r="16" fill="white"/>
<g clip-path="url(#clip0)">
<path d="M13.4918 10.0067C13.2534 9.97262 13.242 9.96127 13.3555 9.94992C13.5712 9.91586 14.0707 9.96127 14.4226 10.0407C15.24 10.2337 15.9778 10.7332 16.7611 11.6073L16.9655 11.8457L17.2606 11.8003C18.5207 11.5959 19.8148 11.7549 20.8932 12.2544C21.1884 12.3906 21.6538 12.663 21.7106 12.7311C21.7333 12.7538 21.7673 12.9014 21.79 13.049C21.8695 13.5825 21.8354 13.9799 21.6651 14.2864C21.5743 14.4566 21.5743 14.502 21.6311 14.6496C21.6765 14.7631 21.8127 14.8426 21.9376 14.8426C22.21 14.8426 22.4938 14.4112 22.6301 13.8096L22.6868 13.5712L22.789 13.6847C23.3679 14.3318 23.822 15.2286 23.8901 15.8643L23.9128 16.0346L23.8107 15.887C23.6404 15.6259 23.4815 15.4556 23.2658 15.308C22.8798 15.0469 22.4711 14.9675 21.3927 14.9107C20.4164 14.854 19.8602 14.7745 19.3153 14.5929C18.3844 14.2864 17.9077 13.889 16.8065 12.4246C16.3184 11.7776 16.0119 11.4257 15.7054 11.1305C15.0356 10.4835 14.3659 10.1429 13.4918 10.0067Z" fill="#FF007A"/>
<path d="M21.9494 11.4485C21.9721 11.0172 22.0289 10.7334 22.1538 10.4723C22.1992 10.3701 22.2446 10.2793 22.2559 10.2793C22.2673 10.2793 22.2446 10.3588 22.2105 10.4496C22.1197 10.6993 22.1084 11.0512 22.1651 11.4485C22.2446 11.9594 22.2787 12.0275 22.8236 12.5837C23.0733 12.8448 23.3684 13.174 23.482 13.3103L23.675 13.56L23.482 13.3784C23.2436 13.1513 22.6987 12.72 22.5738 12.6632C22.4943 12.6178 22.483 12.6178 22.4262 12.6746C22.3808 12.72 22.3695 12.7881 22.3695 13.1173C22.3581 13.6281 22.29 13.946 22.1197 14.2752C22.0289 14.4455 22.0176 14.4114 22.097 14.2184C22.1538 14.0708 22.1651 14.0027 22.1651 13.5146C22.1651 12.527 22.0516 12.2886 21.3591 11.8913C21.1889 11.7891 20.8937 11.6415 20.7234 11.5621C20.5418 11.4826 20.4056 11.4145 20.4169 11.4145C20.4396 11.3918 21.1094 11.5848 21.3705 11.6983C21.7678 11.8572 21.8359 11.8686 21.8813 11.8572C21.9154 11.8232 21.9381 11.7323 21.9494 11.4485Z" fill="#FF007A"/>
<path d="M13.9576 13.14C13.4809 12.4816 13.1744 11.4599 13.2425 10.6993L13.2652 10.4609L13.3787 10.4836C13.583 10.5177 13.9349 10.6539 14.1052 10.7561C14.5593 11.0285 14.7636 11.4031 14.9566 12.334C15.0134 12.6064 15.0928 12.9243 15.1269 13.0265C15.1837 13.1967 15.3993 13.5941 15.581 13.8438C15.7058 14.0254 15.6264 14.1163 15.3426 14.0935C14.9112 14.0481 14.3323 13.6508 13.9576 13.14Z" fill="#FF007A"/>
<path d="M21.3713 18.0776C19.1236 17.1694 18.329 16.3861 18.329 15.058C18.329 14.865 18.3403 14.7061 18.3403 14.7061C18.3517 14.7061 18.4311 14.7742 18.5333 14.8536C18.9874 15.2169 19.4982 15.3758 20.9172 15.5802C21.7459 15.705 22.2227 15.7958 22.6541 15.9434C24.0277 16.3975 24.8791 17.3283 25.0834 18.5884C25.1402 18.9517 25.1061 19.6441 25.0153 20.0074C24.9358 20.2912 24.7088 20.8134 24.652 20.8247C24.6407 20.8247 24.618 20.768 24.618 20.6772C24.5953 20.2004 24.3569 19.7463 23.9595 19.3944C23.4828 18.9857 22.8698 18.6792 21.3713 18.0776Z" fill="#FF007A"/>
<path d="M19.7815 18.4517C19.7588 18.2815 19.7021 18.0658 19.668 17.975L19.6113 17.8047L19.7134 17.9296C19.861 18.0998 19.9745 18.3042 20.0767 18.588C20.1562 18.8037 20.1562 18.8718 20.1562 19.2237C20.1562 19.5642 20.1448 19.6437 20.0767 19.8367C19.9632 20.1432 19.8269 20.3589 19.5999 20.5973C19.1912 21.0173 18.6577 21.2443 17.8971 21.3465C17.7609 21.3578 17.3749 21.3919 17.0344 21.4146C16.183 21.46 15.6154 21.5508 15.1046 21.7325C15.0364 21.7552 14.9683 21.7779 14.957 21.7665C14.9343 21.7438 15.2862 21.5395 15.57 21.4032C15.9673 21.2103 16.376 21.1081 17.2728 20.9492C17.7155 20.8811 18.1696 20.7902 18.2831 20.7448C19.4069 20.3929 19.9632 19.5188 19.7815 18.4517Z" fill="#FF007A"/>
<path d="M20.8146 20.2787C20.5195 19.6316 20.4514 19.0186 20.6103 18.4397C20.633 18.3829 20.6557 18.3262 20.6784 18.3262C20.7011 18.3262 20.7692 18.3602 20.8373 18.4056C20.9736 18.4964 21.2573 18.6554 21.9839 19.0527C22.9034 19.5522 23.4255 19.9381 23.7888 20.3809C24.1067 20.7668 24.2996 21.2095 24.3905 21.7544C24.4472 22.0609 24.4132 22.7988 24.3337 23.1053C24.084 24.0702 23.5164 24.8421 22.6877 25.2849C22.5628 25.353 22.4606 25.3984 22.4493 25.3984C22.4379 25.3984 22.4833 25.2849 22.5515 25.1486C22.8239 24.5697 22.858 24.0135 22.6536 23.3891C22.5288 23.0031 22.2677 22.5377 21.7455 21.7544C21.1211 20.8463 20.9736 20.6079 20.8146 20.2787Z" fill="#FF007A"/>
<path d="M12.3563 23.7527C13.1964 23.0489 14.2294 22.5494 15.1829 22.3905C15.5916 22.3224 16.2727 22.3451 16.6473 22.4473C17.249 22.6062 17.7939 22.9467 18.0777 23.3668C18.3501 23.7754 18.475 24.1273 18.5999 24.9106C18.6453 25.2171 18.702 25.535 18.7134 25.6031C18.8042 26.0117 18.9858 26.3296 19.2129 26.4999C19.5648 26.761 20.1778 26.7723 20.7794 26.5453C20.8816 26.5112 20.9724 26.4772 20.9724 26.4885C20.9951 26.5112 20.6886 26.7156 20.4843 26.8177C20.2005 26.9653 19.9734 27.0107 19.6669 27.0107C19.122 27.0107 18.6566 26.7269 18.282 26.1593C18.2025 26.0458 18.0436 25.7166 17.9074 25.4101C17.5101 24.4906 17.3057 24.2182 16.8403 23.9116C16.4316 23.6506 15.9095 23.5938 15.5121 23.7868C14.99 24.0365 14.8537 24.7063 15.217 25.1149C15.3646 25.2852 15.637 25.4214 15.864 25.4555C16.2841 25.5123 16.6473 25.1831 16.6473 24.763C16.6473 24.4906 16.5452 24.3317 16.2727 24.2068C15.9095 24.0479 15.5121 24.2295 15.5235 24.5814C15.5235 24.729 15.5916 24.8198 15.7392 24.8879C15.83 24.9333 15.83 24.9333 15.7619 24.922C15.4327 24.8539 15.3532 24.4452 15.6143 24.1841C15.9322 23.8662 16.6019 24.0025 16.829 24.4452C16.9198 24.6268 16.9311 24.9901 16.8517 25.2171C16.6587 25.7166 16.1138 25.9777 15.5575 25.8301C15.1829 25.728 15.024 25.6258 14.5699 25.1604C13.7753 24.343 13.4688 24.1841 12.3336 24.0138L12.1179 23.9798L12.3563 23.7527Z" fill="#FF007A"/>
<path fill-rule="evenodd" clip-rule="evenodd" d="M6.38574 5.48813C9.03073 8.70072 13.1061 13.6956 13.3104 13.968C13.4807 14.195 13.4126 14.4107 13.1288 14.5697C12.9698 14.6605 12.6406 14.7513 12.4817 14.7513C12.3001 14.7513 12.0844 14.6605 11.9368 14.5129C11.8347 14.4107 11.3919 13.7637 10.393 12.2085C9.63238 11.0165 8.98533 10.0289 8.97397 10.0175C8.92857 9.99484 8.92857 9.99484 10.3135 12.4696C11.1876 14.0248 11.4714 14.581 11.4714 14.6491C11.4714 14.7967 11.426 14.8762 11.2444 15.0805C10.9379 15.4211 10.8016 15.807 10.6995 16.613C10.5859 17.5098 10.2794 18.1455 9.40535 19.2239C8.89451 19.8597 8.81505 19.9732 8.69018 20.2343C8.53125 20.5521 8.48584 20.7337 8.46314 21.1424C8.44043 21.5738 8.48584 21.8462 8.61071 22.2549C8.72423 22.6182 8.8491 22.8566 9.1556 23.322C9.4167 23.7307 9.57562 24.0372 9.57562 24.1507C9.57562 24.2415 9.59833 24.2415 10.007 24.1507C10.9833 23.9236 11.7892 23.5377 12.232 23.0609C12.5044 22.7657 12.5725 22.6068 12.5725 22.1981C12.5725 21.937 12.5612 21.8803 12.4931 21.7214C12.3795 21.4716 12.1639 21.2673 11.6984 20.9494C11.0854 20.5294 10.8243 20.1889 10.7562 19.7348C10.6995 19.3488 10.7676 19.0877 11.1081 18.3726C11.46 17.6347 11.5509 17.3282 11.6076 16.5789C11.6417 16.1022 11.6984 15.9092 11.8347 15.7616C11.9822 15.6027 12.1071 15.5459 12.459 15.5005C13.038 15.4211 13.4126 15.2735 13.7077 14.9897C13.9688 14.7513 14.0823 14.5129 14.0937 14.161L14.105 13.8999L13.9575 13.741C13.4239 13.128 6.03383 5 5.99977 5C5.98842 5 6.17005 5.21569 6.38574 5.48813ZM9.87077 21.6305C9.99564 21.4149 9.92753 21.1424 9.7232 21.0062C9.53022 20.8813 9.23507 20.9381 9.23507 21.1084C9.23507 21.1538 9.25777 21.1992 9.32588 21.2219C9.42805 21.2786 9.4394 21.3354 9.35994 21.4603C9.28047 21.5851 9.28047 21.6987 9.38264 21.7781C9.54157 21.903 9.75725 21.8349 9.87077 21.6305Z" fill="#FF007A"/>
<path fill-rule="evenodd" clip-rule="evenodd" d="M14.4687 15.6606C14.1962 15.74 13.9351 16.0352 13.8557 16.3303C13.8103 16.512 13.833 16.8412 13.9124 16.9433C14.0373 17.1022 14.1508 17.1477 14.4687 17.1477C15.093 17.1477 15.6266 16.8752 15.6833 16.546C15.7401 16.2736 15.5017 15.899 15.1725 15.7287C15.0022 15.6379 14.6503 15.6038 14.4687 15.6606ZM15.1952 16.2282C15.286 16.0919 15.2519 15.9444 15.0817 15.8422C14.7752 15.6492 14.3097 15.8081 14.3097 16.1033C14.3097 16.2509 14.5481 16.4098 14.7752 16.4098C14.9227 16.4098 15.1271 16.319 15.1952 16.2282Z" fill="#FF007A"/>
</g>
<defs>
<clipPath id="clip0">
<rect width="20" height="22" fill="white" transform="translate(6 5)"/>
</clipPath>
</defs>
</svg>
