<svg width="20" height="22" viewBox="0 0 20 22" fill="none" xmlns="http://www.w3.org/2000/svg">
<g clip-path="url(#clip0)">
<path d="M7.49165 5.00668C7.25326 4.97262 7.24191 4.96127 7.35542 4.94992C7.57111 4.91586 8.07059 4.96127 8.4225 5.04073C9.23984 5.23372 9.97772 5.7332 10.761 6.6073L10.9653 6.84569L11.2605 6.80028C12.5205 6.59595 13.8147 6.75488 14.8931 7.25436C15.1882 7.39058 15.6537 7.66303 15.7104 7.73114C15.7331 7.75385 15.7672 7.90142 15.7899 8.049C15.8694 8.58254 15.8353 8.97986 15.665 9.28636C15.5742 9.45664 15.5742 9.50204 15.631 9.64962C15.6764 9.76314 15.8126 9.8426 15.9375 9.8426C16.2099 9.8426 16.4937 9.41123 16.6299 8.80958L16.6867 8.57119L16.7889 8.6847C17.3678 9.33177 17.8219 10.2286 17.89 10.8643L17.9127 11.0346L17.8105 10.887C17.6403 10.6259 17.4813 10.4556 17.2656 10.308C16.8797 10.0469 16.471 9.96747 15.3926 9.91071C14.4163 9.85395 13.8601 9.77449 13.3152 9.59286C12.3843 9.28636 11.9075 8.88904 10.8064 7.42464C10.3183 6.77758 10.0118 6.42567 9.70527 6.13052C9.03551 5.48346 8.36574 5.1429 7.49165 5.00668Z" fill="white"/>
<path d="M15.9492 6.44855C15.9719 6.01717 16.0287 5.73337 16.1535 5.47228C16.1989 5.37011 16.2444 5.2793 16.2557 5.2793C16.2671 5.2793 16.2444 5.35876 16.2103 5.44958C16.1195 5.69932 16.1081 6.05123 16.1649 6.44855C16.2444 6.95938 16.2784 7.02749 16.8233 7.58374C17.0731 7.84483 17.3682 8.17404 17.4817 8.31026L17.6747 8.56L17.4817 8.37837C17.2433 8.15134 16.6984 7.71996 16.5736 7.6632C16.4941 7.61779 16.4827 7.61779 16.426 7.67455C16.3806 7.71996 16.3692 7.78807 16.3692 8.11728C16.3579 8.62812 16.2898 8.94597 16.1195 9.27518C16.0287 9.44545 16.0173 9.4114 16.0968 9.21842C16.1535 9.07084 16.1649 9.00273 16.1649 8.5146C16.1649 7.52698 16.0514 7.28859 15.3589 6.89127C15.1886 6.7891 14.8935 6.64153 14.7232 6.56206C14.5415 6.4826 14.4053 6.41449 14.4167 6.41449C14.4394 6.39179 15.1091 6.58477 15.3702 6.69829C15.7676 6.85721 15.8357 6.86857 15.8811 6.85722C15.9151 6.82316 15.9378 6.73234 15.9492 6.44855Z" fill="white"/>
<path d="M7.95753 8.13999C7.48075 7.48158 7.17425 6.45991 7.24236 5.69933L7.26506 5.46094L7.37858 5.48364C7.58291 5.5177 7.93482 5.65392 8.1051 5.75609C8.55918 6.02853 8.76351 6.40315 8.9565 7.334C9.01325 7.60645 9.09272 7.9243 9.12677 8.02647C9.18353 8.19675 9.39922 8.59406 9.58085 8.84381C9.70572 9.02544 9.62626 9.11625 9.34246 9.09355C8.91109 9.04814 8.33214 8.65082 7.95753 8.13999Z" fill="white"/>
<path d="M15.3709 13.0776C13.1232 12.1694 12.3286 11.3861 12.3286 10.058C12.3286 9.86498 12.34 9.70605 12.34 9.70605C12.3513 9.70605 12.4308 9.77417 12.5329 9.85363C12.987 10.2169 13.4979 10.3758 14.9169 10.5802C15.7456 10.705 16.2223 10.7958 16.6537 10.9434C18.0273 11.3975 18.8787 12.3283 19.083 13.5884C19.1398 13.9517 19.1057 14.6441 19.0149 15.0074C18.9355 15.2912 18.7084 15.8134 18.6517 15.8247C18.6403 15.8247 18.6176 15.768 18.6176 15.6772C18.5949 15.2004 18.3565 14.7463 17.9592 14.3944C17.4824 13.9857 16.8694 13.6792 15.3709 13.0776Z" fill="white"/>
<path d="M13.7812 13.4517C13.7585 13.2815 13.7017 13.0658 13.6677 12.975L13.6109 12.8047L13.7131 12.9296C13.8606 13.0998 13.9742 13.3042 14.0763 13.588C14.1558 13.8037 14.1558 13.8718 14.1558 14.2237C14.1558 14.5642 14.1444 14.6437 14.0763 14.8367C13.9628 15.1432 13.8266 15.3589 13.5995 15.5973C13.1909 16.0173 12.6573 16.2443 11.8968 16.3465C11.7605 16.3578 11.3746 16.3919 11.034 16.4146C10.1826 16.46 9.61502 16.5508 9.10419 16.7325C9.03607 16.7552 8.96796 16.7779 8.95661 16.7665C8.93391 16.7438 9.28582 16.5395 9.56961 16.4032C9.96693 16.2103 10.3756 16.1081 11.2724 15.9492C11.7151 15.8811 12.1692 15.7902 12.2827 15.7448C13.4066 15.3929 13.9628 14.5188 13.7812 13.4517Z" fill="white"/>
<path d="M14.8141 15.2787C14.519 14.6316 14.4509 14.0186 14.6098 13.4397C14.6325 13.3829 14.6552 13.3262 14.6779 13.3262C14.7006 13.3262 14.7687 13.3602 14.8368 13.4056C14.9731 13.4964 15.2569 13.6554 15.9834 14.0527C16.9029 14.5522 17.4251 14.9381 17.7883 15.3809C18.1062 15.7668 18.2992 16.2095 18.39 16.7544C18.4467 17.0609 18.4127 17.7988 18.3332 18.1053C18.0835 19.0702 17.5159 19.8421 16.6872 20.2849C16.5623 20.353 16.4602 20.3984 16.4488 20.3984C16.4374 20.3984 16.4829 20.2849 16.551 20.1486C16.8234 19.5697 16.8575 19.0135 16.6531 18.3891C16.5283 18.0031 16.2672 17.5377 15.745 16.7544C15.1206 15.8463 14.9731 15.6079 14.8141 15.2787Z" fill="white"/>
<path d="M6.35607 18.7527C7.19611 18.0489 8.22913 17.5494 9.18269 17.3905C9.59136 17.3224 10.2725 17.3451 10.6471 17.4473C11.2487 17.6062 11.7936 17.9467 12.0774 18.3668C12.3499 18.7754 12.4747 19.1273 12.5996 19.9106C12.645 20.2171 12.7018 20.535 12.7131 20.6031C12.8039 21.0117 12.9856 21.3296 13.2126 21.4999C13.5645 21.761 14.1775 21.7723 14.7792 21.5453C14.8813 21.5112 14.9722 21.4772 14.9722 21.4885C14.9949 21.5112 14.6884 21.7156 14.484 21.8177C14.2002 21.9653 13.9732 22.0107 13.6667 22.0107C13.1218 22.0107 12.6564 21.7269 12.2818 21.1593C12.2023 21.0458 12.0434 20.7166 11.9071 20.4101C11.5098 19.4906 11.3055 19.2182 10.8401 18.9116C10.4314 18.6506 9.90921 18.5938 9.5119 18.7868C8.98971 19.0365 8.85349 19.7063 9.21675 20.1149C9.36432 20.2852 9.63677 20.4214 9.86381 20.4555C10.2838 20.5123 10.6471 20.1831 10.6471 19.763C10.6471 19.4906 10.5449 19.3317 10.2725 19.2068C9.90921 19.0479 9.5119 19.2295 9.52325 19.5814C9.52325 19.729 9.59136 19.8198 9.73893 19.8879C9.82975 19.9333 9.82975 19.9333 9.76164 19.922C9.43243 19.8539 9.35297 19.4452 9.61406 19.1841C9.93192 18.8662 10.6017 19.0025 10.8287 19.4452C10.9195 19.6268 10.9309 19.9901 10.8514 20.2171C10.6584 20.7166 10.1135 20.9777 9.5573 20.8301C9.18269 20.728 9.02376 20.6258 8.56969 20.1604C7.77505 19.343 7.46855 19.1841 6.33336 19.0138L6.11768 18.9798L6.35607 18.7527Z" fill="white"/>
<path fill-rule="evenodd" clip-rule="evenodd" d="M0.385493 0.488132C3.03049 3.70072 7.10582 8.69556 7.31016 8.96801C7.48044 9.19505 7.41233 9.41073 7.12853 9.56966C6.9696 9.66048 6.6404 9.75129 6.48147 9.75129C6.29984 9.75129 6.08415 9.66048 5.93658 9.5129C5.83441 9.41073 5.39169 8.76367 4.39272 7.20846C3.63214 6.01651 2.98508 5.0289 2.97373 5.01754C2.92832 4.99484 2.92832 4.99484 4.31325 7.46956C5.18735 9.02477 5.47115 9.58101 5.47115 9.64912C5.47115 9.7967 5.42574 9.87616 5.24411 10.0805C4.93761 10.4211 4.80139 10.807 4.69922 11.613C4.5857 12.5098 4.2792 13.1455 3.4051 14.2239C2.89427 14.8597 2.8148 14.9732 2.68993 15.2343C2.531 15.5521 2.4856 15.7337 2.46289 16.1424C2.44019 16.5738 2.4856 16.8462 2.61047 17.2549C2.72399 17.6182 2.84886 17.8566 3.15536 18.322C3.41645 18.7307 3.57538 19.0372 3.57538 19.1507C3.57538 19.2415 3.59808 19.2415 4.00675 19.1507C4.98302 18.9236 5.789 18.5377 6.23173 18.0609C6.50417 17.7657 6.57228 17.6068 6.57228 17.1981C6.57228 16.937 6.56093 16.8803 6.49282 16.7214C6.3793 16.4716 6.16362 16.2673 5.69819 15.9494C5.08518 15.5294 4.82409 15.1889 4.75598 14.7348C4.69922 14.3488 4.76733 14.0877 5.10789 13.3726C5.4598 12.6347 5.55061 12.3282 5.60737 11.5789C5.64143 11.1022 5.69819 10.9092 5.83441 10.7616C5.98199 10.6027 6.10686 10.5459 6.45877 10.5005C7.03771 10.4211 7.41233 10.2735 7.70748 9.98968C7.96857 9.75129 8.08209 9.5129 8.09344 9.16099L8.10479 8.8999L7.95722 8.74097C7.42368 8.12797 0.0335841 0 -0.000471624 0C-0.0118235 0 0.169807 0.215686 0.385493 0.488132ZM3.87053 16.6305C3.9954 16.4149 3.92729 16.1424 3.72295 16.0062C3.52997 15.8813 3.23482 15.9381 3.23482 16.1084C3.23482 16.1538 3.25753 16.1992 3.32564 16.2219C3.42781 16.2786 3.43916 16.3354 3.35969 16.4603C3.28023 16.5851 3.28023 16.6987 3.3824 16.7781C3.54132 16.903 3.75701 16.8349 3.87053 16.6305Z" fill="white"/>
<path fill-rule="evenodd" clip-rule="evenodd" d="M8.46817 10.6606C8.19573 10.74 7.93464 11.0352 7.85517 11.3303C7.80977 11.512 7.83247 11.8412 7.91193 11.9433C8.0368 12.1022 8.15032 12.1477 8.46817 12.1477C9.09253 12.1477 9.62607 11.8752 9.68282 11.546C9.73958 11.2736 9.50119 10.899 9.17199 10.7287C9.00171 10.6379 8.6498 10.6038 8.46817 10.6606ZM9.19469 11.2282C9.28551 11.0919 9.25145 10.9444 9.08118 10.8422C8.77468 10.6492 8.30925 10.8081 8.30925 11.1033C8.30925 11.2509 8.54764 11.4098 8.77468 11.4098C8.92225 11.4098 9.12658 11.319 9.19469 11.2282Z" fill="white"/>
</g>
<defs>
<clipPath id="clip0">
<rect width="20" height="22" fill="white"/>
</clipPath>
</defs>
</svg>
