<svg width="37" height="36" viewBox="0 0 37 36" fill="none" xmlns="http://www.w3.org/2000/svg">
<rect x="0.0996094" width="36" height="36" rx="18" fill="#FCB400"/>
<path d="M32.3527 18.4566C32.3527 26.4096 25.9057 32.8566 17.9527 32.8566C9.99984 32.8566 3.55273 26.4096 3.55273 18.4566C3.55273 10.5037 9.99984 4.05664 17.9527 4.05664C25.9057 4.05664 32.3527 10.5037 32.3527 18.4566Z" stroke="#141414" stroke-width="2.43168" stroke-linecap="round" stroke-linejoin="round"/>
<path d="M22.4223 12.0015H16.712C14.9293 12.0015 13.4844 13.4465 13.4844 15.2291C13.4844 17.0117 14.9293 18.4566 16.712 18.4566H19.1947C20.9773 18.4566 22.4223 19.9016 22.4223 21.6842C22.4223 23.4668 20.9773 24.9118 19.1947 24.9118H13.4844" stroke="#141414" stroke-width="2.43168" stroke-linecap="round" stroke-linejoin="round"/>
<path d="M17.9531 10.0153V11.0084" stroke="#141414" stroke-width="2.43168" stroke-linecap="round" stroke-linejoin="round"/>
<path d="M17.9531 25.905V26.8981" stroke="#141414" stroke-width="2.43168" stroke-linecap="round" stroke-linejoin="round"/>
</svg>
