<svg width="20" height="20" viewBox="0 0 20 20" fill="none" xmlns="http://www.w3.org/2000/svg">
<path d="M10 20C15.5228 20 20 15.5228 20 10C20 4.47715 15.5228 0 10 0C4.47715 0 0 4.47715 0 10C0 15.5228 4.47715 20 10 20Z" fill="black"/>
<path d="M10 20C15.5228 20 20 15.5228 20 10C20 4.47715 15.5228 0 10 0C4.47715 0 0 4.47715 0 10C0 15.5228 4.47715 20 10 20Z" fill="#2775C9"/>
<path style="mix-blend-mode:soft-light" d="M10 20C15.5228 20 20 15.5228 20 10C20 4.47715 15.5228 0 10 0C4.47715 0 0 4.47715 0 10C0 15.5228 4.47715 20 10 20Z" fill="url(#paint0_linear)"/>
<path d="M9.83333 17.6667C5.50667 17.6667 2 14.16 2 9.83333C2 5.50667 5.50667 2 9.83333 2C14.16 2 17.6667 5.50667 17.6667 9.83333C17.6667 11.9109 16.8414 13.9033 15.3723 15.3723C13.9033 16.8414 11.9109 17.6667 9.83333 17.6667ZM9.36667 6.92667C8.93807 6.94792 8.5329 7.12862 8.2307 7.43329C7.9285 7.73795 7.7511 8.14458 7.73333 8.57333C7.73333 9.38 8.22667 9.90667 9.27333 10.1267L10.0067 10.3C10.72 10.4667 11.0133 10.7067 11.0133 11.1133C11.0133 11.52 10.5 11.92 9.83333 11.92C9.59653 11.9417 9.3584 11.8963 9.14619 11.789C8.93397 11.6818 8.75624 11.5169 8.63333 11.3133C8.59692 11.2361 8.53943 11.1707 8.46748 11.1247C8.39553 11.0787 8.31206 11.054 8.22667 11.0533H7.83333C7.80309 11.0589 7.77424 11.0705 7.74847 11.0873C7.72269 11.104 7.70049 11.1258 7.68315 11.1512C7.6658 11.1766 7.65364 11.2052 7.64738 11.2353C7.64112 11.2654 7.64088 11.2965 7.64667 11.3267C7.74248 11.7177 7.96524 12.0659 8.2801 12.3169C8.59495 12.5678 8.98411 12.7072 9.38667 12.7133V13.2733C9.38667 13.398 9.43618 13.5175 9.52433 13.6057C9.61247 13.6938 9.73202 13.7433 9.85667 13.7433C9.98132 13.7433 10.1009 13.6938 10.189 13.6057C10.2771 13.5175 10.3267 13.398 10.3267 13.2733V12.7067C10.7819 12.7015 11.217 12.5188 11.5396 12.1976C11.8621 11.8763 12.0464 11.4418 12.0533 10.9867C12.0533 10.14 11.5667 9.65333 10.4133 9.40667L9.74667 9.26C9.08 9.09333 8.76667 8.87333 8.76667 8.5C8.76667 8.12667 9.16667 7.71333 9.83333 7.71333C10.0433 7.6914 10.2551 7.73072 10.4432 7.82655C10.6313 7.92237 10.7876 8.0706 10.8933 8.25333C10.9362 8.34459 11.004 8.42183 11.089 8.47611C11.1739 8.53039 11.2725 8.55948 11.3733 8.56H11.6867C11.7579 8.54257 11.8195 8.49789 11.8581 8.43556C11.8968 8.37323 11.9094 8.29822 11.8933 8.22667C11.803 7.86562 11.601 7.54233 11.3161 7.30289C11.0311 7.06346 10.6779 6.92013 10.3067 6.89333V6.43333C10.3067 6.30868 10.2571 6.18914 10.169 6.10099C10.0809 6.01285 9.96132 5.96333 9.83667 5.96333C9.71202 5.96333 9.59247 6.01285 9.50433 6.10099C9.41618 6.18914 9.36667 6.30868 9.36667 6.43333V6.92667ZM3.96 9.83333C3.96076 11.0614 4.34732 12.2582 5.06506 13.2546C5.7828 14.2511 6.79546 14.9969 7.96 15.3867H8.05333C8.1329 15.3867 8.2092 15.3551 8.26547 15.2988C8.32173 15.2425 8.35333 15.1662 8.35333 15.0867V14.9467C8.35355 14.8226 8.31692 14.7012 8.24809 14.5979C8.17925 14.4947 8.0813 14.4142 7.96667 14.3667C7.05974 14.0006 6.2829 13.3719 5.73586 12.5611C5.18882 11.7504 4.89654 10.7947 4.89654 9.81667C4.89654 8.83864 5.18882 7.88294 5.73586 7.07221C6.2829 6.26148 7.05974 5.63274 7.96667 5.26667C8.08078 5.22032 8.17849 5.14103 8.24736 5.03892C8.31623 4.93681 8.35312 4.8165 8.35333 4.69333V4.54C8.35377 4.49498 8.34333 4.45052 8.32292 4.41039C8.30252 4.37026 8.27273 4.33564 8.23609 4.30947C8.19946 4.2833 8.15705 4.26635 8.11247 4.26006C8.06789 4.25377 8.02245 4.25832 7.98 4.27333C6.81064 4.66006 5.79286 5.4054 5.07122 6.4035C4.34958 7.40159 3.96076 8.60169 3.96 9.83333ZM15.7067 9.83333C15.7045 8.60643 15.3173 7.41114 14.5997 6.41601C13.882 5.42088 12.8701 4.67609 11.7067 4.28667H11.6067C11.5236 4.28667 11.4439 4.31968 11.3851 4.37844C11.3263 4.4372 11.2933 4.5169 11.2933 4.6V4.7C11.296 4.82858 11.3358 4.95364 11.408 5.0601C11.4802 5.16656 11.5816 5.24987 11.7 5.3C12.6049 5.66714 13.3796 6.29593 13.9251 7.10589C14.4705 7.91586 14.7619 8.87016 14.7619 9.84667C14.7619 10.8232 14.4705 11.7775 13.9251 12.5874C13.3796 13.3974 12.6049 14.0262 11.7 14.3933C11.5838 14.444 11.4845 14.5267 11.4136 14.6318C11.3428 14.7369 11.3034 14.86 11.3 14.9867V15.1C11.3006 15.1494 11.3128 15.198 11.3358 15.2418C11.3587 15.2856 11.3917 15.3233 11.432 15.3519C11.4723 15.3805 11.5188 15.3992 11.5677 15.4064C11.6166 15.4136 11.6665 15.4091 11.7133 15.3933C12.8777 15.002 13.8897 14.2548 14.6063 13.2571C15.3228 12.2594 15.7078 11.0617 15.7067 9.83333Z" fill="white"/>
<defs>
<linearGradient id="paint0_linear" x1="10" y1="0" x2="10" y2="20" gradientUnits="userSpaceOnUse">
<stop stop-color="white" stop-opacity="0.5"/>
<stop offset="1" stop-opacity="0.5"/>
</linearGradient>
</defs>
</svg>
