<svg width="20" height="20" viewBox="0 0 20 20" fill="none" xmlns="http://www.w3.org/2000/svg">
<path d="M10 20C15.5228 20 20 15.5228 20 10C20 4.47715 15.5228 0 10 0C4.47715 0 0 4.47715 0 10C0 15.5228 4.47715 20 10 20Z" fill="black"/>
<path d="M10 20C15.5228 20 20 15.5228 20 10C20 4.47715 15.5228 0 10 0C4.47715 0 0 4.47715 0 10C0 15.5228 4.47715 20 10 20Z" fill="#26A17B"/>
<path style="mix-blend-mode:soft-light" d="M10 20C15.5228 20 20 15.5228 20 10C20 4.47715 15.5228 0 10 0C4.47715 0 0 4.47715 0 10C0 15.5228 4.47715 20 10 20Z" fill="url(#paint0_linear)"/>
<g filter="url(#filter0_d)">
<path d="M11.2814 10.9219V10.9206C11.2081 10.9259 10.8301 10.9486 9.98678 10.9486C9.31345 10.9486 8.83945 10.9286 8.67278 10.9206V10.9226C6.08078 10.8086 4.14611 10.3572 4.14611 9.81723C4.14611 9.2779 6.08078 8.82657 8.67278 8.71057V10.4732C8.84211 10.4852 9.32745 10.5139 9.99811 10.5139C10.8028 10.5139 11.2061 10.4806 11.2814 10.4739V8.7119C13.8681 8.82723 15.7981 9.27857 15.7981 9.81723C15.7981 10.3572 13.8681 10.8072 11.2814 10.9219ZM11.2814 8.52857V6.95123H14.8908V4.5459H5.06345V6.95123H8.67278V8.5279C5.73945 8.66257 3.53345 9.2439 3.53345 9.9399C3.53345 10.6359 5.73945 11.2166 8.67278 11.3519V16.4066H11.2814V11.3506C14.2101 11.2159 16.4108 10.6352 16.4108 9.9399C16.4108 9.24457 14.2101 8.6639 11.2814 8.52857Z" fill="black"/>
</g>
<path d="M11.2814 10.9219V10.9206C11.2081 10.9259 10.8301 10.9486 9.98678 10.9486C9.31345 10.9486 8.83945 10.9286 8.67278 10.9206V10.9226C6.08078 10.8086 4.14611 10.3572 4.14611 9.81723C4.14611 9.2779 6.08078 8.82657 8.67278 8.71057V10.4732C8.84211 10.4852 9.32745 10.5139 9.99811 10.5139C10.8028 10.5139 11.2061 10.4806 11.2814 10.4739V8.7119C13.8681 8.82723 15.7981 9.27857 15.7981 9.81723C15.7981 10.3572 13.8681 10.8072 11.2814 10.9219ZM11.2814 8.52857V6.95123H14.8908V4.5459H5.06345V6.95123H8.67278V8.5279C5.73945 8.66257 3.53345 9.2439 3.53345 9.9399C3.53345 10.6359 5.73945 11.2166 8.67278 11.3519V16.4066H11.2814V11.3506C14.2101 11.2159 16.4108 10.6352 16.4108 9.9399C16.4108 9.24457 14.2101 8.6639 11.2814 8.52857Z" fill="white"/>
<defs>
<filter id="filter0_d" x="2.53345" y="4.0459" width="14.8773" height="13.8607" filterUnits="userSpaceOnUse" color-interpolation-filters="sRGB">
<feFlood flood-opacity="0" result="BackgroundImageFix"/>
<feColorMatrix in="SourceAlpha" type="matrix" values="0 0 0 0 0 0 0 0 0 0 0 0 0 0 0 0 0 0 127 0"/>
<feOffset dy="0.5"/>
<feGaussianBlur stdDeviation="0.5"/>
<feColorMatrix type="matrix" values="0 0 0 0 0 0 0 0 0 0 0 0 0 0 0 0 0 0 0.204257 0"/>
<feBlend mode="normal" in2="BackgroundImageFix" result="effect1_dropShadow"/>
<feBlend mode="normal" in="SourceGraphic" in2="effect1_dropShadow" result="shape"/>
</filter>
<linearGradient id="paint0_linear" x1="10" y1="0" x2="10" y2="20" gradientUnits="userSpaceOnUse">
<stop stop-color="white" stop-opacity="0.5"/>
<stop offset="1" stop-opacity="0.5"/>
</linearGradient>
</defs>
</svg>
