<svg width="110" height="110" viewBox="0 0 110 110" fill="none" xmlns="http://www.w3.org/2000/svg">
<path d="M54.8328 0.621104C69.3893 0.621105 83.0762 6.29025 93.3693 16.5834C103.665 26.8765 109.334 40.5633 109.334 55.1199C109.334 69.6764 103.665 83.3657 93.3717 93.6588C83.0786 103.952 69.3918 109.621 54.8328 109.621C40.2738 109.621 26.5894 103.952 16.2963 93.6588C6.00313 83.3657 0.333988 69.6789 0.333989 55.1223C0.33399 40.5658 6.00314 26.8789 16.2963 16.5858C26.5894 6.29025 40.2762 0.621103 54.8328 0.621104ZM54.8328 105.918C68.4002 105.918 81.1588 100.634 90.7528 91.0399C100.347 81.4459 105.631 68.6898 105.631 55.1199C105.631 41.55 100.347 28.7938 90.7528 19.1999C81.1588 9.60598 68.4027 4.32176 54.8328 4.32176C41.2629 4.32176 28.5067 9.60597 18.9128 19.1999C9.31886 28.7938 4.03465 41.55 4.03465 55.1199C4.03465 68.6898 9.31886 81.4435 18.9128 91.0399C28.5092 100.634 41.2653 105.918 54.8328 105.918Z" fill="url(#paint0_linear)"/>
<circle cx="54.834" cy="55.1211" r="50.9839" fill="#121212"/>
<g clip-path="url(#clip0)">
<path fill-rule="evenodd" clip-rule="evenodd" d="M33.9183 26.9336L21.8842 51.589C21.8384 51.6807 21.8239 51.7843 21.8428 51.8846C21.8617 51.985 21.913 52.0768 21.9892 52.1466L54.4904 82.524C54.5828 82.6103 54.7057 82.6585 54.8336 82.6585C54.9615 82.6585 55.0845 82.6103 55.1768 82.524L87.6781 52.1485C87.7543 52.0787 87.8056 51.9869 87.8245 51.8865C87.8434 51.7862 87.8289 51.6826 87.7831 51.5909L75.749 26.9355C75.7101 26.8527 75.6477 26.7826 75.569 26.7335C75.4904 26.6844 75.399 26.6584 75.3056 26.6586H34.3655C34.2717 26.6575 34.1796 26.6828 34.1002 26.7316C34.0209 26.7804 33.9577 26.8506 33.9183 26.9336Z" fill="#50AF95"/>
<path fill-rule="evenodd" clip-rule="evenodd" d="M59.0095 54.1209C58.7762 54.1379 57.5706 54.2081 54.8815 54.2081C52.7426 54.2081 51.224 54.1455 50.6912 54.1209C42.4254 53.7662 36.2557 52.3628 36.2557 50.6824C36.2557 49.002 42.4254 47.6005 50.6912 47.2401V52.7231C51.2318 52.761 52.7795 52.8502 54.9184 52.8502C57.4851 52.8502 58.7703 52.7459 59.0017 52.725V47.2439C67.25 47.6024 73.4061 49.0058 73.4061 50.6824C73.4061 52.359 67.252 53.7624 59.0017 54.119L59.0095 54.1209ZM59.0095 46.6768V41.7704H70.5206V34.2885H39.1802V41.7704H50.6893V46.6749C41.3346 47.0941 34.2996 48.9015 34.2996 51.0674C34.2996 53.2333 41.3346 55.0388 50.6893 55.4599V71.1824H59.0076V55.4542C68.3409 55.035 75.3642 53.2295 75.3642 51.0655C75.3642 48.9015 68.3467 47.096 59.0076 46.6749L59.0095 46.6768Z" fill="white"/>
</g>
<defs>
<linearGradient id="paint0_linear" x1="93.3713" y1="16.5837" x2="16.2965" y2="93.6584" gradientUnits="userSpaceOnUse">
<stop/>
<stop offset="1" stop-color="#515151"/>
</linearGradient>
<clipPath id="clip0">
<rect width="66" height="56" fill="white" transform="translate(21.834 26.6586)"/>
</clipPath>
</defs>
</svg>
