<svg width="24" height="24" viewBox="0 0 24 24" fill="none" xmlns="http://www.w3.org/2000/svg">
<path d="M12.8736 6.81818L12.7443 14.0717H11.3672L11.2379 6.81818H12.8736ZM12.0533 17.0945C11.7815 17.0945 11.5478 16.9983 11.3523 16.8061C11.1567 16.6106 11.0589 16.3752 11.0589 16.1001C11.0589 15.8284 11.1567 15.5964 11.3523 15.4041C11.5478 15.2086 11.7815 15.1108 12.0533 15.1108C12.325 15.1108 12.5587 15.2086 12.7543 15.4041C12.9498 15.5964 13.0476 15.8284 13.0476 16.1001C13.0476 16.3752 12.9498 16.6106 12.7543 16.8061C12.5587 16.9983 12.325 17.0945 12.0533 17.0945Z" fill="white"/>
<circle cx="12" cy="12" r="9.5" stroke="white"/>
</svg>
