<svg width="20" height="20" viewBox="0 0 20 20" fill="none" xmlns="http://www.w3.org/2000/svg">
<path d="M10 20C15.5228 20 20 15.5228 20 10C20 4.47715 15.5228 0 10 0C4.47715 0 0 4.47715 0 10C0 15.5228 4.47715 20 10 20Z" fill="black"/>
<path d="M10 20C15.5228 20 20 15.5228 20 10C20 4.47715 15.5228 0 10 0C4.47715 0 0 4.47715 0 10C0 15.5228 4.47715 20 10 20Z" fill="#201A2D"/>
<path style="mix-blend-mode:soft-light" d="M10 20C15.5228 20 20 15.5228 20 10C20 4.47715 15.5228 0 10 0C4.47715 0 0 4.47715 0 10C0 15.5228 4.47715 20 10 20Z" fill="url(#paint0_linear)"/>
<g filter="url(#filter0_d)">
<path d="M14.5455 5.72412L14.1455 6.12412C15.0999 7.1679 15.6292 8.53108 15.6292 9.94546C15.6292 11.3598 15.0999 12.723 14.1455 13.7668L14.5455 14.1668C15.6069 13.0154 16.1962 11.5068 16.1962 9.94079C16.1962 8.3748 15.6069 6.86615 14.5455 5.71479V5.72412ZM6.13346 5.75879C7.17723 4.80433 8.54041 4.27502 9.95479 4.27502C11.3692 4.27502 12.7323 4.80433 13.7761 5.75879L14.1761 5.35879C13.0248 4.29732 11.5161 3.70801 9.95012 3.70801C8.38413 3.70801 6.87548 4.29732 5.72412 5.35879L6.13346 5.75879ZM5.75879 13.7708C4.80546 12.7272 4.27685 11.3649 4.27685 9.95146C4.27685 8.53801 4.80546 7.17567 5.75879 6.13212L5.35879 5.73212C4.29732 6.88348 3.70801 8.39213 3.70801 9.95812C3.70801 11.5241 4.29732 13.0328 5.35879 14.1841L5.75879 13.7708ZM13.7708 14.1401C12.727 15.0946 11.3638 15.6239 9.94946 15.6239C8.53508 15.6239 7.1719 15.0946 6.12812 14.1401L5.72812 14.5401C6.87948 15.6016 8.38813 16.1909 9.95412 16.1909C11.5201 16.1909 13.0288 15.6016 14.1801 14.5401L13.7708 14.1401ZM12.4761 8.61612C12.3961 7.78146 11.6761 7.50146 10.7655 7.41612V6.26679H10.0615V7.39479H9.49879V6.26679H8.80012V7.42412H7.37212V8.17746C7.37212 8.17746 7.89212 8.16812 7.88412 8.17746C7.97788 8.16714 8.07199 8.19363 8.1466 8.25133C8.22122 8.30903 8.27052 8.39345 8.28412 8.48679V11.6548C8.28212 11.6877 8.27354 11.7199 8.25888 11.7494C8.24422 11.779 8.22379 11.8053 8.19879 11.8268C8.17426 11.8487 8.14555 11.8654 8.11439 11.876C8.08323 11.8865 8.05026 11.8907 8.01746 11.8881C8.02679 11.8961 7.50546 11.8881 7.50546 11.8881L7.37212 12.7295H8.78679V13.9055H9.49079V12.7468H10.0535V13.9001H10.7588V12.7375C11.9481 12.6655 12.7775 12.3721 12.8815 11.2588C12.9655 10.3628 12.5441 9.96279 11.8708 9.80146C12.2801 9.60012 12.5335 9.22679 12.4761 8.61612ZM11.4895 11.1201C11.4895 11.9948 9.99079 11.8948 9.51346 11.8948V10.3428C9.99079 10.3441 11.4895 10.2068 11.4895 11.1201ZM11.1628 8.93346C11.1628 9.73346 9.91212 9.63612 9.51479 9.63612V8.22546C9.91212 8.22546 11.1628 8.10012 11.1628 8.93346Z" fill="white"/>
<path d="M9.94941 17.235C5.92675 17.2343 2.66675 13.973 2.66675 9.95033C2.66675 5.92833 5.92808 2.66699 9.95008 2.66699C13.9727 2.66699 17.2341 5.92699 17.2347 9.94966C17.2349 10.9064 17.0466 11.8539 16.6805 12.7378C16.3145 13.6218 15.7779 14.425 15.1013 15.1016C14.4248 15.7781 13.6216 16.3147 12.7376 16.6808C11.8536 17.0468 10.9062 17.2352 9.94941 17.235ZM9.94941 3.23499C6.24341 3.23766 3.24141 6.24366 3.24275 9.94966C3.24408 13.6557 6.24941 16.659 9.95475 16.659C13.6607 16.659 16.6654 13.6557 16.6667 9.94966C16.6671 9.06755 16.4936 8.19403 16.1561 7.37904C15.8186 6.56404 15.3238 5.82357 14.6999 5.19995C14.076 4.57633 13.3354 4.0818 12.5202 3.74464C11.7051 3.40747 10.8315 3.23429 9.94941 3.23499Z" fill="white"/>
</g>
<defs>
<filter id="filter0_d" x="1.66675" y="2.16699" width="16.568" height="16.568" filterUnits="userSpaceOnUse" color-interpolation-filters="sRGB">
<feFlood flood-opacity="0" result="BackgroundImageFix"/>
<feColorMatrix in="SourceAlpha" type="matrix" values="0 0 0 0 0 0 0 0 0 0 0 0 0 0 0 0 0 0 127 0"/>
<feOffset dy="0.5"/>
<feGaussianBlur stdDeviation="0.5"/>
<feColorMatrix type="matrix" values="0 0 0 0 0 0 0 0 0 0 0 0 0 0 0 0 0 0 0.204257 0"/>
<feBlend mode="normal" in2="BackgroundImageFix" result="effect1_dropShadow"/>
<feBlend mode="normal" in="SourceGraphic" in2="effect1_dropShadow" result="shape"/>
</filter>
<linearGradient id="paint0_linear" x1="10" y1="0" x2="10" y2="20" gradientUnits="userSpaceOnUse">
<stop stop-color="white" stop-opacity="0.5"/>
<stop offset="1" stop-opacity="0.5"/>
</linearGradient>
</defs>
</svg>
